<?xml version="1.0" encoding="utf-8" ?><svg version="1.1" xmlns = 'http://www.w3.org/2000/svg'><defs><font id='web' horiz-adv-x="1000">
<font-face font-family="web" descent="-436" cap-height="1516" units-per-em="2048" bbox="-147,-518,2109,2001" x-height="1085" ascent="1612" />
<missing-glyph horiz-adv-x="1024" d="" /><glyph horiz-adv-x="352" d="" unicode=" " />
<glyph horiz-adv-x="520" d="M 137 1516 L 387 1516 L 350 416 L 172 416 L 137 1516 Z M 139 242 L 383 242 L 383 0 L 139 0 L 139 242 Z" unicode="!" />
<glyph horiz-adv-x="692" d="M 406 1411 L 406 1516 L 598 1516 L 598 1411 L 575 989 L 428 989 L 406 1411 Z M 92 1411 L 92 1516 L 289 1516 L 289 1411 L 264 989 L 119 989 L 92 1411 Z" unicode="&#x22;" />
<glyph horiz-adv-x="1073" d="M 199 428 L 41 428 L 41 604 L 225 604 L 270 911 L 102 911 L 102 1087 L 297 1087 L 360 1516 L 555 1516 L 492 1087 L 674 1087 L 735 1516 L 930 1516 L 868 1087 L 1032 1087 L 1032 911 L 842 911 L 797 604 L 969 604 L 969 428 L 770 428 L 709 0 L 512 0 L 573 428 L 393 428 L 332 0 L 135 0 L 199 428 Z M 604 598 L 651 918 L 463 918 L 418 598 L 604 598 Z" unicode="#" />
<glyph horiz-adv-x="961" d="M 387 1677 L 567 1677 L 567 1509 C 607 1499 643 1484 673 1464 C 703 1444 730 1418 753 1388 C 775 1357 795 1322 811 1282 C 827 1242 842 1198 856 1151 L 662 1100 C 649 1140 636 1175 623 1205 C 609 1234 595 1258 579 1277 C 563 1295 546 1309 527 1318 C 507 1326 485 1331 461 1331 C 437 1331 415 1327 397 1319 C 378 1311 362 1299 350 1285 C 337 1271 327 1254 321 1234 C 314 1214 311 1193 311 1169 C 311 1129 319 1094 335 1062 C 351 1030 372 1001 399 974 C 425 946 455 920 489 896 C 523 872 557 847 592 821 C 627 795 661 768 695 739 C 729 710 759 678 786 643 C 812 607 834 568 850 524 C 866 480 874 431 874 375 C 874 272 848 188 796 123 C 744 58 668 18 567 4 L 567 -190 L 387 -190 L 387 6 C 341 15 300 30 266 50 C 231 70 201 97 175 130 C 149 163 127 203 109 249 C 91 295 75 348 63 408 L 256 449 C 276 359 305 292 341 247 C 377 202 424 180 483 180 C 539 180 583 195 613 225 C 643 255 659 299 659 358 C 659 397 651 432 635 464 C 619 495 597 524 571 551 C 545 577 515 603 482 627 C 448 651 414 676 379 702 C 344 727 310 754 277 783 C 243 812 213 844 187 880 C 161 916 140 956 124 1001 C 108 1046 100 1097 100 1155 C 100 1204 106 1249 119 1291 C 132 1332 151 1368 176 1399 C 200 1430 230 1456 266 1476 C 301 1496 341 1509 387 1516 L 387 1677 Z" unicode="$" />
<glyph horiz-adv-x="1532" d="M 348 643 C 296 643 251 654 215 676 C 179 698 149 728 127 767 C 104 806 88 853 78 907 C 68 961 63 1020 63 1085 C 63 1153 68 1214 79 1269 C 90 1324 107 1371 131 1411 C 155 1450 185 1480 221 1502 C 257 1523 300 1534 350 1534 C 400 1534 442 1523 478 1502 C 514 1481 543 1451 566 1412 C 588 1373 605 1326 615 1272 C 625 1217 631 1156 631 1090 C 631 1026 626 967 616 913 C 606 858 589 811 567 771 C 544 731 515 699 479 677 C 443 654 400 643 348 643 Z M 991 1516 L 1176 1516 L 543 0 L 356 0 L 991 1516 Z M 1186 -16 C 1134 -16 1090 -5 1054 17 C 1018 39 989 69 967 108 C 944 147 928 194 918 248 C 908 302 903 360 903 424 C 903 492 908 553 919 609 C 929 664 946 711 969 751 C 992 790 1021 820 1057 842 C 1093 863 1136 874 1186 874 C 1236 874 1279 863 1315 842 C 1351 821 1380 791 1403 753 C 1425 714 1442 667 1452 613 C 1462 559 1468 498 1468 432 C 1468 368 1463 308 1453 254 C 1443 199 1426 152 1404 112 C 1381 72 1352 40 1316 18 C 1280 -4 1237 -16 1186 -16 Z M 348 795 C 366 795 382 801 395 815 C 407 828 417 847 424 872 C 431 897 436 928 439 964 C 442 1000 444 1041 444 1087 C 444 1184 437 1257 423 1305 C 409 1353 384 1378 346 1378 C 326 1378 310 1371 298 1359 C 286 1346 276 1327 269 1303 C 262 1279 257 1249 254 1213 C 251 1177 250 1137 250 1092 C 250 994 256 920 270 870 C 284 820 310 795 348 795 Z M 1186 135 C 1204 135 1220 141 1233 155 C 1245 168 1255 187 1263 213 C 1271 238 1276 269 1279 305 C 1282 341 1284 382 1284 428 C 1284 528 1276 601 1262 648 C 1248 695 1222 719 1184 719 C 1164 719 1148 712 1136 699 C 1124 686 1114 667 1107 643 C 1099 619 1094 589 1091 553 C 1088 517 1087 477 1087 432 C 1087 333 1094 259 1108 209 C 1122 159 1148 135 1186 135 Z" unicode="%" />
<glyph horiz-adv-x="1090" d="M 520 799 C 532 771 545 746 559 722 C 572 698 585 675 598 655 C 621 616 645 577 671 539 C 697 500 724 463 752 428 C 771 480 786 536 797 597 C 808 657 815 720 817 784 L 1004 784 C 995 693 981 605 963 519 C 945 433 919 355 885 283 C 915 257 945 237 977 221 C 1008 205 1040 194 1073 190 L 1073 -8 C 1017 -6 965 6 916 29 C 866 51 819 81 774 119 C 732 77 684 44 630 20 C 575 -4 510 -16 436 -16 C 370 -16 313 -7 263 9 C 213 25 171 49 137 81 C 103 112 78 151 61 197 C 43 243 35 295 35 354 C 35 410 42 460 56 505 C 70 550 89 591 113 629 C 136 667 163 701 194 732 C 224 763 256 793 289 821 C 264 881 244 940 228 998 C 212 1056 205 1117 205 1182 C 205 1240 212 1291 228 1335 C 243 1379 264 1415 292 1445 C 319 1475 351 1497 389 1513 C 426 1528 467 1536 512 1536 C 563 1536 606 1528 641 1512 C 676 1496 704 1475 726 1449 C 748 1423 763 1392 773 1358 C 783 1323 788 1287 788 1249 C 788 1195 780 1148 765 1106 C 749 1064 729 1026 704 991 C 679 955 651 922 619 892 C 587 861 554 830 520 799 Z M 453 963 C 474 983 494 1002 512 1021 C 530 1040 546 1060 560 1081 C 573 1102 583 1125 591 1150 C 598 1174 602 1202 602 1233 C 602 1251 600 1269 597 1285 C 594 1301 589 1314 582 1326 C 575 1338 566 1347 554 1354 C 542 1360 528 1364 512 1364 C 476 1364 448 1349 430 1319 C 412 1289 403 1249 403 1200 C 403 1158 407 1119 417 1083 C 426 1046 438 1006 453 963 Z M 645 246 C 609 288 574 332 541 380 C 507 427 476 474 446 522 C 434 541 421 562 408 584 C 395 606 383 628 371 651 C 335 611 306 569 284 524 C 261 479 250 429 250 373 C 250 343 253 314 261 288 C 269 261 281 238 297 219 C 313 199 334 184 360 173 C 385 161 415 156 451 156 C 489 156 525 163 558 179 C 590 194 619 216 645 246 Z" unicode="&#x26;" />
<glyph horiz-adv-x="385" d="M 92 1411 L 92 1516 L 293 1516 L 293 1411 L 268 989 L 119 989 L 92 1411 Z" unicode="'" />
<glyph horiz-adv-x="629" d="M 428 -420 C 375 -357 326 -289 282 -215 C 238 -141 200 -63 168 18 C 136 100 111 187 93 278 C 75 368 66 463 66 561 C 66 657 75 751 93 841 C 111 931 136 1017 168 1099 C 200 1181 238 1258 282 1332 C 326 1405 374 1474 426 1538 L 582 1446 C 539 1384 500 1318 464 1250 C 428 1181 396 1109 370 1035 C 344 960 323 883 309 804 C 294 724 287 643 287 561 C 287 477 294 395 309 313 C 323 231 344 151 370 75 C 396 0 427 -73 463 -142 C 499 -210 538 -273 582 -330 L 428 -420 L 428 -420 Z" unicode="(" />
<glyph horiz-adv-x="629" d="M 47 -330 C 89 -267 129 -201 165 -132 C 201 -63 232 8 258 83 C 284 157 305 234 320 314 C 334 394 342 475 342 559 C 342 641 334 724 320 806 C 305 888 285 967 259 1043 C 233 1119 201 1191 165 1259 C 129 1327 89 1390 47 1446 L 203 1538 C 255 1474 304 1406 348 1333 C 392 1259 430 1181 462 1099 C 494 1017 518 930 536 840 C 554 750 563 656 563 559 C 563 461 554 368 536 278 C 518 188 494 102 462 20 C 430 -62 392 -139 348 -213 C 304 -287 255 -356 203 -420 L 47 -330 Z" unicode=")" />
<glyph horiz-adv-x="938" d="M 186 813 L 381 1069 L 66 1028 L 66 1214 L 387 1171 L 184 1436 L 350 1530 L 469 1225 L 592 1530 L 756 1436 L 557 1171 L 872 1214 L 872 1028 L 559 1069 L 754 813 L 594 717 L 469 1018 L 350 717 L 186 813 Z" unicode="*" />
<glyph horiz-adv-x="952" d="M 379 582 L 80 582 L 80 770 L 379 770 L 379 1176 L 573 1176 L 573 770 L 872 770 L 872 582 L 573 582 L 573 174 L 379 174 L 379 582 Z" unicode="+" />
<glyph horiz-adv-x="453" d="M 203 0 L 100 0 L 100 258 L 350 258 L 350 20 L 242 -229 L 139 -229 L 203 0 Z" unicode="," />
<glyph horiz-adv-x="563" d="M 74 731 L 489 731 L 489 543 L 74 543 L 74 731 Z" unicode="-" />
<glyph horiz-adv-x="453" d="M 100 258 L 350 258 L 350 0 L 100 0 L 100 258 Z" unicode="." />
<glyph horiz-adv-x="862" d="M 629 1516 L 850 1516 L 231 0 L 12 0 L 629 1516 Z" unicode="/" />
<glyph horiz-adv-x="981" d="M 489 -18 C 418 -18 356 -3 303 25 C 249 53 205 99 169 161 C 133 223 106 304 88 402 C 70 500 61 619 61 758 C 61 896 70 1015 88 1113 C 106 1211 133 1292 169 1354 C 205 1416 249 1462 303 1491 C 356 1519 418 1534 489 1534 C 560 1534 622 1519 676 1491 C 729 1462 773 1416 809 1354 C 844 1292 870 1211 888 1113 C 906 1015 915 896 915 758 C 915 619 906 500 888 402 C 870 304 844 223 809 161 C 773 99 729 53 676 25 C 622 -3 560 -18 489 -18 Z M 489 168 C 524 168 555 177 581 197 C 607 216 628 248 645 294 C 661 340 674 400 682 476 C 690 552 694 646 694 758 C 694 870 689 963 681 1038 C 673 1112 660 1172 643 1217 C 626 1262 605 1294 579 1313 C 553 1331 523 1341 489 1341 C 454 1341 424 1331 398 1313 C 372 1294 350 1262 333 1217 C 316 1172 303 1112 295 1038 C 287 963 283 870 283 758 C 283 646 287 552 296 476 C 304 400 317 340 334 294 C 351 248 373 216 399 197 C 425 177 455 168 489 168 Z" unicode="0" />
<glyph horiz-adv-x="694" d="M 59 193 L 260 193 L 260 1290 C 246 1280 231 1270 215 1262 C 199 1254 182 1247 165 1241 C 147 1235 130 1230 112 1226 C 94 1222 78 1221 63 1221 L 63 1417 C 104 1419 142 1428 177 1444 C 211 1460 240 1484 264 1516 L 473 1516 L 473 193 L 651 193 L 651 0 L 59 0 L 59 193 Z" unicode="1" />
<glyph horiz-adv-x="883" d="M 49 33 C 49 119 56 194 72 260 C 88 325 108 383 134 434 C 159 484 188 529 221 568 C 253 607 287 643 321 677 C 355 711 389 743 422 774 C 454 805 483 838 509 873 C 534 908 554 947 570 989 C 586 1031 594 1079 594 1135 C 594 1205 582 1256 558 1290 C 534 1324 496 1341 446 1341 C 423 1341 402 1337 384 1330 C 366 1323 349 1311 334 1293 C 319 1275 306 1250 294 1218 C 282 1186 271 1146 262 1098 L 61 1126 C 71 1190 87 1247 108 1297 C 129 1347 156 1390 189 1425 C 221 1460 260 1487 305 1506 C 350 1524 402 1534 461 1534 C 517 1534 566 1525 610 1507 C 653 1489 689 1464 719 1431 C 749 1397 771 1356 786 1308 C 801 1260 809 1205 809 1145 C 809 1083 801 1027 786 977 C 771 927 751 880 727 838 C 703 796 675 757 644 721 C 613 685 581 651 549 619 C 516 586 484 554 453 522 C 422 490 394 458 370 424 C 346 390 326 355 311 317 C 296 279 289 237 289 193 L 809 193 L 809 0 L 49 0 L 49 33 Z" unicode="2" />
<glyph horiz-adv-x="901" d="M 436 -20 C 372 -20 318 -11 274 5 C 229 22 191 46 160 78 C 128 110 103 148 83 194 C 63 239 46 290 33 346 L 225 383 C 244 305 270 248 304 214 C 337 179 378 162 428 162 C 492 162 539 185 569 231 C 599 277 614 344 614 432 C 614 484 609 529 600 565 C 591 601 576 630 554 652 C 532 674 502 689 466 699 C 429 708 383 713 328 713 L 274 713 L 274 893 L 342 893 C 394 893 436 897 469 907 C 501 916 527 931 545 951 C 563 971 576 997 583 1029 C 590 1061 594 1099 594 1145 C 594 1207 581 1257 557 1294 C 532 1331 491 1350 434 1350 C 408 1350 386 1345 367 1336 C 348 1326 332 1313 318 1297 C 304 1281 291 1262 281 1240 C 271 1218 262 1194 254 1169 L 68 1219 C 82 1267 100 1311 123 1351 C 145 1390 172 1423 203 1451 C 234 1479 270 1500 310 1515 C 350 1530 394 1538 444 1538 C 509 1538 565 1528 611 1510 C 657 1492 694 1466 723 1433 C 752 1400 773 1360 787 1314 C 800 1268 807 1217 807 1161 C 807 1064 788 987 750 930 C 712 872 658 833 586 813 C 626 799 662 782 692 762 C 722 741 748 715 769 683 C 789 651 805 612 815 568 C 825 524 831 472 831 412 C 831 348 823 290 807 238 C 791 185 766 139 734 101 C 702 63 661 33 611 12 C 561 -9 503 -20 436 -20 Z" unicode="3" />
<glyph horiz-adv-x="942" d="M 535 336 L 33 336 L 33 504 L 510 1516 L 743 1516 L 743 524 L 911 524 L 911 336 L 743 336 L 743 0 L 535 0 L 535 336 Z M 541 524 L 541 1180 L 539 1180 L 238 524 L 541 524 Z" unicode="4" />
<glyph horiz-adv-x="899" d="M 440 -20 C 376 -20 322 -11 278 7 C 234 25 196 50 166 82 C 136 114 111 153 92 199 C 72 244 57 294 45 348 L 238 393 C 257 316 282 258 313 220 C 343 181 382 162 430 162 C 466 162 496 170 520 186 C 544 202 564 226 580 256 C 595 286 606 321 613 363 C 619 405 623 451 623 502 C 623 613 609 695 582 748 C 554 800 512 827 455 827 C 411 827 373 812 343 784 C 312 756 287 718 268 670 L 92 702 L 133 1516 L 782 1516 L 774 1321 L 317 1321 L 295 889 C 305 905 317 921 333 936 C 348 951 365 964 385 975 C 405 986 427 995 451 1002 C 475 1008 501 1012 530 1012 C 580 1012 624 1002 663 983 C 702 963 735 933 761 893 C 787 852 807 800 821 737 C 835 673 842 598 842 510 C 842 421 832 343 814 277 C 795 211 768 156 733 112 C 698 68 656 35 606 13 C 556 -9 501 -20 440 -20 Z" unicode="5" />
<glyph horiz-adv-x="922" d="M 475 -20 C 407 -20 347 -5 295 24 C 243 53 200 98 166 160 C 131 221 105 299 87 393 C 69 487 61 600 61 731 C 61 857 68 970 83 1070 C 98 1170 123 1254 157 1324 C 191 1394 235 1447 290 1484 C 345 1521 413 1540 494 1540 C 545 1540 589 1532 627 1516 C 665 1500 697 1478 723 1452 C 749 1425 771 1394 789 1359 C 806 1324 820 1288 831 1251 L 645 1196 C 637 1216 629 1236 620 1255 C 610 1273 599 1290 587 1304 C 575 1318 560 1329 544 1337 C 527 1345 508 1350 487 1350 C 446 1350 412 1338 385 1315 C 357 1292 335 1259 319 1215 C 303 1171 291 1116 284 1052 C 277 987 274 913 274 831 C 308 871 348 903 395 927 C 441 951 491 963 543 963 C 603 963 655 951 697 927 C 739 903 773 871 799 829 C 825 787 843 738 855 681 C 866 623 872 561 872 494 C 872 417 863 347 847 284 C 831 221 806 167 773 122 C 740 77 699 42 649 17 C 599 -7 541 -20 475 -20 Z M 479 162 C 541 162 586 188 615 240 C 644 292 659 373 659 481 C 659 525 656 566 651 602 C 646 638 637 668 624 694 C 611 719 594 739 572 753 C 550 767 522 774 489 774 C 448 774 409 763 373 742 C 337 721 304 692 274 655 C 276 567 281 492 290 430 C 299 368 312 317 328 277 C 344 237 365 208 390 190 C 415 171 445 162 479 162 Z" unicode="6" />
<glyph horiz-adv-x="807" d="M 555 1321 L 41 1321 L 41 1516 L 770 1516 L 770 1333 L 348 0 L 127 0 L 555 1321 Z" unicode="7" />
<glyph horiz-adv-x="928" d="M 463 -29 C 389 -29 326 -18 273 1 C 220 21 177 49 143 84 C 109 119 83 160 67 206 C 51 252 43 302 43 354 C 43 406 50 453 65 496 C 80 538 100 577 125 613 C 150 649 178 681 210 711 C 242 740 275 767 309 793 C 280 815 252 839 226 863 C 200 887 176 915 156 945 C 136 975 120 1009 108 1047 C 96 1085 90 1130 90 1180 C 90 1230 98 1277 114 1321 C 130 1365 153 1403 185 1436 C 216 1469 255 1495 301 1515 C 347 1534 401 1544 463 1544 C 527 1544 582 1534 629 1515 C 676 1495 715 1469 745 1436 C 775 1403 798 1365 813 1321 C 828 1277 836 1230 836 1180 C 836 1138 830 1098 818 1062 C 806 1025 791 991 771 959 C 751 927 727 897 701 870 C 674 842 646 817 616 795 C 650 770 684 744 716 718 C 748 691 776 661 801 627 C 825 593 845 555 860 511 C 875 467 883 416 883 358 C 883 303 874 252 856 205 C 838 157 812 116 777 82 C 742 47 698 20 646 0 C 593 -19 532 -29 463 -29 Z M 473 903 C 493 921 513 939 532 959 C 550 979 567 1000 581 1022 C 595 1044 606 1067 614 1092 C 622 1116 627 1143 627 1171 C 627 1197 624 1221 618 1245 C 612 1268 603 1288 591 1306 C 578 1323 561 1337 541 1347 C 521 1357 496 1362 467 1362 C 438 1362 413 1357 393 1348 C 372 1338 355 1325 342 1309 C 329 1292 320 1272 314 1250 C 308 1228 305 1204 305 1178 C 305 1146 309 1117 319 1091 C 328 1065 340 1041 356 1019 C 371 997 389 976 409 957 C 429 938 451 920 473 903 Z M 461 147 C 525 147 574 166 608 206 C 642 246 659 299 659 367 C 659 401 653 432 643 460 C 633 488 618 515 600 540 C 582 565 560 589 535 611 C 510 633 483 656 455 678 C 429 657 404 636 381 614 C 357 592 337 568 319 542 C 301 516 287 489 277 459 C 267 429 262 397 262 362 C 262 331 266 303 275 277 C 283 251 296 228 313 209 C 329 189 350 174 375 163 C 400 152 429 147 461 147 Z" unicode="8" />
<glyph horiz-adv-x="922" d="M 428 -20 C 376 -20 331 -12 293 4 C 255 20 223 41 197 68 C 171 94 149 125 132 160 C 114 194 100 230 90 268 L 276 324 C 283 303 291 283 301 264 C 310 245 321 228 334 213 C 346 198 361 186 378 177 C 394 168 414 164 436 164 C 476 164 510 175 537 197 C 564 219 586 253 602 297 C 618 341 630 395 637 460 C 643 525 647 600 647 686 C 613 646 572 614 526 590 C 479 566 430 555 379 555 C 317 555 266 566 224 590 C 182 614 148 646 122 688 C 96 730 77 779 66 837 C 54 894 49 956 49 1024 C 49 1100 57 1169 74 1233 C 90 1296 115 1350 148 1396 C 181 1442 222 1477 272 1502 C 322 1527 380 1540 446 1540 C 514 1540 573 1525 625 1495 C 677 1465 720 1420 755 1359 C 789 1297 815 1219 833 1124 C 851 1029 860 916 860 786 C 860 656 852 542 838 442 C 823 342 799 257 765 189 C 731 121 686 69 631 33 C 576 -2 508 -20 428 -20 Z M 432 743 C 473 743 512 753 548 774 C 584 795 617 824 647 862 C 643 1032 624 1156 592 1235 C 560 1314 510 1354 442 1354 C 380 1354 334 1328 305 1276 C 276 1224 262 1144 262 1036 C 262 991 264 951 270 915 C 275 879 284 848 297 822 C 310 796 327 777 349 763 C 371 749 398 743 432 743 Z" unicode="9" />
<glyph horiz-adv-x="459" d="M 106 1085 L 350 1085 L 350 827 L 106 827 L 106 1085 Z M 106 258 L 350 258 L 350 0 L 106 0 L 106 258 Z" unicode=":" />
<glyph horiz-adv-x="459" d="M 106 1085 L 350 1085 L 350 827 L 106 827 L 106 1085 Z M 205 0 L 106 0 L 106 258 L 350 258 L 350 20 L 244 -229 L 143 -229 L 205 0 Z" unicode=";" />
<glyph horiz-adv-x="952" d="M 94 584 L 94 743 L 834 1169 L 834 973 L 289 664 L 834 354 L 834 158 L 94 584 Z" unicode="&#x3C;" />
<glyph horiz-adv-x="952" d="M 76 975 L 874 975 L 874 799 L 76 799 L 76 975 Z M 76 535 L 874 535 L 874 358 L 76 358 L 76 535 Z" unicode="=" />
<glyph horiz-adv-x="952" d="M 119 354 L 664 664 L 119 973 L 119 1169 L 860 743 L 860 584 L 119 158 L 119 354 Z" unicode="&#x3E;" />
<glyph horiz-adv-x="819" d="M 279 414 C 277 476 278 529 284 571 C 289 613 298 651 310 683 C 322 715 337 746 357 775 C 377 804 400 837 428 874 C 445 898 461 921 477 943 C 492 965 505 988 517 1012 C 529 1035 538 1059 545 1085 C 551 1110 555 1137 555 1167 C 555 1221 543 1263 521 1294 C 499 1325 463 1341 414 1341 C 389 1341 367 1336 349 1326 C 330 1316 313 1303 299 1285 C 285 1267 272 1246 261 1222 C 250 1198 240 1171 231 1141 L 37 1184 C 50 1237 68 1285 90 1328 C 112 1371 139 1408 171 1439 C 203 1469 240 1493 282 1509 C 324 1525 372 1534 426 1534 C 482 1534 531 1525 574 1509 C 616 1492 652 1468 681 1438 C 709 1407 731 1370 746 1327 C 760 1283 768 1235 768 1182 C 768 1143 763 1107 754 1073 C 744 1039 732 1006 717 976 C 701 946 683 917 663 889 C 643 861 622 833 600 807 C 569 768 545 735 528 707 C 510 679 497 652 489 624 C 481 596 476 566 474 534 C 472 502 471 462 471 414 L 279 414 Z M 250 242 L 494 242 L 494 0 L 250 0 L 250 242 Z" unicode="?" />
<glyph horiz-adv-x="1290" d="M 645 -29 C 553 -29 471 -12 399 21 C 327 55 265 105 214 171 C 163 237 124 319 97 417 C 70 515 57 628 57 756 C 57 883 71 996 100 1094 C 128 1192 169 1274 221 1341 C 273 1407 335 1458 407 1492 C 479 1526 559 1544 647 1544 C 733 1544 812 1526 884 1492 C 956 1457 1017 1407 1069 1341 C 1121 1275 1161 1195 1190 1101 C 1218 1006 1233 898 1233 778 C 1233 622 1208 507 1160 433 C 1111 359 1040 322 948 322 C 915 322 886 326 862 334 C 838 342 817 352 799 366 C 781 379 767 395 756 413 C 744 431 735 449 729 469 C 704 425 675 390 641 363 C 607 335 568 322 522 322 C 486 322 454 330 428 348 C 401 365 379 389 362 421 C 344 453 332 491 324 536 C 316 580 313 630 315 686 C 317 766 324 839 338 904 C 351 969 369 1024 393 1069 C 417 1114 446 1149 480 1173 C 514 1197 554 1210 600 1210 C 638 1210 670 1200 698 1181 C 725 1161 746 1134 762 1100 L 772 1192 L 936 1192 L 879 600 C 875 567 875 540 878 518 C 880 496 886 478 894 465 C 902 451 912 442 925 436 C 938 430 953 428 971 428 C 992 428 1012 433 1030 444 C 1048 455 1064 474 1078 501 C 1091 528 1101 564 1109 610 C 1116 655 1120 712 1120 780 C 1120 890 1108 986 1085 1069 C 1062 1151 1030 1220 988 1276 C 946 1332 895 1374 837 1402 C 779 1430 715 1444 645 1444 C 574 1444 509 1430 451 1403 C 393 1375 343 1334 301 1278 C 259 1222 227 1151 204 1065 C 181 979 170 877 170 760 C 170 642 181 541 205 455 C 228 369 261 297 303 241 C 345 184 395 142 453 115 C 511 87 576 74 647 74 C 675 74 703 75 732 79 C 760 82 788 87 816 94 C 843 100 869 109 895 119 C 920 129 943 140 965 154 L 1012 68 C 989 52 963 39 934 27 C 904 15 873 5 841 -3 C 809 -11 776 -18 742 -22 C 708 -26 676 -29 645 -29 Z M 580 475 C 604 475 626 482 646 496 C 666 510 686 529 707 553 L 750 983 C 736 1005 720 1024 700 1038 C 680 1052 659 1059 637 1059 C 595 1059 560 1030 534 972 C 507 914 492 825 489 705 C 487 625 493 567 508 530 C 522 493 546 475 580 475 Z" unicode="@" />
<glyph horiz-adv-x="965" d="M 225 0 L 29 0 L 373 1522 L 592 1522 L 936 0 L 717 0 L 639 381 L 303 381 L 225 0 Z M 557 778 C 549 816 541 853 534 888 C 527 922 520 958 514 994 C 507 1030 500 1068 494 1108 C 487 1148 481 1193 475 1243 L 469 1243 C 463 1193 456 1148 450 1108 C 443 1068 436 1031 430 996 C 423 960 416 925 409 891 C 402 857 395 820 387 782 L 340 557 L 602 557 L 557 778 Z" unicode="A" />
<glyph horiz-adv-x="983" d="M 111 1516 L 475 1516 C 536 1516 592 1509 642 1496 C 692 1482 736 1460 772 1430 C 808 1400 835 1360 855 1312 C 875 1264 885 1205 885 1135 C 885 1077 879 1027 868 987 C 856 946 841 912 822 885 C 803 858 781 837 756 821 C 731 805 705 792 678 784 L 678 780 C 711 771 742 758 772 742 C 801 726 827 703 849 675 C 871 647 888 611 901 569 C 913 526 920 474 920 412 C 920 340 910 278 890 226 C 870 174 841 131 804 97 C 767 63 723 39 671 23 C 619 7 562 0 500 0 L 111 0 L 111 1516 Z M 467 864 C 499 864 528 868 553 876 C 578 884 599 898 616 916 C 633 934 646 958 655 988 C 663 1018 668 1054 668 1098 C 668 1140 664 1176 657 1205 C 649 1233 638 1256 622 1274 C 606 1291 585 1303 560 1311 C 535 1319 505 1323 469 1323 L 332 1323 L 332 864 L 467 864 Z M 494 180 C 566 180 618 200 650 241 C 682 281 698 346 698 434 C 698 480 693 519 683 551 C 673 583 658 610 639 631 C 619 651 596 666 568 676 C 540 685 509 690 473 690 L 332 690 L 332 180 L 494 180 Z" unicode="B" />
<glyph horiz-adv-x="983" d="M 518 -16 C 445 -16 380 -1 324 27 C 267 55 219 101 181 163 C 142 225 113 306 93 404 C 73 502 63 620 63 758 C 63 895 73 1013 94 1111 C 114 1209 144 1289 183 1352 C 222 1414 270 1460 326 1490 C 382 1519 445 1534 516 1534 C 584 1534 642 1522 690 1498 C 738 1474 779 1440 811 1396 C 843 1351 869 1296 887 1232 C 905 1167 917 1094 924 1012 L 711 989 C 705 1048 697 1099 687 1142 C 677 1185 664 1220 649 1248 C 633 1276 615 1296 593 1309 C 571 1322 546 1329 516 1329 C 434 1329 376 1281 341 1187 C 306 1093 289 950 289 760 C 289 564 306 419 342 323 C 378 227 436 180 518 180 C 549 180 576 186 599 199 C 622 211 642 232 658 260 C 674 288 688 325 699 370 C 710 415 719 470 727 535 L 940 514 C 930 438 915 367 896 303 C 877 238 851 182 818 135 C 785 87 744 50 695 24 C 646 -2 587 -16 518 -16 Z" unicode="C" />
<glyph horiz-adv-x="1020" d="M 111 1516 L 410 1516 C 498 1516 576 1504 644 1480 C 712 1456 769 1416 816 1358 C 862 1300 898 1222 922 1125 C 946 1028 958 906 958 760 C 958 613 945 491 921 394 C 896 296 860 218 813 160 C 766 102 709 60 641 36 C 573 12 496 0 410 0 L 111 0 L 111 1516 Z M 438 190 C 493 190 539 200 577 221 C 614 242 644 276 667 322 C 690 368 706 427 716 499 C 726 571 731 658 731 760 C 731 860 726 945 716 1016 C 706 1087 690 1145 667 1190 C 644 1234 614 1267 576 1288 C 538 1308 492 1319 436 1319 L 336 1319 L 336 190 L 438 190 Z" unicode="D" />
<glyph horiz-adv-x="846" d="M 111 1516 L 774 1516 L 774 1317 L 336 1317 L 336 893 L 649 893 L 649 705 L 336 705 L 336 193 L 797 193 L 797 0 L 111 0 L 111 1516 Z" unicode="E" />
<glyph horiz-adv-x="807" d="M 111 1516 L 772 1516 L 772 1317 L 336 1317 L 336 879 L 651 879 L 651 690 L 336 690 L 336 0 L 111 0 L 111 1516 Z" unicode="F" />
<glyph horiz-adv-x="1026" d="M 492 -14 C 418 -14 354 1 300 32 C 246 63 202 110 167 174 C 131 237 105 317 88 415 C 71 512 63 627 63 760 C 63 894 73 1009 93 1107 C 113 1204 142 1284 181 1348 C 219 1411 267 1458 323 1488 C 379 1518 444 1534 516 1534 C 576 1534 629 1523 674 1502 C 719 1481 758 1449 790 1406 C 822 1363 849 1309 870 1243 C 891 1177 908 1099 920 1010 L 715 983 C 707 1045 698 1098 688 1142 C 677 1186 664 1221 648 1249 C 632 1277 614 1297 592 1310 C 570 1322 545 1329 516 1329 C 478 1329 444 1318 416 1297 C 388 1275 364 1242 345 1196 C 325 1150 311 1092 301 1020 C 291 948 287 862 287 762 C 287 661 292 574 302 501 C 312 428 326 368 346 320 C 366 272 390 237 420 214 C 450 191 484 180 524 180 C 559 180 590 187 616 201 C 642 215 664 238 682 269 C 700 299 713 338 723 385 C 732 431 737 487 739 553 L 539 553 L 539 737 L 932 737 L 932 0 L 774 0 L 774 195 L 770 195 C 760 165 747 138 731 113 C 715 87 695 65 671 46 C 647 27 621 12 591 2 C 561 -8 528 -14 492 -14 Z" unicode="G" />
<glyph horiz-adv-x="1053" d="M 111 1516 L 336 1516 L 336 897 L 717 897 L 717 1516 L 940 1516 L 940 0 L 717 0 L 717 702 L 336 702 L 336 0 L 111 0 L 111 1516 Z" unicode="H" />
<glyph horiz-adv-x="467" d="M 121 1516 L 346 1516 L 346 0 L 121 0 L 121 1516 Z" unicode="I" />
<glyph horiz-adv-x="752" d="M 313 -16 C 245 -16 186 -9 138 5 C 89 19 47 37 12 61 L 109 236 C 131 220 157 207 187 195 C 216 183 249 178 287 178 C 336 178 371 192 393 220 C 415 248 426 293 426 356 L 426 1516 L 649 1516 L 649 346 C 649 282 641 227 626 181 C 610 135 588 98 560 69 C 531 39 496 18 454 4 C 412 -9 365 -16 313 -16 Z" unicode="J" />
<glyph horiz-adv-x="967" d="M 111 1516 L 332 1516 L 332 774 C 336 790 344 811 354 836 C 364 860 376 887 389 916 C 402 945 416 975 431 1006 C 446 1036 461 1066 475 1094 L 690 1516 L 909 1516 L 596 915 L 954 0 L 725 0 L 449 709 L 332 483 L 332 0 L 111 0 L 111 1516 Z" unicode="K" />
<glyph horiz-adv-x="815" d="M 111 1516 L 336 1516 L 336 193 L 776 193 L 776 0 L 111 0 L 111 1516 Z" unicode="L" />
<glyph horiz-adv-x="1260" d="M 111 1516 L 385 1516 L 627 344 L 633 344 L 872 1516 L 1147 1516 L 1147 0 L 944 0 L 944 1165 L 940 1165 C 932 1101 921 1033 905 961 C 889 889 873 816 858 743 L 702 0 L 532 0 L 375 760 C 367 794 359 829 351 866 C 343 903 335 939 328 975 C 320 1011 314 1045 309 1077 C 303 1109 299 1138 297 1163 L 291 1163 L 291 0 L 111 0 L 111 1516 Z" unicode="M" />
<glyph horiz-adv-x="1049" d="M 111 1516 L 352 1516 L 645 756 C 667 696 687 641 705 593 C 723 544 738 499 752 457 L 756 457 L 756 1516 L 936 1516 L 936 0 L 743 0 L 401 860 C 391 884 380 910 370 939 C 359 967 349 995 339 1022 C 329 1049 321 1074 313 1097 C 305 1119 300 1137 297 1149 L 291 1149 L 291 0 L 111 0 L 111 1516 Z" unicode="N" />
<glyph horiz-adv-x="1053" d="M 526 -16 C 456 -16 393 -1 336 28 C 279 58 230 104 190 167 C 149 230 118 310 96 408 C 74 505 63 622 63 758 C 63 893 74 1010 96 1108 C 118 1206 149 1286 190 1349 C 230 1412 279 1459 336 1489 C 393 1519 456 1534 526 1534 C 595 1534 658 1519 715 1489 C 772 1459 821 1412 861 1349 C 901 1286 933 1206 955 1108 C 977 1010 989 893 989 758 C 989 622 977 505 955 408 C 933 310 901 230 861 167 C 821 104 772 58 715 28 C 658 -1 595 -16 526 -16 Z M 526 180 C 608 180 668 228 706 326 C 744 423 764 567 764 758 C 764 948 744 1091 706 1186 C 668 1281 608 1329 526 1329 C 444 1329 384 1281 346 1186 C 308 1091 289 948 289 758 C 289 567 308 423 346 326 C 384 228 444 180 526 180 Z" unicode="O" />
<glyph horiz-adv-x="938" d="M 111 1516 L 467 1516 C 524 1516 578 1508 630 1494 C 682 1479 727 1454 767 1418 C 806 1382 837 1335 860 1276 C 883 1216 895 1142 895 1053 C 895 954 882 873 857 811 C 832 749 799 700 759 665 C 718 629 671 605 619 592 C 567 579 513 573 459 573 L 332 573 L 332 0 L 111 0 L 111 1516 Z M 469 760 C 503 760 532 765 558 775 C 584 785 605 802 622 825 C 639 847 652 877 661 914 C 669 950 674 995 674 1047 C 674 1097 669 1139 661 1174 C 653 1208 640 1237 623 1259 C 606 1281 585 1296 559 1306 C 533 1316 502 1321 467 1321 L 332 1321 L 332 760 L 469 760 Z" unicode="P" />
<glyph horiz-adv-x="1053" d="M 784 -395 C 712 -395 652 -385 605 -365 C 558 -345 521 -317 494 -281 C 466 -245 447 -203 436 -155 C 425 -107 420 -54 420 2 C 366 14 317 37 273 72 C 229 107 191 155 160 217 C 129 278 105 353 88 442 C 71 531 63 636 63 758 C 63 893 74 1010 96 1108 C 118 1206 150 1286 190 1349 C 230 1412 279 1459 337 1489 C 394 1519 458 1534 528 1534 C 597 1534 660 1519 717 1489 C 773 1459 822 1412 862 1349 C 902 1286 934 1206 956 1108 C 978 1010 989 893 989 758 C 989 633 980 525 962 435 C 944 345 919 269 887 208 C 855 147 816 100 771 66 C 725 32 675 10 621 0 C 623 -40 629 -74 638 -100 C 647 -126 660 -146 678 -161 C 695 -176 716 -186 742 -192 C 768 -198 798 -201 834 -201 L 899 -201 L 899 -395 L 784 -395 Z M 528 176 C 608 176 667 225 705 324 C 743 422 762 567 762 758 C 762 948 743 1091 705 1186 C 667 1281 608 1329 528 1329 C 444 1329 384 1281 346 1186 C 308 1091 289 948 289 758 C 289 567 308 422 346 324 C 384 225 444 176 528 176 Z" unicode="Q" />
<glyph horiz-adv-x="977" d="M 913 0 L 690 0 L 477 590 L 330 590 L 330 0 L 111 0 L 111 1516 L 442 1516 C 514 1516 577 1507 633 1489 C 689 1471 736 1444 775 1407 C 813 1370 843 1323 863 1265 C 883 1207 893 1139 893 1059 C 893 1016 889 974 882 934 C 874 894 862 856 846 820 C 829 784 807 752 780 723 C 752 693 718 669 678 649 L 913 0 Z M 446 772 C 486 772 521 776 550 786 C 578 796 602 812 620 834 C 638 856 652 886 661 922 C 669 958 674 1002 674 1055 C 674 1105 669 1147 661 1181 C 653 1215 639 1242 620 1263 C 601 1283 577 1298 547 1307 C 517 1316 480 1321 438 1321 L 330 1321 L 330 772 L 446 772 Z" unicode="R" />
<glyph horiz-adv-x="936" d="M 477 -23 C 409 -23 351 -12 302 8 C 252 29 210 59 175 97 C 140 135 112 180 90 233 C 68 286 51 345 39 410 L 244 449 C 261 359 288 291 324 243 C 360 195 412 172 479 172 C 509 172 534 176 556 185 C 578 193 596 205 610 221 C 624 236 634 254 641 276 C 647 297 651 320 651 346 C 651 381 643 414 627 446 C 611 478 589 508 563 538 C 537 567 507 596 473 625 C 439 653 405 683 370 713 C 335 743 301 774 267 807 C 233 839 203 874 177 912 C 151 949 130 989 114 1032 C 98 1075 90 1122 90 1174 C 90 1230 99 1280 117 1325 C 135 1370 161 1408 194 1440 C 227 1472 267 1496 313 1513 C 359 1529 411 1538 467 1538 C 525 1538 575 1528 618 1510 C 660 1491 697 1464 728 1430 C 759 1396 785 1354 806 1306 C 826 1258 844 1204 858 1145 L 659 1094 C 649 1134 637 1170 625 1201 C 613 1231 599 1257 583 1277 C 567 1297 549 1313 529 1323 C 509 1333 485 1339 459 1339 C 411 1339 374 1326 348 1300 C 322 1274 309 1237 309 1188 C 309 1150 317 1114 333 1082 C 349 1049 370 1018 396 988 C 422 958 452 928 486 900 C 520 872 554 843 589 813 C 624 783 658 753 692 721 C 726 689 756 654 782 618 C 808 581 830 541 846 498 C 862 455 870 408 870 356 C 870 300 860 248 841 202 C 822 155 795 115 761 82 C 726 48 685 22 637 4 C 589 -13 535 -23 477 -23 Z" unicode="S" />
<glyph horiz-adv-x="864" d="M 319 1317 L 33 1317 L 33 1516 L 829 1516 L 829 1317 L 545 1317 L 545 0 L 319 0 L 319 1317 Z" unicode="T" />
<glyph horiz-adv-x="1012" d="M 508 -16 C 432 -16 368 -4 316 18 C 264 40 223 73 191 116 C 159 158 137 210 123 271 C 109 332 102 401 102 477 L 102 1516 L 324 1516 L 324 502 C 324 448 326 401 332 361 C 338 320 348 286 362 259 C 376 231 396 211 420 197 C 444 183 475 176 512 176 C 548 176 578 182 602 196 C 626 210 645 230 659 257 C 673 284 683 318 689 358 C 695 398 698 445 698 498 L 698 1516 L 909 1516 L 909 481 C 909 403 902 333 888 271 C 874 209 852 157 821 115 C 789 72 748 39 697 17 C 646 -4 583 -16 508 -16 Z" unicode="U" />
<glyph horiz-adv-x="952" d="M 27 1516 L 248 1516 L 406 743 C 412 707 419 671 426 637 C 432 603 439 567 446 531 C 452 495 459 457 465 418 C 471 378 478 336 485 291 L 489 291 C 495 335 501 377 507 415 C 513 453 520 489 527 525 C 533 560 540 595 546 630 C 552 664 559 701 567 739 L 727 1516 L 926 1516 L 586 -6 L 367 -6 L 27 1516 Z" unicode="V" />
<glyph horiz-adv-x="1366" d="M 33 1516 L 248 1516 L 365 764 C 369 732 374 701 378 673 C 382 645 386 616 390 586 C 394 556 398 523 402 489 C 406 454 410 415 414 371 L 420 371 C 424 413 429 452 434 486 C 438 520 443 553 447 583 C 451 613 456 643 460 672 C 464 701 468 732 473 764 L 592 1516 L 784 1516 L 905 766 C 910 732 915 701 920 671 C 924 641 929 611 933 581 C 937 551 942 519 946 485 C 950 451 954 413 958 371 L 965 371 C 969 412 972 450 976 484 C 980 518 984 550 988 581 C 992 611 996 641 1000 670 C 1004 698 1009 728 1014 760 L 1130 1516 L 1323 1516 L 1055 -2 L 862 -2 L 682 1139 L 676 1139 L 492 -2 L 299 -2 L 33 1516 Z" unicode="W" />
<glyph horiz-adv-x="952" d="M 362 803 L 70 1516 L 297 1516 L 489 1026 L 676 1516 L 881 1516 L 588 815 L 924 0 L 696 0 L 461 580 L 231 0 L 27 0 L 362 803 Z" unicode="X" />
<glyph horiz-adv-x="901" d="M 338 565 L 8 1516 L 236 1516 L 457 815 L 463 815 L 682 1516 L 893 1516 L 561 565 L 561 0 L 338 0 L 338 565 Z" unicode="Y" />
<glyph horiz-adv-x="883" d="M 41 170 L 582 1317 L 82 1317 L 82 1516 L 829 1516 L 829 1339 L 289 193 L 829 193 L 829 0 L 41 0 L 41 170 Z" unicode="Z" />
<glyph horiz-adv-x="604" d="M 102 1516 L 561 1516 L 561 1348 L 324 1348 L 324 -246 L 561 -246 L 561 -410 L 102 -410 L 102 1516 Z" unicode="[" />
<glyph horiz-adv-x="862" d="M 12 1516 L 231 1516 L 850 0 L 629 0 L 12 1516 Z" unicode="\" />
<glyph horiz-adv-x="604" d="M 45 -246 L 281 -246 L 281 1348 L 45 1348 L 45 1516 L 504 1516 L 504 -410 L 45 -410 L 45 -246 Z" unicode="]" />
<glyph horiz-adv-x="975" d="M 406 1516 L 567 1516 L 897 758 L 692 758 L 487 1272 L 283 758 L 78 758 L 406 1516 Z" unicode="^" />
<glyph horiz-adv-x="752" d="M -20 -115 L 772 -115 L 772 -281 L -20 -281 L -20 -115 Z" unicode="_" />
<glyph horiz-adv-x="772" d="M 141 1516 L 358 1516 L 494 1196 L 344 1196 L 141 1516 Z" unicode="`" />
<glyph horiz-adv-x="827" d="M 266 -12 C 199 -12 146 10 106 56 C 66 101 47 170 47 264 C 47 318 58 369 80 417 C 102 465 133 508 175 547 C 217 585 267 619 327 649 C 386 678 453 702 528 721 L 528 780 C 528 825 520 859 505 883 C 490 906 463 918 424 918 C 402 918 381 914 359 906 C 337 898 316 888 296 876 C 276 864 256 850 238 836 C 219 821 202 807 188 793 L 72 930 C 125 983 185 1025 251 1056 C 317 1086 385 1102 457 1102 C 508 1102 551 1095 587 1082 C 622 1068 651 1048 673 1022 C 695 996 710 963 720 924 C 730 885 735 840 735 788 L 735 266 C 735 200 736 146 740 104 C 743 62 749 28 758 0 L 547 0 C 544 10 541 19 539 27 C 537 35 535 44 533 54 C 531 64 530 74 529 86 C 528 98 528 112 528 129 C 495 83 458 48 416 24 C 374 0 324 -12 266 -12 Z M 354 168 C 371 168 388 170 405 176 C 421 182 437 189 452 199 C 466 208 480 218 493 230 C 506 242 518 254 528 266 L 528 559 C 478 545 436 528 402 509 C 367 490 339 469 317 446 C 295 423 279 399 269 373 C 259 347 254 320 254 293 C 254 247 263 215 281 196 C 299 177 323 168 354 168 Z" unicode="a" />
<glyph horiz-adv-x="885" d="M 528 -12 C 476 -12 434 0 400 26 C 366 51 335 85 307 129 L 307 0 L 94 0 L 94 1513 L 307 1513 L 307 967 C 319 984 332 1001 347 1017 C 362 1033 379 1048 399 1060 C 418 1072 439 1082 463 1090 C 487 1098 513 1102 541 1102 C 584 1102 623 1091 659 1071 C 695 1051 725 1018 751 974 C 776 930 796 872 810 802 C 824 731 831 645 831 545 C 831 443 823 357 808 287 C 792 216 771 158 744 114 C 717 70 685 38 648 18 C 611 -2 571 -12 528 -12 Z M 467 170 C 491 170 512 176 530 189 C 548 201 564 222 576 251 C 588 280 598 318 604 366 C 610 414 614 473 614 543 C 614 611 610 668 604 715 C 598 761 588 799 576 828 C 563 856 547 877 529 890 C 511 902 489 909 465 909 C 449 909 433 905 417 899 C 401 892 387 884 373 874 C 359 864 347 853 336 841 C 324 829 315 819 307 809 L 307 272 C 315 260 326 247 338 235 C 350 223 363 212 377 202 C 391 192 405 185 421 179 C 436 173 451 170 467 170 Z" unicode="b" />
<glyph horiz-adv-x="801" d="M 420 -16 C 366 -16 316 -4 271 18 C 225 40 186 75 154 121 C 121 167 96 226 78 296 C 60 366 51 448 51 543 C 51 639 60 723 79 793 C 97 863 123 921 157 967 C 190 1013 230 1047 276 1069 C 322 1091 372 1102 426 1102 C 479 1102 524 1093 562 1076 C 600 1058 632 1034 658 1003 C 684 971 705 934 721 890 C 737 846 750 798 760 745 L 561 713 C 555 747 548 776 541 802 C 533 828 524 849 514 866 C 504 883 491 896 476 905 C 461 913 443 918 422 918 C 396 918 374 911 355 898 C 335 884 319 863 306 833 C 293 803 283 765 276 717 C 269 669 266 611 266 543 C 266 415 278 319 302 256 C 326 193 366 162 424 162 C 444 162 462 165 478 173 C 493 181 506 193 518 211 C 529 228 539 250 547 277 C 555 304 562 337 569 377 L 762 346 C 752 290 738 239 720 194 C 702 149 680 111 652 80 C 624 49 591 25 553 9 C 515 -7 470 -16 420 -16 Z" unicode="c" />
<glyph horiz-adv-x="885" d="M 346 -12 C 302 -12 262 -1 226 18 C 190 38 159 71 133 115 C 107 159 88 217 74 287 C 60 357 53 443 53 543 C 53 643 60 729 75 800 C 90 871 111 929 138 974 C 164 1018 196 1051 233 1071 C 270 1091 311 1102 356 1102 C 408 1102 451 1090 486 1066 C 521 1042 552 1011 578 971 L 578 1516 L 791 1516 L 791 266 C 791 200 792 146 796 104 C 799 62 805 28 815 0 L 594 0 C 592 8 590 19 588 32 C 586 44 584 57 583 69 C 581 81 580 93 579 103 C 578 113 578 119 578 123 C 566 105 552 89 537 73 C 521 57 504 42 485 30 C 465 17 444 7 421 0 C 398 -8 373 -12 346 -12 Z M 420 170 C 436 170 451 173 467 180 C 482 186 497 195 511 205 C 525 215 537 225 549 237 C 560 249 570 260 578 270 L 578 811 C 556 839 532 862 505 881 C 477 899 448 909 418 909 C 394 909 372 902 354 890 C 336 878 320 857 308 829 C 295 801 285 763 279 717 C 273 671 270 613 270 545 C 270 475 273 416 279 368 C 285 320 295 282 308 253 C 320 223 336 202 355 189 C 373 176 395 170 420 170 Z" unicode="d" />
<glyph horiz-adv-x="821" d="M 424 -16 C 368 -16 317 -4 271 17 C 225 39 186 74 154 120 C 121 166 96 224 78 294 C 60 364 51 447 51 543 C 51 640 60 724 78 794 C 96 864 122 922 155 968 C 188 1014 227 1047 273 1069 C 318 1091 368 1102 422 1102 C 484 1102 537 1087 581 1059 C 625 1031 660 992 688 942 C 716 892 736 832 749 764 C 761 695 768 621 768 541 L 768 465 L 258 465 C 259 367 273 292 301 240 C 329 188 372 162 430 162 C 453 162 473 165 491 173 C 508 180 523 191 536 205 C 549 219 561 237 571 258 C 581 279 590 304 600 332 L 768 276 C 740 180 697 108 640 58 C 582 8 510 -16 424 -16 Z M 567 627 C 565 723 552 797 529 847 C 505 897 469 922 420 922 C 396 922 375 917 357 907 C 338 897 322 880 308 857 C 294 834 283 804 275 766 C 267 728 262 682 260 627 L 567 627 Z" unicode="e" />
<glyph horiz-adv-x="549" d="M 152 911 L 25 911 L 25 1085 L 152 1085 L 152 1237 C 152 1281 156 1320 166 1355 C 176 1389 192 1419 214 1443 C 236 1467 266 1486 302 1499 C 338 1511 384 1518 438 1518 C 457 1518 475 1517 493 1516 C 510 1515 522 1514 528 1513 L 528 1333 C 524 1334 517 1335 505 1335 C 493 1335 483 1335 475 1335 C 458 1335 443 1333 429 1329 C 415 1325 404 1319 395 1311 C 385 1302 378 1290 373 1276 C 367 1262 365 1244 365 1223 L 365 1085 L 522 1085 L 522 911 L 365 911 L 365 0 L 152 0 L 152 911 Z" unicode="f" />
<glyph horiz-adv-x="862" d="M 647 999 C 659 1012 672 1024 688 1036 C 703 1048 719 1058 736 1068 C 752 1077 769 1085 785 1091 C 801 1097 817 1101 831 1104 L 831 895 C 819 895 803 894 782 892 C 761 890 739 887 717 881 C 725 855 731 828 736 800 C 740 772 743 741 743 709 C 743 645 734 589 717 541 C 700 493 677 452 647 420 C 617 387 581 362 539 346 C 497 330 452 322 403 322 C 383 322 364 323 346 326 C 328 328 310 332 293 338 C 283 327 276 316 270 306 C 264 296 262 285 262 274 C 262 264 263 256 265 249 C 267 242 270 236 276 231 C 282 226 290 222 300 219 C 310 215 324 213 342 211 L 492 190 C 548 183 597 172 637 158 C 677 144 709 125 735 102 C 761 79 779 51 791 19 C 803 -13 809 -51 809 -94 C 809 -142 798 -186 778 -226 C 757 -266 728 -300 690 -328 C 652 -356 606 -378 553 -394 C 499 -410 440 -418 375 -418 C 313 -418 258 -412 212 -400 C 166 -388 127 -370 97 -348 C 67 -326 44 -299 29 -267 C 13 -235 6 -200 6 -162 C 6 -111 19 -65 45 -24 C 71 16 111 48 164 72 C 106 101 78 148 78 213 C 78 243 87 275 107 307 C 127 339 154 368 188 393 C 146 428 114 472 92 526 C 70 579 59 640 59 709 C 59 770 67 825 85 874 C 102 922 126 963 157 997 C 187 1031 224 1057 266 1075 C 308 1093 353 1102 403 1102 C 453 1102 499 1093 540 1076 C 581 1058 617 1033 647 999 Z M 403 479 C 495 479 541 555 541 707 C 541 785 530 842 508 880 C 486 917 451 936 403 936 C 355 936 321 916 299 878 C 277 840 266 783 266 707 C 266 555 311 479 403 479 Z M 287 39 C 259 15 240 -9 228 -37 C 216 -65 211 -93 211 -121 C 211 -168 226 -204 257 -230 C 287 -255 336 -268 403 -268 C 470 -268 521 -254 557 -228 C 592 -201 610 -165 610 -119 C 610 -99 607 -82 602 -67 C 597 -51 588 -38 576 -27 C 563 -15 546 -6 525 1 C 503 8 476 14 444 18 L 287 39 Z" unicode="g" />
<glyph horiz-adv-x="885" d="M 94 1516 L 307 1516 L 307 958 C 320 974 336 991 356 1009 C 376 1026 398 1041 422 1055 C 446 1069 472 1080 500 1089 C 528 1097 556 1102 586 1102 C 620 1102 650 1097 676 1088 C 702 1079 724 1064 742 1043 C 760 1021 773 993 783 959 C 792 924 797 881 797 829 L 797 0 L 582 0 L 582 774 C 582 818 575 850 562 872 C 549 894 526 905 494 905 C 478 905 461 901 444 895 C 427 889 410 881 394 871 C 377 861 361 850 347 838 C 332 826 319 814 307 803 L 307 0 L 94 0 L 94 1516 Z" unicode="h" />
<glyph horiz-adv-x="424" d="M 102 1473 L 319 1473 L 319 1251 L 102 1251 L 102 1473 Z M 104 1085 L 319 1085 L 319 0 L 104 0 L 104 1085 Z" unicode="i" />
<glyph horiz-adv-x="424" d="M 102 1473 L 319 1473 L 319 1251 L 102 1251 L 102 1473 Z M 68 -412 C 64 -412 57 -411 48 -411 C 38 -411 29 -410 20 -410 C 10 -409 2 -408 -6 -408 C -14 -407 -18 -406 -20 -406 L -20 -238 C -18 -238 -15 -239 -11 -239 C -7 -239 -2 -240 2 -240 C 7 -240 12 -241 17 -241 C 22 -241 26 -242 29 -242 C 57 -242 77 -233 88 -215 C 98 -197 104 -171 104 -137 L 104 1085 L 319 1085 L 319 -133 C 319 -181 314 -223 306 -259 C 297 -294 283 -323 263 -346 C 243 -368 218 -385 186 -396 C 154 -406 114 -412 68 -412 Z" unicode="j" />
<glyph horiz-adv-x="813" d="M 94 1516 L 301 1516 L 301 565 C 314 604 330 642 349 678 C 367 714 385 750 401 784 L 553 1085 L 758 1085 L 537 682 L 788 0 L 573 0 L 399 479 L 301 303 L 301 0 L 94 0 L 94 1516 Z" unicode="k" />
<glyph horiz-adv-x="424" d="M 104 1516 L 319 1516 L 319 0 L 104 0 L 104 1516 Z" unicode="l" />
<glyph horiz-adv-x="1346" d="M 94 1085 L 307 1085 L 307 958 C 321 974 337 991 356 1009 C 375 1026 396 1041 419 1055 C 442 1069 467 1080 493 1089 C 519 1097 547 1102 575 1102 C 633 1102 678 1089 710 1064 C 741 1039 762 1002 774 954 C 789 973 807 992 828 1010 C 848 1028 870 1043 894 1057 C 918 1071 943 1082 969 1090 C 995 1098 1022 1102 1049 1102 C 1084 1102 1115 1097 1141 1087 C 1167 1077 1189 1061 1207 1039 C 1225 1017 1238 988 1247 953 C 1255 917 1260 875 1260 825 L 1260 0 L 1044 0 L 1044 774 C 1044 818 1038 850 1026 872 C 1014 894 990 905 956 905 C 926 905 896 895 868 875 C 840 855 811 831 782 803 L 782 0 L 569 0 L 569 774 C 569 818 563 850 551 872 C 539 894 517 905 483 905 C 451 905 421 894 392 874 C 362 854 334 830 307 803 L 307 0 L 94 0 L 94 1085 Z" unicode="m" />
<glyph horiz-adv-x="885" d="M 94 1085 L 307 1085 L 307 958 C 320 974 336 991 356 1009 C 376 1026 398 1041 422 1055 C 446 1069 472 1080 500 1089 C 528 1097 556 1102 586 1102 C 620 1102 650 1097 676 1088 C 702 1079 724 1064 742 1043 C 760 1021 773 993 783 959 C 792 924 797 881 797 829 L 797 0 L 582 0 L 582 774 C 582 818 575 850 562 872 C 549 894 526 905 494 905 C 478 905 461 901 444 895 C 427 889 410 881 394 871 C 377 861 361 850 347 838 C 332 826 319 814 307 803 L 307 0 L 94 0 L 94 1085 Z" unicode="n" />
<glyph horiz-adv-x="858" d="M 430 -16 C 374 -16 322 -4 276 18 C 229 40 189 75 156 121 C 122 167 96 226 78 296 C 60 366 51 448 51 543 C 51 639 60 722 78 792 C 96 862 122 920 155 966 C 188 1012 228 1046 275 1068 C 321 1090 373 1102 430 1102 C 486 1102 537 1090 583 1068 C 629 1046 668 1012 701 966 C 734 920 760 862 778 792 C 796 722 805 639 805 543 C 805 448 796 366 778 296 C 760 226 734 167 701 121 C 668 75 629 40 583 18 C 537 -4 486 -16 430 -16 Z M 430 160 C 487 160 528 190 553 252 C 577 314 590 411 590 543 C 590 603 587 657 582 704 C 576 751 567 791 555 823 C 543 855 526 879 506 895 C 485 911 460 920 430 920 C 371 920 329 889 304 829 C 278 768 266 673 266 543 C 266 481 268 427 274 380 C 279 332 288 292 301 260 C 313 227 330 202 351 185 C 372 168 398 160 430 160 Z" unicode="o" />
<glyph horiz-adv-x="885" d="M 94 1085 L 307 1085 L 307 967 C 319 984 332 1001 347 1017 C 362 1033 379 1048 399 1060 C 418 1072 439 1082 463 1090 C 487 1098 513 1102 541 1102 C 584 1102 623 1091 659 1071 C 695 1051 725 1018 751 974 C 776 930 796 872 810 802 C 824 731 831 645 831 545 C 831 443 823 357 808 287 C 793 216 772 158 746 114 C 719 70 687 38 650 18 C 612 -2 572 -12 528 -12 C 476 -12 433 0 398 23 C 362 47 332 79 307 119 L 307 -410 L 94 -410 L 94 1085 Z M 467 170 C 491 170 512 176 530 189 C 548 201 564 222 576 251 C 588 280 598 318 604 366 C 610 414 614 473 614 543 C 614 611 610 668 604 715 C 598 761 588 799 576 828 C 563 856 547 877 529 890 C 511 902 489 909 465 909 C 449 909 433 905 417 899 C 401 892 387 884 373 874 C 359 864 347 853 336 841 C 324 829 315 819 307 809 L 307 272 C 315 260 326 247 338 235 C 350 223 363 212 377 202 C 391 192 405 185 421 179 C 436 173 451 170 467 170 Z" unicode="p" />
<glyph horiz-adv-x="885" d="M 578 127 C 566 109 552 92 537 76 C 521 60 504 45 485 32 C 465 18 444 8 421 0 C 398 -8 373 -12 346 -12 C 302 -12 262 -2 226 17 C 190 37 159 69 133 113 C 107 157 88 214 74 285 C 60 355 53 441 53 543 C 53 643 60 729 75 800 C 90 871 111 929 138 974 C 164 1018 196 1051 233 1071 C 270 1091 311 1102 356 1102 C 408 1102 451 1090 486 1066 C 521 1042 552 1011 578 971 L 578 1085 L 791 1085 L 791 -410 L 575 -410 L 578 127 Z M 420 170 C 436 170 451 173 467 180 C 482 186 497 195 511 205 C 525 215 537 225 549 237 C 560 249 570 260 578 270 L 578 811 C 556 839 532 863 506 883 C 479 903 450 913 420 913 C 394 913 372 906 354 894 C 335 881 319 860 307 831 C 294 802 285 764 279 718 C 273 671 270 613 270 545 C 270 475 273 416 279 368 C 285 320 295 282 308 253 C 320 223 336 202 355 189 C 373 176 395 170 420 170 Z" unicode="q" />
<glyph horiz-adv-x="616" d="M 94 1085 L 307 1085 L 307 928 L 311 928 C 323 950 337 972 353 993 C 369 1014 388 1033 410 1049 C 432 1065 456 1077 482 1087 C 508 1097 537 1102 569 1102 L 594 1102 L 588 897 L 549 897 C 525 897 502 893 478 885 C 454 877 431 866 409 852 C 387 838 368 823 350 805 C 332 787 318 769 307 750 L 307 0 L 94 0 L 94 1085 Z" unicode="r" />
<glyph horiz-adv-x="772" d="M 387 -20 C 339 -20 297 -13 259 -1 C 221 11 188 29 158 53 C 128 76 102 104 79 137 C 56 169 36 206 20 246 L 188 322 C 210 266 237 223 269 195 C 301 166 339 152 383 152 C 427 152 460 162 484 183 C 508 203 520 232 520 268 C 520 292 513 314 500 334 C 487 353 470 371 449 387 C 428 403 404 419 377 435 C 349 450 322 466 294 483 C 266 500 238 519 211 539 C 183 559 159 582 138 608 C 117 634 100 664 87 698 C 74 732 68 771 68 815 C 68 863 77 905 96 941 C 114 977 138 1008 168 1032 C 198 1056 231 1075 269 1087 C 306 1099 343 1106 381 1106 C 466 1106 535 1085 589 1043 C 642 1001 685 938 719 856 L 549 782 C 532 830 510 866 483 891 C 455 915 423 928 385 928 C 351 928 323 918 303 899 C 282 879 272 854 272 823 C 272 797 278 774 291 754 C 304 734 321 715 343 698 C 364 681 388 665 415 650 C 442 634 470 618 498 602 C 526 585 554 567 581 547 C 608 527 632 504 654 478 C 675 452 692 423 705 390 C 718 356 725 318 725 274 C 725 230 717 191 701 155 C 685 119 663 88 634 62 C 605 36 570 15 528 1 C 486 -12 439 -20 387 -20 Z" unicode="s" />
<glyph horiz-adv-x="598" d="M 412 -8 C 366 -8 326 -4 292 4 C 258 12 231 25 210 44 C 188 62 172 87 162 118 C 152 149 147 187 147 233 L 147 911 L 23 911 L 23 1085 L 147 1085 L 147 1466 L 360 1466 L 360 1085 L 551 1085 L 551 911 L 360 911 L 360 299 C 360 272 361 250 365 232 C 369 214 375 200 384 190 C 392 180 404 172 418 168 C 432 164 449 162 471 162 C 485 162 500 163 515 165 C 530 167 541 170 549 174 L 549 4 C 537 0 519 -2 493 -4 C 467 -6 440 -8 412 -8 Z" unicode="t" />
<glyph horiz-adv-x="881" d="M 297 -12 C 263 -12 233 -7 207 1 C 181 10 159 25 141 46 C 123 67 110 95 101 130 C 92 164 88 208 88 260 L 88 1085 L 301 1085 L 301 313 C 301 267 307 234 320 212 C 333 190 357 180 391 180 C 407 180 423 183 440 190 C 456 196 472 205 488 215 C 504 225 519 236 533 248 C 547 260 561 271 573 283 L 573 1085 L 786 1085 L 786 0 L 573 0 L 573 131 C 559 113 543 96 524 79 C 504 62 483 47 459 34 C 435 20 409 9 382 1 C 354 -7 326 -12 297 -12 Z" unicode="u" />
<glyph horiz-adv-x="774" d="M 18 1085 L 227 1085 L 344 528 C 353 480 362 431 371 383 C 379 334 387 281 395 223 L 401 223 C 408 279 416 333 425 383 C 433 433 442 482 451 528 L 567 1085 L 756 1085 L 500 -4 L 272 -4 L 18 1085 Z" unicode="v" />
<glyph horiz-adv-x="1118" d="M 18 1085 L 219 1085 L 311 575 C 315 555 318 535 321 517 C 323 498 326 479 329 459 C 331 439 334 418 337 395 C 339 372 342 346 346 317 L 352 317 C 356 345 359 371 363 395 C 366 418 369 440 372 461 C 375 481 378 501 382 521 C 385 540 389 560 393 582 L 485 1085 L 662 1085 L 756 578 C 759 556 762 536 765 518 C 767 500 770 481 773 461 C 776 441 779 419 783 396 C 786 372 790 345 795 315 L 801 315 C 805 346 808 373 811 396 C 814 419 817 440 820 459 C 823 478 826 496 829 514 C 831 531 834 550 838 571 L 930 1085 L 1100 1085 L 885 -2 L 700 -2 L 563 754 L 557 754 L 418 -2 L 233 -2 L 18 1085 Z" unicode="w" />
<glyph horiz-adv-x="782" d="M 285 563 L 43 1085 L 260 1085 L 408 741 L 545 1085 L 739 1085 L 496 567 L 760 0 L 543 0 L 379 381 L 217 0 L 20 0 L 285 563 Z" unicode="x" />
<glyph horiz-adv-x="799" d="M 164 -412 C 122 -412 88 -409 60 -404 C 32 -398 9 -393 -10 -387 L 31 -213 C 43 -217 57 -220 75 -223 C 93 -225 113 -227 137 -227 C 155 -227 171 -224 185 -218 C 199 -212 211 -204 221 -192 C 231 -180 239 -165 247 -147 C 254 -129 261 -107 268 -82 L 293 10 L 16 1085 L 236 1085 L 354 532 C 358 509 363 488 367 469 C 371 449 374 429 378 408 C 381 387 384 364 388 339 C 392 314 396 285 401 252 L 408 252 C 412 284 416 312 420 337 C 424 361 427 384 431 406 C 435 427 439 447 443 467 C 447 487 451 508 457 530 L 578 1085 L 782 1085 L 467 -109 C 453 -161 438 -206 422 -244 C 406 -282 386 -313 363 -338 C 339 -363 311 -382 279 -394 C 247 -406 208 -412 164 -412 Z" unicode="y" />
<glyph horiz-adv-x="739" d="M 43 141 L 436 911 L 78 911 L 78 1085 L 678 1085 L 678 940 L 283 170 L 698 170 L 698 0 L 43 0 L 43 141 Z" unicode="z" />
<glyph horiz-adv-x="618" d="M 449 -410 C 405 -410 367 -403 335 -391 C 303 -378 276 -360 256 -336 C 236 -312 221 -282 211 -248 C 201 -213 197 -173 197 -129 L 197 252 C 197 298 194 336 189 365 C 184 393 175 415 163 431 C 151 447 134 457 114 463 C 93 468 67 471 37 471 L 37 635 C 69 635 95 637 116 643 C 136 649 153 659 165 675 C 177 691 185 713 190 742 C 194 770 197 808 197 854 L 197 1235 C 197 1279 201 1319 211 1354 C 220 1388 235 1418 256 1442 C 277 1466 304 1484 338 1497 C 372 1509 413 1516 461 1516 L 594 1516 L 594 1348 L 530 1348 C 489 1348 460 1336 443 1313 C 426 1289 418 1252 418 1202 L 418 848 C 418 798 414 756 408 723 C 402 689 393 662 381 640 C 369 618 354 600 336 588 C 318 575 297 564 274 555 L 274 551 C 297 541 318 530 336 518 C 354 505 369 488 381 466 C 393 444 402 416 408 383 C 414 349 418 308 418 258 L 418 -106 C 418 -156 426 -191 444 -213 C 461 -235 490 -246 530 -246 L 594 -246 L 594 -410 L 449 -410 L 449 -410 Z" unicode="{" />
<glyph horiz-adv-x="569" d="M 176 1516 L 393 1516 L 393 -410 L 176 -410 L 176 1516 Z" unicode="|" />
<glyph horiz-adv-x="618" d="M 25 -248 L 86 -248 C 126 -248 154 -236 172 -214 C 190 -192 199 -156 199 -106 L 199 258 C 199 308 202 349 208 383 C 214 416 224 444 236 466 C 248 488 264 505 282 518 C 300 530 320 541 344 551 L 344 555 C 320 564 300 575 282 588 C 264 600 248 618 236 640 C 224 662 214 689 208 723 C 202 756 199 798 199 848 L 199 1202 C 199 1252 190 1290 173 1314 C 156 1338 127 1350 86 1350 L 25 1350 L 25 1516 L 158 1516 C 206 1516 247 1509 281 1497 C 314 1484 341 1466 362 1442 C 383 1418 398 1388 408 1354 C 417 1319 422 1279 422 1235 L 422 854 C 422 808 424 770 429 742 C 433 713 442 691 454 675 C 466 659 482 649 502 643 C 522 637 548 635 580 635 L 580 471 C 550 471 524 468 504 463 C 484 457 467 447 455 431 C 443 415 434 393 429 365 C 424 336 422 298 422 252 L 422 -129 C 422 -218 401 -287 361 -336 C 321 -385 257 -410 170 -410 L 25 -410 L 25 -248 Z" unicode="}" />
<glyph horiz-adv-x="975" d="M 682 539 C 646 539 610 545 576 557 C 542 569 508 583 476 598 C 444 612 413 626 384 638 C 354 650 327 657 303 657 C 283 657 266 650 252 638 C 237 625 227 601 221 565 L 70 588 C 80 678 104 742 144 782 C 183 822 233 842 295 842 C 332 842 368 835 403 823 C 437 811 471 797 503 782 C 535 767 565 753 594 741 C 622 729 649 723 674 723 C 684 723 693 724 702 727 C 710 729 718 734 725 741 C 732 747 738 756 743 768 C 748 779 752 793 756 811 L 907 795 C 901 749 893 709 882 677 C 870 644 855 617 837 597 C 819 577 797 562 771 553 C 745 543 716 539 682 539 Z" unicode="~" />
<glyph horiz-adv-x="352" d="" unicode=" " />
<glyph horiz-adv-x="520" d="M 137 1516 L 381 1516 L 381 1274 L 137 1274 L 137 1516 Z M 168 1100 L 348 1100 L 383 0 L 133 0 L 168 1100 Z" unicode="¡" />
<glyph horiz-adv-x="801" d="M 330 1305 L 500 1305 L 500 1102 C 540 1094 574 1080 603 1060 C 631 1040 656 1015 676 985 C 696 955 713 920 727 881 C 740 841 751 798 760 752 L 561 719 C 555 753 548 783 541 810 C 533 836 524 859 514 877 C 504 895 491 909 476 919 C 461 929 443 934 422 934 C 396 934 374 926 355 911 C 335 896 319 873 306 841 C 293 809 283 769 276 720 C 269 670 266 611 266 543 C 266 415 278 317 302 249 C 326 181 366 147 424 147 C 444 147 462 151 477 159 C 492 167 505 179 517 197 C 529 215 539 238 547 266 C 555 294 562 329 569 371 L 762 340 C 745 243 716 164 674 102 C 632 40 574 2 500 -14 L 500 -264 L 330 -264 L 330 -10 C 288 1 249 21 215 50 C 181 78 151 116 127 162 C 103 208 84 262 71 326 C 57 389 51 461 51 543 C 51 625 57 697 71 761 C 84 824 103 878 128 924 C 152 970 182 1007 216 1035 C 250 1063 288 1084 330 1096 L 330 1305 Z" unicode="¢" />
<glyph horiz-adv-x="999" d="M 119 702 L 119 862 L 272 862 C 250 916 232 969 216 1021 C 200 1073 193 1123 193 1171 C 193 1227 200 1278 216 1323 C 232 1368 254 1406 284 1438 C 313 1469 348 1493 390 1509 C 432 1525 478 1534 530 1534 C 586 1534 635 1524 676 1506 C 716 1488 750 1461 777 1427 C 803 1392 824 1350 838 1300 C 852 1250 860 1195 864 1133 L 664 1116 C 662 1151 658 1183 653 1212 C 647 1241 639 1266 629 1287 C 619 1307 605 1323 589 1335 C 573 1346 552 1352 528 1352 C 491 1352 461 1338 437 1311 C 413 1284 401 1239 401 1176 C 401 1152 403 1127 408 1102 C 412 1076 419 1051 427 1025 C 435 999 444 972 454 945 C 464 917 474 890 485 862 L 750 862 L 750 702 L 545 702 C 558 660 569 616 578 571 C 587 526 592 480 592 432 C 592 390 589 352 583 317 C 577 281 569 248 559 217 C 577 200 596 186 616 176 C 635 165 655 160 676 160 C 694 160 710 164 723 173 C 736 182 747 197 755 218 C 763 239 770 267 774 302 C 778 336 780 379 780 430 L 975 430 C 975 357 970 293 960 237 C 950 181 933 135 911 97 C 889 59 859 30 823 11 C 787 -8 742 -18 690 -18 C 668 -18 648 -15 629 -9 C 610 -3 592 3 576 13 C 559 22 543 33 528 46 C 512 59 497 73 483 88 C 453 52 417 26 377 8 C 336 -9 292 -18 244 -18 C 212 -18 181 -13 152 -4 C 123 4 98 18 76 36 C 54 54 36 77 23 105 C 10 132 4 164 4 201 C 4 237 9 269 20 299 C 31 329 47 354 67 375 C 87 395 112 411 140 423 C 168 434 200 440 236 440 C 268 440 297 433 324 421 C 350 408 375 392 399 373 C 400 381 401 389 401 397 C 401 405 401 414 401 424 C 401 469 394 515 382 561 C 370 607 355 654 338 702 L 119 702 Z M 373 217 C 351 240 330 259 310 275 C 289 291 267 299 244 299 C 221 299 202 291 188 275 C 173 259 166 237 166 207 C 166 180 173 159 189 144 C 204 128 223 121 246 121 C 271 121 295 128 317 142 C 339 156 358 181 373 217 Z" unicode="£" />
<glyph horiz-adv-x="911" d="M 344 197 L 78 197 L 78 356 L 344 356 L 344 487 L 78 487 L 78 647 L 324 647 L 18 1516 L 244 1516 L 463 831 L 467 831 L 684 1516 L 895 1516 L 586 647 L 831 647 L 831 487 L 567 487 L 567 356 L 831 356 L 831 197 L 567 197 L 567 0 L 344 0 L 344 197 Z" unicode="¥" />
<glyph horiz-adv-x="569" d="M 176 1516 L 393 1516 L 393 678 L 176 678 L 176 1516 Z M 176 428 L 393 428 L 393 -410 L 176 -410 L 176 428 Z" unicode="¦" />
<glyph horiz-adv-x="883" d="M 236 928 C 202 964 175 1004 155 1048 C 135 1092 125 1142 125 1200 C 125 1248 132 1294 146 1336 C 160 1378 182 1415 210 1446 C 238 1477 273 1501 315 1519 C 357 1537 405 1546 459 1546 C 516 1546 565 1537 605 1520 C 645 1503 679 1478 707 1446 C 734 1413 755 1373 771 1327 C 787 1280 799 1227 807 1169 L 612 1135 C 602 1211 585 1267 561 1305 C 537 1343 503 1362 457 1362 C 415 1362 384 1348 364 1321 C 344 1294 334 1258 334 1214 C 334 1184 339 1157 351 1133 C 362 1108 377 1085 397 1063 C 416 1041 439 1019 465 998 C 491 976 519 954 549 932 C 586 903 621 875 655 847 C 689 819 718 789 744 757 C 769 725 789 689 804 651 C 819 612 827 568 827 518 C 827 485 822 453 814 422 C 805 390 793 360 777 332 C 761 304 741 277 719 253 C 697 228 672 206 645 188 C 677 152 702 112 722 69 C 742 26 752 -24 752 -82 C 752 -130 745 -175 731 -217 C 717 -259 697 -295 670 -326 C 642 -357 608 -381 568 -399 C 527 -417 480 -426 426 -426 C 368 -426 318 -417 278 -400 C 238 -383 204 -359 178 -327 C 151 -295 130 -255 115 -209 C 100 -163 89 -110 82 -51 L 276 -16 C 286 -92 303 -149 325 -187 C 347 -225 382 -244 428 -244 C 469 -244 499 -230 517 -203 C 535 -175 545 -140 545 -96 C 545 -68 540 -43 531 -20 C 521 3 508 25 491 47 C 474 68 454 89 431 109 C 408 129 383 150 356 172 C 318 201 280 230 244 258 C 208 286 176 317 148 350 C 120 382 97 419 80 459 C 63 499 55 546 55 600 C 55 632 59 663 68 695 C 76 726 88 756 104 784 C 120 812 139 838 161 862 C 183 886 208 908 236 928 Z M 510 311 C 545 335 573 363 593 394 C 613 424 623 458 623 494 C 623 520 618 545 608 568 C 598 591 585 613 568 634 C 550 655 530 676 506 697 C 482 718 455 740 426 764 L 371 807 C 337 782 310 754 291 724 C 271 694 262 661 262 625 C 262 597 266 571 276 548 C 286 525 299 503 317 482 C 334 460 355 439 379 418 C 403 396 431 374 461 350 C 469 344 477 337 485 331 C 493 324 502 317 510 311 Z" unicode="§" />
<glyph horiz-adv-x="784" d="M 451 1413 L 641 1413 L 641 1194 L 451 1194 L 451 1413 Z M 143 1413 L 334 1413 L 334 1194 L 143 1194 L 143 1413 Z" unicode="¨" />
<glyph horiz-adv-x="1165" d="M 582 -29 C 502 -29 430 -8 365 31 C 299 71 243 127 197 198 C 150 268 114 351 89 447 C 63 543 51 646 51 756 C 51 829 56 899 68 967 C 80 1034 97 1097 119 1155 C 141 1213 167 1267 199 1315 C 230 1363 265 1403 305 1437 C 345 1471 388 1497 435 1516 C 481 1534 531 1544 584 1544 C 663 1544 735 1523 800 1483 C 865 1443 921 1387 968 1317 C 1014 1246 1050 1163 1076 1068 C 1101 972 1114 870 1114 760 C 1114 686 1108 616 1096 548 C 1084 480 1068 417 1046 359 C 1024 301 997 248 966 200 C 934 152 899 111 860 77 C 820 43 777 17 731 -1 C 684 -19 634 -29 582 -29 Z M 584 76 C 646 76 703 93 755 128 C 806 163 850 211 886 272 C 922 333 949 405 969 488 C 989 570 999 660 999 756 C 999 852 989 941 969 1024 C 949 1107 921 1179 885 1241 C 848 1303 804 1351 753 1387 C 701 1422 644 1440 582 1440 C 519 1440 462 1422 411 1387 C 360 1352 316 1304 280 1243 C 244 1182 216 1110 196 1028 C 176 945 166 856 166 760 C 166 664 176 574 196 491 C 216 408 244 336 281 274 C 317 212 361 164 413 129 C 464 93 521 76 584 76 Z M 586 324 C 504 324 442 360 398 434 C 354 507 332 618 332 768 C 332 917 354 1029 398 1103 C 442 1177 505 1214 588 1214 C 624 1214 655 1206 681 1192 C 707 1178 728 1158 746 1132 C 764 1106 778 1076 788 1041 C 798 1005 805 967 811 926 L 684 909 C 680 934 676 957 671 977 C 666 997 660 1015 652 1030 C 644 1044 635 1055 624 1063 C 613 1071 600 1075 584 1075 C 563 1075 545 1067 531 1053 C 517 1038 505 1017 496 991 C 486 964 479 932 475 894 C 471 856 469 814 469 768 C 469 720 471 678 475 641 C 479 603 486 572 496 546 C 505 520 517 500 531 486 C 545 472 563 465 584 465 C 614 465 638 478 654 506 C 670 534 682 578 690 639 L 819 621 C 812 576 803 535 792 499 C 780 462 765 431 747 405 C 728 379 705 359 679 345 C 653 331 622 324 586 324 Z" unicode="©" />
<glyph horiz-adv-x="645" d="M 229 748 C 181 748 141 764 111 797 C 81 830 66 880 66 946 C 66 1022 93 1088 149 1143 C 204 1198 287 1240 399 1268 L 399 1321 C 399 1349 394 1372 386 1388 C 377 1404 361 1413 338 1413 C 309 1413 284 1405 263 1390 C 241 1374 222 1351 205 1321 L 82 1378 C 110 1436 147 1479 193 1505 C 239 1531 291 1544 350 1544 C 422 1544 475 1526 508 1490 C 540 1454 557 1398 557 1321 L 557 954 C 557 908 558 871 560 841 C 562 811 567 784 575 762 L 414 762 C 410 774 408 785 406 796 C 404 807 402 821 401 838 C 379 812 355 790 327 773 C 299 756 266 748 229 748 Z M 285 881 C 295 881 305 882 316 886 C 326 890 337 895 347 901 C 357 907 366 913 375 921 C 383 928 391 936 399 944 L 399 1155 C 366 1145 338 1134 316 1120 C 293 1106 275 1091 261 1075 C 247 1058 236 1040 230 1022 C 224 1003 221 984 221 965 C 221 935 226 914 237 901 C 247 887 263 881 285 881 Z" unicode="ª" />
<glyph horiz-adv-x="838" d="M 391 541 L 594 1079 L 793 1079 L 596 541 L 793 0 L 594 0 L 391 541 Z M 43 541 L 244 1079 L 444 1079 L 248 541 L 444 0 L 244 0 L 43 541 Z" unicode="«" />
<glyph horiz-adv-x="782" d="M 391 596 C 343 596 300 608 261 633 C 221 657 187 691 159 733 C 131 775 109 825 93 883 C 77 941 70 1003 70 1069 C 70 1135 77 1198 93 1256 C 109 1314 131 1365 160 1408 C 188 1450 222 1484 262 1509 C 302 1533 345 1546 393 1546 C 441 1546 484 1533 524 1509 C 563 1485 597 1451 625 1409 C 653 1366 674 1316 690 1259 C 705 1201 713 1139 713 1073 C 713 1006 705 944 689 886 C 673 828 651 777 623 734 C 595 691 561 657 522 633 C 482 608 439 596 391 596 Z M 393 659 C 429 659 463 669 494 691 C 524 712 550 741 572 778 C 594 815 611 858 623 908 C 635 958 641 1011 641 1069 C 641 1127 635 1182 623 1232 C 611 1282 594 1326 572 1363 C 550 1400 523 1429 493 1451 C 462 1472 428 1483 391 1483 C 353 1483 319 1472 289 1451 C 258 1430 232 1401 210 1365 C 188 1328 171 1285 159 1235 C 147 1185 141 1131 141 1073 C 141 1015 147 960 159 910 C 171 860 189 816 211 779 C 233 741 259 712 290 691 C 321 669 355 659 393 659 Z M 258 1337 L 389 1337 C 433 1337 469 1324 495 1299 C 521 1274 535 1234 535 1178 C 535 1140 529 1108 517 1084 C 505 1059 489 1041 469 1030 L 543 821 L 449 821 L 381 1016 L 346 1016 L 346 821 L 258 821 L 258 1337 Z M 385 1096 C 407 1096 424 1102 434 1114 C 444 1126 449 1146 449 1176 C 449 1202 444 1221 434 1233 C 424 1245 407 1251 385 1251 L 346 1251 L 346 1096 L 385 1096 Z" unicode="®" />
<glyph horiz-adv-x="772" d="M 143 1364 L 629 1364 L 629 1194 L 143 1194 L 143 1364 Z" unicode="¯" />
<glyph horiz-adv-x="582" d="M 291 961 C 256 961 225 968 197 982 C 169 996 146 1016 126 1042 C 106 1067 91 1097 81 1133 C 71 1168 66 1207 66 1249 C 66 1291 71 1329 81 1364 C 91 1399 106 1429 126 1455 C 146 1481 169 1501 197 1515 C 225 1529 256 1536 291 1536 C 325 1536 356 1529 384 1515 C 412 1501 435 1481 454 1455 C 473 1429 488 1399 498 1364 C 508 1329 514 1291 514 1249 C 514 1207 508 1168 498 1133 C 488 1097 473 1067 454 1042 C 435 1016 412 996 384 982 C 356 968 325 961 291 961 Z M 291 1079 C 319 1079 341 1093 356 1123 C 371 1153 379 1195 379 1249 C 379 1303 371 1346 356 1377 C 341 1407 319 1423 291 1423 C 261 1423 239 1407 225 1377 C 210 1346 203 1303 203 1249 C 203 1195 210 1153 225 1123 C 239 1093 261 1079 291 1079 Z" unicode="°" />
<glyph horiz-adv-x="961" d="M 80 283 L 385 283 L 385 653 L 80 653 L 80 831 L 385 831 L 385 1214 L 575 1214 L 575 831 L 881 831 L 881 653 L 575 653 L 575 283 L 881 283 L 881 111 L 80 111 L 80 283 Z" unicode="±" />
<glyph horiz-adv-x="676" d="M 80 606 C 80 658 84 705 94 745 C 104 785 116 820 132 851 C 148 881 166 908 186 932 C 206 956 226 978 247 998 C 268 1018 289 1038 309 1057 C 329 1076 347 1096 363 1117 C 379 1138 391 1161 401 1187 C 411 1213 416 1242 416 1276 C 416 1311 409 1338 397 1356 C 384 1374 364 1384 338 1384 C 324 1384 313 1381 303 1377 C 293 1372 284 1364 276 1353 C 268 1342 260 1327 254 1309 C 248 1290 242 1267 238 1239 L 86 1264 C 100 1348 128 1413 170 1458 C 211 1503 271 1526 350 1526 C 426 1526 484 1504 523 1461 C 562 1418 582 1358 582 1282 C 582 1233 574 1190 559 1153 C 544 1116 525 1082 503 1052 C 480 1022 455 994 428 968 C 401 942 376 917 352 892 C 328 866 307 840 290 813 C 273 785 263 755 260 721 L 582 721 L 582 580 L 80 580 L 80 606 Z" unicode="²" />
<glyph horiz-adv-x="674" d="M 326 565 C 284 565 248 570 218 581 C 188 591 163 607 143 627 C 123 647 106 672 93 702 C 79 732 68 765 59 803 L 211 831 C 222 783 236 749 254 729 C 271 709 294 700 324 700 C 360 700 385 713 399 740 C 413 766 420 804 420 854 C 420 881 417 904 411 923 C 405 942 396 958 382 970 C 368 982 351 990 329 996 C 307 1001 280 1004 248 1004 L 209 1004 L 209 1135 L 258 1135 C 288 1135 312 1137 332 1141 C 352 1145 367 1153 378 1164 C 389 1174 397 1188 401 1205 C 405 1222 408 1244 408 1270 C 408 1288 406 1304 404 1319 C 402 1333 398 1346 392 1356 C 386 1366 377 1374 367 1380 C 357 1386 344 1389 328 1389 C 300 1389 278 1378 263 1358 C 248 1337 235 1310 225 1278 L 82 1319 C 100 1382 130 1432 172 1470 C 214 1507 268 1526 336 1526 C 378 1526 413 1520 443 1509 C 473 1497 497 1481 515 1461 C 533 1441 547 1416 556 1388 C 564 1360 569 1328 569 1294 C 569 1181 531 1109 455 1079 C 499 1061 532 1033 553 995 C 573 956 584 901 584 831 C 584 791 578 755 568 723 C 558 690 542 662 521 639 C 499 615 472 597 440 584 C 408 571 370 565 326 565 Z" unicode="³" />
<glyph horiz-adv-x="772" d="M 416 1516 L 633 1516 L 430 1196 L 279 1196 L 416 1516 Z" unicode="´" />
<glyph horiz-adv-x="887" d="M 94 1085 L 307 1085 L 307 299 C 307 255 313 221 326 198 C 339 175 363 164 397 164 C 413 164 429 167 446 173 C 462 179 478 188 494 198 C 510 208 525 219 540 231 C 554 243 568 254 580 266 L 580 1085 L 793 1085 L 793 0 L 580 0 L 580 131 C 570 119 558 106 544 92 C 530 78 514 66 498 54 C 481 42 463 32 444 23 C 424 14 404 8 383 6 C 368 4 354 4 340 6 C 326 8 315 15 307 27 L 307 -410 L 94 -410 L 94 1085 Z" unicode="µ" />
<glyph horiz-adv-x="1004" d="M 406 688 C 354 688 306 698 264 716 C 221 734 185 760 155 794 C 125 828 101 871 85 922 C 69 972 61 1031 61 1098 C 61 1157 68 1212 84 1263 C 99 1314 121 1358 150 1396 C 178 1433 213 1462 253 1484 C 293 1505 337 1516 387 1516 L 895 1516 L 895 -410 L 705 -410 L 705 1329 L 594 1329 L 594 -410 L 406 -410 L 406 688 Z" unicode="¶" />
<glyph horiz-adv-x="573" d="M 150 774 L 406 774 L 406 516 L 150 516 L 150 774 Z" unicode="·" />
<glyph horiz-adv-x="772" d="M 393 -406 C 347 -406 305 -399 267 -386 C 228 -373 194 -356 166 -336 L 211 -250 C 233 -265 260 -278 290 -289 C 320 -299 351 -305 385 -305 C 443 -305 473 -280 473 -231 C 473 -191 454 -172 418 -172 C 392 -172 369 -183 350 -207 L 276 -174 L 322 2 L 426 2 L 403 -100 C 423 -81 451 -72 489 -72 C 505 -72 520 -74 535 -80 C 550 -85 563 -93 575 -105 C 587 -116 596 -131 603 -149 C 610 -167 614 -190 614 -217 C 614 -277 594 -323 554 -356 C 514 -389 461 -406 393 -406 Z" unicode="¸" />
<glyph horiz-adv-x="539" d="M 84 721 L 203 721 L 203 1333 C 186 1325 167 1318 147 1314 C 127 1309 106 1307 86 1307 L 86 1456 C 142 1458 185 1478 213 1516 L 371 1516 L 371 721 L 477 721 L 477 580 L 84 580 L 84 721 Z" unicode="¹" />
<glyph horiz-adv-x="649" d="M 326 735 C 242 735 177 768 130 836 C 82 904 59 1003 59 1135 C 59 1200 65 1257 77 1307 C 89 1357 107 1398 130 1432 C 153 1466 181 1491 214 1508 C 247 1525 284 1534 326 1534 C 366 1534 403 1525 436 1508 C 468 1491 496 1466 519 1432 C 541 1398 559 1357 571 1307 C 583 1257 590 1200 590 1135 C 590 1069 583 1012 571 962 C 559 912 541 871 519 837 C 496 803 468 778 436 761 C 403 743 366 735 326 735 Z M 326 872 C 362 872 388 893 404 936 C 420 978 428 1045 428 1135 C 428 1217 420 1281 405 1327 C 389 1372 363 1395 326 1395 C 288 1395 260 1373 244 1331 C 227 1289 219 1223 219 1135 C 219 1050 226 985 242 940 C 258 894 286 872 326 872 Z" unicode="º" />
<glyph horiz-adv-x="838" d="M 590 541 L 393 1079 L 594 1079 L 793 541 L 594 0 L 393 0 L 590 541 Z M 242 541 L 43 1079 L 244 1079 L 446 541 L 244 0 L 43 0 L 242 541 Z" unicode="»" />
<glyph horiz-adv-x="1425" d="M 84 721 L 203 721 L 203 1333 C 186 1325 167 1318 147 1314 C 127 1309 106 1307 86 1307 L 86 1456 C 142 1458 185 1478 213 1516 L 371 1516 L 371 721 L 477 721 L 477 580 L 84 580 L 84 721 Z M 1104 201 L 797 201 L 797 319 L 1092 942 L 1260 942 L 1260 336 L 1362 336 L 1362 201 L 1260 201 L 1260 0 L 1104 0 L 1104 201 Z M 958 1516 L 1135 1516 L 502 0 L 324 0 L 958 1516 Z M 1108 336 L 1108 700 L 940 336 L 1108 336 Z" unicode="¼" />
<glyph horiz-adv-x="1477" d="M 903 29 C 903 81 907 127 917 167 C 927 207 939 242 955 273 C 971 303 989 330 1009 354 C 1029 378 1049 400 1070 420 C 1091 440 1112 460 1132 479 C 1152 497 1170 517 1186 538 C 1202 559 1214 582 1224 608 C 1234 633 1239 662 1239 696 C 1239 731 1232 758 1220 777 C 1207 795 1187 805 1161 805 C 1147 805 1136 802 1126 798 C 1116 794 1107 786 1099 775 C 1091 764 1083 749 1077 731 C 1071 713 1065 690 1061 662 L 909 684 C 923 769 951 834 993 879 C 1034 923 1094 946 1174 946 C 1250 946 1307 924 1346 882 C 1385 840 1405 781 1405 705 C 1405 656 1397 613 1382 575 C 1367 537 1348 503 1326 473 C 1303 443 1278 415 1251 389 C 1224 363 1199 338 1175 312 C 1151 286 1130 260 1113 233 C 1096 205 1086 175 1083 141 L 1405 141 L 1405 0 L 903 0 L 903 29 Z M 84 721 L 203 721 L 203 1333 C 186 1325 167 1318 147 1314 C 127 1309 106 1307 86 1307 L 86 1456 C 142 1458 185 1478 213 1516 L 371 1516 L 371 721 L 477 721 L 477 580 L 84 580 L 84 721 Z M 958 1516 L 1135 1516 L 502 0 L 324 0 L 958 1516 Z" unicode="½" />
<glyph horiz-adv-x="1458" d="M 295 565 C 253 565 217 570 188 581 C 158 591 133 607 113 627 C 92 647 75 672 62 702 C 49 732 38 765 29 803 L 180 831 C 191 783 205 749 223 729 C 241 709 264 700 293 700 C 329 700 354 713 368 740 C 382 766 389 804 389 854 C 389 881 386 904 380 923 C 374 942 365 958 351 970 C 337 982 320 990 298 996 C 276 1001 249 1004 217 1004 L 178 1004 L 178 1135 L 227 1135 C 257 1135 281 1137 301 1141 C 321 1145 336 1153 347 1164 C 358 1174 366 1188 370 1205 C 374 1222 377 1244 377 1270 C 377 1288 375 1304 373 1319 C 371 1333 367 1346 361 1356 C 355 1366 346 1374 336 1380 C 326 1386 313 1389 297 1389 C 269 1389 248 1378 233 1358 C 217 1337 205 1310 195 1278 L 51 1319 C 69 1382 99 1432 141 1470 C 183 1507 237 1526 305 1526 C 347 1526 382 1520 412 1509 C 442 1497 466 1481 485 1461 C 503 1441 517 1416 526 1388 C 534 1360 539 1328 539 1294 C 539 1181 500 1109 424 1079 C 468 1061 501 1033 522 995 C 542 956 553 901 553 831 C 553 791 547 755 537 723 C 527 690 511 662 490 639 C 468 615 441 597 409 584 C 377 571 339 565 295 565 Z M 1137 201 L 829 201 L 829 319 L 1124 942 L 1292 942 L 1292 336 L 1395 336 L 1395 201 L 1292 201 L 1292 0 L 1137 0 L 1137 201 Z M 991 1516 L 1167 1516 L 535 0 L 356 0 L 991 1516 Z M 1141 336 L 1141 700 L 973 336 L 1141 336 Z" unicode="¾" />
<glyph horiz-adv-x="819" d="M 326 1516 L 569 1516 L 569 1274 L 326 1274 L 326 1516 Z M 393 -18 C 337 -18 287 -9 245 7 C 202 23 166 47 138 78 C 109 108 87 145 73 189 C 58 232 51 280 51 334 C 51 372 55 408 65 442 C 74 476 86 508 102 539 C 117 569 135 599 155 627 C 175 655 197 682 219 709 C 249 747 273 779 291 807 C 308 835 321 862 329 890 C 337 918 343 948 345 981 C 347 1013 348 1054 348 1102 L 541 1102 C 541 1060 541 1022 539 990 C 537 958 534 929 529 903 C 523 877 517 853 509 832 C 501 810 491 790 480 770 C 468 750 455 729 440 709 C 425 688 409 665 391 641 C 373 617 357 594 342 572 C 326 550 313 527 301 504 C 289 480 280 456 274 431 C 267 405 264 378 264 348 C 264 294 275 252 298 221 C 320 189 356 174 406 174 C 430 174 452 178 470 188 C 488 198 505 211 519 229 C 533 247 546 268 557 293 C 568 317 578 345 588 375 L 782 332 C 768 278 751 230 729 187 C 707 144 680 107 648 77 C 616 46 579 22 537 6 C 495 -9 447 -18 393 -18 Z" unicode="¿" />
<glyph horiz-adv-x="965" d="M 225 0 L 29 0 L 373 1522 L 592 1522 L 936 0 L 717 0 L 639 381 L 303 381 L 225 0 Z M 557 778 C 549 816 541 853 534 888 C 527 922 520 958 514 994 C 507 1030 500 1068 494 1108 C 487 1148 481 1193 475 1243 L 469 1243 C 463 1193 456 1148 450 1108 C 443 1068 436 1031 430 996 C 423 960 416 925 409 891 C 402 857 395 820 387 782 L 340 557 L 602 557 L 557 778 Z M 215 1922 L 432 1922 L 568 1602 L 418 1602 L 215 1922 Z" unicode="À" />
<glyph horiz-adv-x="965" d="M 225 0 L 29 0 L 373 1522 L 592 1522 L 936 0 L 717 0 L 639 381 L 303 381 L 225 0 Z M 557 778 C 549 816 541 853 534 888 C 527 922 520 958 514 994 C 507 1030 500 1068 494 1108 C 487 1148 481 1193 475 1243 L 469 1243 C 463 1193 456 1148 450 1108 C 443 1068 436 1031 430 996 C 423 960 416 925 409 891 C 402 857 395 820 387 782 L 340 557 L 602 557 L 557 778 Z M 516 1922 L 733 1922 L 530 1602 L 379 1602 L 516 1922 Z" unicode="Á" />
<glyph horiz-adv-x="965" d="M 225 0 L 29 0 L 373 1522 L 592 1522 L 936 0 L 717 0 L 639 381 L 303 381 L 225 0 Z M 557 778 C 549 816 541 853 534 888 C 527 922 520 958 514 994 C 507 1030 500 1068 494 1108 C 487 1148 481 1193 475 1243 L 469 1243 C 463 1193 456 1148 450 1108 C 443 1068 436 1031 430 996 C 423 960 416 925 409 891 C 402 857 395 820 387 782 L 340 557 L 602 557 L 557 778 Z M 410 1922 L 555 1922 L 737 1596 L 608 1596 L 479 1752 L 354 1596 L 225 1596 L 410 1922 Z" unicode="Â" />
<glyph horiz-adv-x="965" d="M 225 0 L 29 0 L 373 1522 L 592 1522 L 936 0 L 717 0 L 639 381 L 303 381 L 225 0 Z M 557 778 C 549 816 541 853 534 888 C 527 922 520 958 514 994 C 507 1030 500 1068 494 1108 C 487 1148 481 1193 475 1243 L 469 1243 C 463 1193 456 1148 450 1108 C 443 1068 436 1031 430 996 C 423 960 416 925 409 891 C 402 857 395 820 387 782 L 340 557 L 602 557 L 557 778 Z M 194 1586 C 194 1685 208 1757 238 1801 C 268 1845 310 1868 364 1868 C 390 1868 415 1862 437 1850 C 459 1838 479 1825 498 1811 C 516 1797 534 1784 551 1772 C 567 1760 584 1754 600 1754 C 618 1754 632 1761 642 1777 C 652 1793 657 1822 657 1864 L 774 1864 C 774 1764 759 1692 730 1648 C 700 1604 658 1582 604 1582 C 577 1582 553 1588 531 1600 C 509 1612 488 1625 469 1639 C 450 1653 432 1666 416 1678 C 399 1690 383 1696 368 1696 C 348 1696 334 1688 325 1672 C 315 1656 311 1627 311 1586 L 194 1586 L 194 1586 Z" unicode="Ã" />
<glyph horiz-adv-x="965" d="M 225 0 L 29 0 L 373 1522 L 592 1522 L 936 0 L 717 0 L 639 381 L 303 381 L 225 0 Z M 557 778 C 549 816 541 853 534 888 C 527 922 520 958 514 994 C 507 1030 500 1068 494 1108 C 487 1148 481 1193 475 1243 L 469 1243 C 463 1193 456 1148 450 1108 C 443 1068 436 1031 430 996 C 423 960 416 925 409 891 C 402 857 395 820 387 782 L 340 557 L 602 557 L 557 778 Z M 541 1819 L 731 1819 L 731 1600 L 541 1600 L 541 1819 Z M 233 1819 L 424 1819 L 424 1600 L 233 1600 L 233 1819 Z" unicode="Ä" />
<glyph horiz-adv-x="965" d="M 365 1479 C 345 1495 330 1516 320 1544 C 310 1572 305 1603 305 1638 C 305 1668 309 1697 317 1724 C 325 1750 336 1774 351 1794 C 366 1814 385 1829 407 1841 C 429 1852 453 1858 481 1858 C 509 1858 534 1852 556 1841 C 578 1829 597 1814 613 1794 C 629 1774 641 1750 649 1724 C 657 1697 662 1668 662 1638 C 662 1603 656 1572 646 1544 C 636 1516 620 1495 600 1479 L 936 0 L 719 0 L 637 397 L 307 397 L 225 0 L 29 0 L 365 1479 Z M 481 1522 C 493 1522 503 1525 511 1532 C 519 1538 525 1547 530 1558 C 535 1568 539 1580 541 1594 C 543 1608 545 1622 545 1636 C 545 1650 543 1663 541 1677 C 539 1690 535 1702 530 1712 C 525 1722 519 1731 511 1737 C 503 1743 493 1747 481 1747 C 469 1747 460 1743 452 1737 C 444 1731 438 1722 434 1712 C 430 1702 427 1690 425 1677 C 423 1663 422 1650 422 1636 C 422 1622 423 1608 425 1594 C 427 1580 430 1568 434 1558 C 438 1547 444 1538 452 1532 C 460 1525 469 1522 481 1522 Z M 606 557 L 557 780 C 549 818 541 855 534 890 C 527 925 520 960 514 996 C 507 1032 500 1069 494 1109 C 487 1149 481 1193 475 1243 L 469 1243 C 463 1193 456 1148 450 1109 C 443 1069 436 1032 430 997 C 423 962 416 927 409 893 C 402 859 395 822 387 784 L 336 557 L 606 557 Z" unicode="Å" />
<glyph horiz-adv-x="1393" d="M 535 1516 L 1319 1516 L 1319 1317 L 881 1317 L 881 891 L 1194 891 L 1194 702 L 881 702 L 881 193 L 1341 193 L 1341 0 L 659 0 L 659 401 L 373 401 L 233 0 L 14 0 L 535 1516 Z M 659 586 L 659 1280 L 655 1280 L 438 586 L 659 586 Z" unicode="Æ" />
<glyph horiz-adv-x="983" d="M 518 -16 C 445 -16 380 -1 324 27 C 267 55 219 101 181 163 C 142 225 113 306 93 404 C 73 502 63 620 63 758 C 63 895 73 1013 94 1111 C 114 1209 144 1289 183 1352 C 222 1414 270 1460 326 1490 C 382 1519 445 1534 516 1534 C 584 1534 642 1522 690 1498 C 738 1474 779 1440 811 1396 C 843 1351 869 1296 887 1232 C 905 1167 917 1094 924 1012 L 711 989 C 705 1048 697 1099 687 1142 C 677 1185 664 1220 649 1248 C 633 1276 615 1296 593 1309 C 571 1322 546 1329 516 1329 C 434 1329 376 1281 341 1187 C 306 1093 289 950 289 760 C 289 564 306 419 342 323 C 378 227 436 180 518 180 C 549 180 576 186 599 199 C 622 211 642 232 658 260 C 674 288 688 325 699 370 C 710 415 719 470 727 535 L 940 514 C 930 438 915 367 896 303 C 877 238 851 182 818 135 C 785 87 744 50 695 24 C 646 -2 587 -16 518 -16 Z M 508 -406 C 462 -406 420 -399 382 -386 C 343 -373 309 -356 281 -336 L 326 -250 C 348 -265 375 -278 405 -289 C 435 -299 466 -305 500 -305 C 558 -305 588 -280 588 -231 C 588 -191 569 -172 533 -172 C 507 -172 484 -183 465 -207 L 391 -174 L 437 2 L 541 2 L 518 -100 C 538 -81 566 -72 604 -72 C 620 -72 635 -74 650 -80 C 665 -85 678 -93 690 -105 C 702 -116 711 -131 718 -149 C 725 -167 729 -190 729 -217 C 729 -277 709 -323 669 -356 C 629 -389 576 -406 508 -406 Z" unicode="Ç" />
<glyph horiz-adv-x="846" d="M 111 1516 L 774 1516 L 774 1317 L 336 1317 L 336 893 L 649 893 L 649 705 L 336 705 L 336 193 L 797 193 L 797 0 L 111 0 L 111 1516 Z M 168 1922 L 385 1922 L 521 1602 L 371 1602 L 168 1922 Z" unicode="È" />
<glyph horiz-adv-x="846" d="M 453 1922 L 670 1922 L 467 1602 L 316 1602 L 453 1922 Z M 111 1516 L 774 1516 L 774 1317 L 336 1317 L 336 893 L 649 893 L 649 705 L 336 705 L 336 193 L 797 193 L 797 0 L 111 0 L 111 1516 Z" unicode="É" />
<glyph horiz-adv-x="846" d="M 371 1922 L 516 1922 L 698 1596 L 569 1596 L 440 1752 L 315 1596 L 186 1596 L 371 1922 Z M 111 1516 L 774 1516 L 774 1317 L 336 1317 L 336 893 L 649 893 L 649 705 L 336 705 L 336 193 L 797 193 L 797 0 L 111 0 L 111 1516 Z" unicode="Ê" />
<glyph horiz-adv-x="846" d="M 502 1819 L 692 1819 L 692 1600 L 502 1600 L 502 1819 Z M 194 1819 L 385 1819 L 385 1600 L 194 1600 L 194 1819 Z M 111 1516 L 774 1516 L 774 1317 L 336 1317 L 336 893 L 649 893 L 649 705 L 336 705 L 336 193 L 797 193 L 797 0 L 111 0 L 111 1516 Z" unicode="Ë" />
<glyph horiz-adv-x="467" d="M 121 1516 L 346 1516 L 346 0 L 121 0 L 121 1516 Z M -28 1922 L 189 1922 L 325 1602 L 175 1602 L -28 1922 Z" unicode="Ì" />
<glyph horiz-adv-x="467" d="M 121 1516 L 346 1516 L 346 0 L 121 0 L 121 1516 Z M 265 1922 L 482 1922 L 279 1602 L 128 1602 L 265 1922 Z" unicode="Í" />
<glyph horiz-adv-x="467" d="M 121 1516 L 346 1516 L 346 0 L 121 0 L 121 1516 Z M 163 1922 L 308 1922 L 490 1596 L 361 1596 L 232 1752 L 107 1596 L -22 1596 L 163 1922 Z" unicode="Î" />
<glyph horiz-adv-x="467" d="M 121 1516 L 346 1516 L 346 0 L 121 0 L 121 1516 Z M 294 1819 L 484 1819 L 484 1600 L 294 1600 L 294 1819 Z M -14 1819 L 177 1819 L 177 1600 L -14 1600 L -14 1819 Z" unicode="Ï" />
<glyph horiz-adv-x="1022" d="M 111 707 L 16 707 L 16 891 L 111 891 L 111 1516 L 410 1516 C 498 1516 576 1504 644 1480 C 712 1456 769 1416 816 1358 C 862 1300 898 1222 922 1125 C 946 1028 958 906 958 760 C 958 613 945 491 921 394 C 896 296 860 218 813 160 C 766 102 709 60 641 36 C 573 12 496 0 410 0 L 111 0 L 111 707 Z M 438 190 C 493 190 539 200 577 221 C 614 242 644 276 667 322 C 690 368 706 427 716 499 C 726 571 731 658 731 760 C 731 860 726 945 716 1016 C 706 1087 690 1145 667 1190 C 644 1234 614 1267 576 1288 C 538 1308 492 1319 436 1319 L 336 1319 L 336 891 L 510 891 L 510 707 L 336 707 L 336 190 L 438 190 Z" unicode="Ð" />
<glyph horiz-adv-x="1049" d="M 111 1516 L 352 1516 L 645 756 C 667 696 687 641 705 593 C 723 544 738 499 752 457 L 756 457 L 756 1516 L 936 1516 L 936 0 L 743 0 L 401 860 C 391 884 380 910 370 939 C 359 967 349 995 339 1022 C 329 1049 321 1074 313 1097 C 305 1119 300 1137 297 1149 L 291 1149 L 291 0 L 111 0 L 111 1516 Z M 235 1586 C 235 1685 249 1757 279 1801 C 309 1845 351 1868 405 1868 C 431 1868 456 1862 478 1850 C 500 1838 520 1825 539 1811 C 557 1797 575 1784 592 1772 C 608 1760 625 1754 641 1754 C 659 1754 673 1761 683 1777 C 693 1793 698 1822 698 1864 L 815 1864 C 815 1764 800 1692 771 1648 C 741 1604 699 1582 645 1582 C 618 1582 594 1588 572 1600 C 550 1612 529 1625 510 1639 C 491 1653 473 1666 457 1678 C 440 1690 424 1696 409 1696 C 389 1696 375 1688 366 1672 C 356 1656 352 1627 352 1586 L 235 1586 L 235 1586 Z" unicode="Ñ" />
<glyph horiz-adv-x="1053" d="M 526 -16 C 456 -16 393 -1 336 28 C 279 58 230 104 190 167 C 149 230 118 310 96 408 C 74 505 63 622 63 758 C 63 893 74 1010 96 1108 C 118 1206 149 1286 190 1349 C 230 1412 279 1459 336 1489 C 393 1519 456 1534 526 1534 C 595 1534 658 1519 715 1489 C 772 1459 821 1412 861 1349 C 901 1286 933 1206 955 1108 C 977 1010 989 893 989 758 C 989 622 977 505 955 408 C 933 310 901 230 861 167 C 821 104 772 58 715 28 C 658 -1 595 -16 526 -16 Z M 526 180 C 608 180 668 228 706 326 C 744 423 764 567 764 758 C 764 948 744 1091 706 1186 C 668 1281 608 1329 526 1329 C 444 1329 384 1281 346 1186 C 308 1091 289 948 289 758 C 289 567 308 423 346 326 C 384 228 444 180 526 180 Z M 260 1922 L 477 1922 L 613 1602 L 463 1602 L 260 1922 Z" unicode="Ò" />
<glyph horiz-adv-x="1053" d="M 555 1922 L 772 1922 L 569 1602 L 418 1602 L 555 1922 Z M 526 -16 C 456 -16 393 -1 336 28 C 279 58 230 104 190 167 C 149 230 118 310 96 408 C 74 505 63 622 63 758 C 63 893 74 1010 96 1108 C 118 1206 149 1286 190 1349 C 230 1412 279 1459 336 1489 C 393 1519 456 1534 526 1534 C 595 1534 658 1519 715 1489 C 772 1459 821 1412 861 1349 C 901 1286 933 1206 955 1108 C 977 1010 989 893 989 758 C 989 622 977 505 955 408 C 933 310 901 230 861 167 C 821 104 772 58 715 28 C 658 -1 595 -16 526 -16 Z M 526 180 C 608 180 668 228 706 326 C 744 423 764 567 764 758 C 764 948 744 1091 706 1186 C 668 1281 608 1329 526 1329 C 444 1329 384 1281 346 1186 C 308 1091 289 948 289 758 C 289 567 308 423 346 326 C 384 228 444 180 526 180 Z" unicode="Ó" />
<glyph horiz-adv-x="1053" d="M 453 1922 L 598 1922 L 780 1596 L 651 1596 L 522 1752 L 397 1596 L 268 1596 L 453 1922 Z M 526 -16 C 456 -16 393 -1 336 28 C 279 58 230 104 190 167 C 149 230 118 310 96 408 C 74 505 63 622 63 758 C 63 893 74 1010 96 1108 C 118 1206 149 1286 190 1349 C 230 1412 279 1459 336 1489 C 393 1519 456 1534 526 1534 C 595 1534 658 1519 715 1489 C 772 1459 821 1412 861 1349 C 901 1286 933 1206 955 1108 C 977 1010 989 893 989 758 C 989 622 977 505 955 408 C 933 310 901 230 861 167 C 821 104 772 58 715 28 C 658 -1 595 -16 526 -16 Z M 526 180 C 608 180 668 228 706 326 C 744 423 764 567 764 758 C 764 948 744 1091 706 1186 C 668 1281 608 1329 526 1329 C 444 1329 384 1281 346 1186 C 308 1091 289 948 289 758 C 289 567 308 423 346 326 C 384 228 444 180 526 180 Z" unicode="Ô" />
<glyph horiz-adv-x="1053" d="M 526 -16 C 456 -16 393 -1 336 28 C 279 58 230 104 190 167 C 149 230 118 310 96 408 C 74 505 63 622 63 758 C 63 893 74 1010 96 1108 C 118 1206 149 1286 190 1349 C 230 1412 279 1459 336 1489 C 393 1519 456 1534 526 1534 C 595 1534 658 1519 715 1489 C 772 1459 821 1412 861 1349 C 901 1286 933 1206 955 1108 C 977 1010 989 893 989 758 C 989 622 977 505 955 408 C 933 310 901 230 861 167 C 821 104 772 58 715 28 C 658 -1 595 -16 526 -16 Z M 526 180 C 608 180 668 228 706 326 C 744 423 764 567 764 758 C 764 948 744 1091 706 1186 C 668 1281 608 1329 526 1329 C 444 1329 384 1281 346 1186 C 308 1091 289 948 289 758 C 289 567 308 423 346 326 C 384 228 444 180 526 180 Z M 235 1586 C 235 1685 249 1757 279 1801 C 309 1845 351 1868 405 1868 C 431 1868 456 1862 478 1850 C 500 1838 520 1825 539 1811 C 557 1797 575 1784 592 1772 C 608 1760 625 1754 641 1754 C 659 1754 673 1761 683 1777 C 693 1793 698 1822 698 1864 L 815 1864 C 815 1764 800 1692 771 1648 C 741 1604 699 1582 645 1582 C 618 1582 594 1588 572 1600 C 550 1612 529 1625 510 1639 C 491 1653 473 1666 457 1678 C 440 1690 424 1696 409 1696 C 389 1696 375 1688 366 1672 C 356 1656 352 1627 352 1586 L 235 1586 L 235 1586 Z" unicode="Õ" />
<glyph horiz-adv-x="1053" d="M 584 1819 L 774 1819 L 774 1600 L 584 1600 L 584 1819 Z M 276 1819 L 467 1819 L 467 1600 L 276 1600 L 276 1819 Z M 526 -16 C 456 -16 393 -1 336 28 C 279 58 230 104 190 167 C 149 230 118 310 96 408 C 74 505 63 622 63 758 C 63 893 74 1010 96 1108 C 118 1206 149 1286 190 1349 C 230 1412 279 1459 336 1489 C 393 1519 456 1534 526 1534 C 595 1534 658 1519 715 1489 C 772 1459 821 1412 861 1349 C 901 1286 933 1206 955 1108 C 977 1010 989 893 989 758 C 989 622 977 505 955 408 C 933 310 901 230 861 167 C 821 104 772 58 715 28 C 658 -1 595 -16 526 -16 Z M 526 180 C 608 180 668 228 706 326 C 744 423 764 567 764 758 C 764 948 744 1091 706 1186 C 668 1281 608 1329 526 1329 C 444 1329 384 1281 346 1186 C 308 1091 289 948 289 758 C 289 567 308 423 346 326 C 384 228 444 180 526 180 Z" unicode="Ö" />
<glyph horiz-adv-x="952" d="M 870 406 L 748 283 L 479 551 L 209 281 L 86 403 L 356 674 L 86 942 L 211 1065 L 479 797 L 745 1065 L 868 940 L 602 674 L 870 406 Z" unicode="×" />
<glyph horiz-adv-x="1053" d="M 895 1292 C 925 1228 949 1152 966 1064 C 982 976 991 874 991 758 C 991 622 979 505 957 407 C 935 309 903 229 863 166 C 823 103 774 57 717 27 C 660 -3 597 -18 528 -18 C 474 -18 423 -9 376 8 C 329 26 287 54 250 92 L 150 -94 L 18 -27 L 156 227 C 126 289 103 364 87 452 C 71 539 63 641 63 758 C 63 893 74 1010 96 1108 C 118 1206 150 1286 190 1349 C 230 1412 279 1459 337 1489 C 394 1519 458 1534 528 1534 C 636 1534 727 1498 801 1427 L 901 1610 L 1030 1542 L 895 1292 Z M 696 1212 C 657 1291 601 1331 528 1331 C 444 1331 383 1283 343 1187 C 303 1091 283 948 283 758 C 283 650 289 557 301 479 L 696 1212 Z M 352 303 C 393 219 452 178 528 178 C 609 178 669 226 709 324 C 748 421 768 566 768 758 C 768 811 766 861 763 907 C 760 953 756 996 750 1034 L 352 303 Z" unicode="Ø" />
<glyph horiz-adv-x="1012" d="M 508 -16 C 432 -16 368 -4 316 18 C 264 40 223 73 191 116 C 159 158 137 210 123 271 C 109 332 102 401 102 477 L 102 1516 L 324 1516 L 324 502 C 324 448 326 401 332 361 C 338 320 348 286 362 259 C 376 231 396 211 420 197 C 444 183 475 176 512 176 C 548 176 578 182 602 196 C 626 210 645 230 659 257 C 673 284 683 318 689 358 C 695 398 698 445 698 498 L 698 1516 L 909 1516 L 909 481 C 909 403 902 333 888 271 C 874 209 852 157 821 115 C 789 72 748 39 697 17 C 646 -4 583 -16 508 -16 Z M 241 1922 L 458 1922 L 594 1602 L 444 1602 L 241 1922 Z" unicode="Ù" />
<glyph horiz-adv-x="1012" d="M 535 1922 L 752 1922 L 549 1602 L 398 1602 L 535 1922 Z M 508 -16 C 432 -16 368 -4 316 18 C 264 40 223 73 191 116 C 159 158 137 210 123 271 C 109 332 102 401 102 477 L 102 1516 L 324 1516 L 324 502 C 324 448 326 401 332 361 C 338 320 348 286 362 259 C 376 231 396 211 420 197 C 444 183 475 176 512 176 C 548 176 578 182 602 196 C 626 210 645 230 659 257 C 673 284 683 318 689 358 C 695 398 698 445 698 498 L 698 1516 L 909 1516 L 909 481 C 909 403 902 333 888 271 C 874 209 852 157 821 115 C 789 72 748 39 697 17 C 646 -4 583 -16 508 -16 Z" unicode="Ú" />
<glyph horiz-adv-x="1012" d="M 432 1922 L 577 1922 L 759 1596 L 630 1596 L 501 1752 L 376 1596 L 247 1596 L 432 1922 Z M 508 -16 C 432 -16 368 -4 316 18 C 264 40 223 73 191 116 C 159 158 137 210 123 271 C 109 332 102 401 102 477 L 102 1516 L 324 1516 L 324 502 C 324 448 326 401 332 361 C 338 320 348 286 362 259 C 376 231 396 211 420 197 C 444 183 475 176 512 176 C 548 176 578 182 602 196 C 626 210 645 230 659 257 C 673 284 683 318 689 358 C 695 398 698 445 698 498 L 698 1516 L 909 1516 L 909 481 C 909 403 902 333 888 271 C 874 209 852 157 821 115 C 789 72 748 39 697 17 C 646 -4 583 -16 508 -16 Z" unicode="Û" />
<glyph horiz-adv-x="1012" d="M 568 1819 L 758 1819 L 758 1600 L 568 1600 L 568 1819 Z M 260 1819 L 451 1819 L 451 1600 L 260 1600 L 260 1819 Z M 508 -16 C 432 -16 368 -4 316 18 C 264 40 223 73 191 116 C 159 158 137 210 123 271 C 109 332 102 401 102 477 L 102 1516 L 324 1516 L 324 502 C 324 448 326 401 332 361 C 338 320 348 286 362 259 C 376 231 396 211 420 197 C 444 183 475 176 512 176 C 548 176 578 182 602 196 C 626 210 645 230 659 257 C 673 284 683 318 689 358 C 695 398 698 445 698 498 L 698 1516 L 909 1516 L 909 481 C 909 403 902 333 888 271 C 874 209 852 157 821 115 C 789 72 748 39 697 17 C 646 -4 583 -16 508 -16 Z" unicode="Ü" />
<glyph horiz-adv-x="901" d="M 338 565 L 8 1516 L 236 1516 L 457 815 L 463 815 L 682 1516 L 893 1516 L 561 565 L 561 0 L 338 0 L 338 565 Z M 482 1922 L 699 1922 L 496 1602 L 345 1602 L 482 1922 Z" unicode="Ý" />
<glyph horiz-adv-x="946" d="M 111 1516 L 338 1516 L 338 1278 L 475 1278 C 532 1278 587 1271 639 1257 C 691 1243 736 1219 775 1184 C 814 1149 845 1102 868 1042 C 891 982 903 905 903 813 C 903 745 897 687 886 637 C 874 587 859 544 839 509 C 819 473 795 444 768 422 C 740 399 710 381 678 368 C 646 355 612 346 576 341 C 540 336 503 334 467 334 L 338 334 L 338 0 L 111 0 L 111 1516 Z M 473 524 C 507 524 536 528 562 537 C 588 546 609 562 626 584 C 642 606 655 635 663 672 C 671 708 676 754 676 809 C 676 861 671 904 663 939 C 655 974 642 1002 625 1023 C 608 1044 587 1059 561 1068 C 535 1076 505 1081 471 1081 L 338 1081 L 338 524 L 473 524 Z" unicode="Þ" />
<glyph horiz-adv-x="940" d="M 551 -10 C 526 -10 504 -9 485 -7 C 466 -5 449 -2 433 1 C 417 5 402 9 388 14 C 374 19 361 25 348 31 L 416 201 C 432 193 449 187 466 183 C 483 178 505 176 532 176 C 555 176 576 180 596 190 C 616 199 633 214 648 234 C 662 254 674 280 682 312 C 690 344 694 384 694 430 C 694 480 688 524 677 562 C 665 599 648 630 626 656 C 604 681 576 701 543 717 C 509 732 470 743 426 750 L 426 905 C 490 913 537 939 568 981 C 598 1023 614 1078 614 1147 C 614 1272 566 1335 471 1335 C 419 1335 381 1315 356 1276 C 331 1236 319 1176 319 1094 L 319 0 L 104 0 L 104 1087 C 104 1227 136 1334 200 1407 C 264 1479 357 1516 479 1516 C 536 1516 586 1507 628 1491 C 670 1474 706 1450 734 1420 C 762 1390 782 1353 796 1310 C 810 1267 817 1219 817 1167 C 817 1129 812 1094 803 1061 C 793 1027 780 997 763 969 C 746 941 726 916 702 895 C 678 874 651 858 621 846 C 659 834 696 817 730 795 C 764 773 793 744 819 710 C 844 676 864 635 879 588 C 893 540 901 486 901 426 C 901 352 892 287 875 233 C 857 178 833 133 802 97 C 771 61 734 34 691 16 C 648 -1 601 -10 551 -10 Z" unicode="ß" />
<glyph horiz-adv-x="827" d="M 266 -12 C 199 -12 146 10 106 56 C 66 101 47 170 47 264 C 47 318 58 369 80 417 C 102 465 133 508 175 547 C 217 585 267 619 327 649 C 386 678 453 702 528 721 L 528 780 C 528 825 520 859 505 883 C 490 906 463 918 424 918 C 402 918 381 914 359 906 C 337 898 316 888 296 876 C 276 864 256 850 238 836 C 219 821 202 807 188 793 L 72 930 C 125 983 185 1025 251 1056 C 317 1086 385 1102 457 1102 C 508 1102 551 1095 587 1082 C 622 1068 651 1048 673 1022 C 695 996 710 963 720 924 C 730 885 735 840 735 788 L 735 266 C 735 200 736 146 740 104 C 743 62 749 28 758 0 L 547 0 C 544 10 541 19 539 27 C 537 35 535 44 533 54 C 531 64 530 74 529 86 C 528 98 528 112 528 129 C 495 83 458 48 416 24 C 374 0 324 -12 266 -12 Z M 354 168 C 371 168 388 170 405 176 C 421 182 437 189 452 199 C 466 208 480 218 493 230 C 506 242 518 254 528 266 L 528 559 C 478 545 436 528 402 509 C 367 490 339 469 317 446 C 295 423 279 399 269 373 C 259 347 254 320 254 293 C 254 247 263 215 281 196 C 299 177 323 168 354 168 Z M 170 1516 L 387 1516 L 523 1196 L 373 1196 L 170 1516 Z" unicode="à" />
<glyph horiz-adv-x="827" d="M 266 -12 C 199 -12 146 10 106 56 C 66 101 47 170 47 264 C 47 318 58 369 80 417 C 102 465 133 508 175 547 C 217 585 267 619 327 649 C 386 678 453 702 528 721 L 528 780 C 528 825 520 859 505 883 C 490 906 463 918 424 918 C 402 918 381 914 359 906 C 337 898 316 888 296 876 C 276 864 256 850 238 836 C 219 821 202 807 188 793 L 72 930 C 125 983 185 1025 251 1056 C 317 1086 385 1102 457 1102 C 508 1102 551 1095 587 1082 C 622 1068 651 1048 673 1022 C 695 996 710 963 720 924 C 730 885 735 840 735 788 L 735 266 C 735 200 736 146 740 104 C 743 62 749 28 758 0 L 547 0 C 544 10 541 19 539 27 C 537 35 535 44 533 54 C 531 64 530 74 529 86 C 528 98 528 112 528 129 C 495 83 458 48 416 24 C 374 0 324 -12 266 -12 Z M 354 168 C 371 168 388 170 405 176 C 421 182 437 189 452 199 C 466 208 480 218 493 230 C 506 242 518 254 528 266 L 528 559 C 478 545 436 528 402 509 C 367 490 339 469 317 446 C 295 423 279 399 269 373 C 259 347 254 320 254 293 C 254 247 263 215 281 196 C 299 177 323 168 354 168 Z M 443 1516 L 660 1516 L 457 1196 L 306 1196 L 443 1516 Z" unicode="á" />
<glyph horiz-adv-x="827" d="M 266 -12 C 199 -12 146 10 106 56 C 66 101 47 170 47 264 C 47 318 58 369 80 417 C 102 465 133 508 175 547 C 217 585 267 619 327 649 C 386 678 453 702 528 721 L 528 780 C 528 825 520 859 505 883 C 490 906 463 918 424 918 C 402 918 381 914 359 906 C 337 898 316 888 296 876 C 276 864 256 850 238 836 C 219 821 202 807 188 793 L 72 930 C 125 983 185 1025 251 1056 C 317 1086 385 1102 457 1102 C 508 1102 551 1095 587 1082 C 622 1068 651 1048 673 1022 C 695 996 710 963 720 924 C 730 885 735 840 735 788 L 735 266 C 735 200 736 146 740 104 C 743 62 749 28 758 0 L 547 0 C 544 10 541 19 539 27 C 537 35 535 44 533 54 C 531 64 530 74 529 86 C 528 98 528 112 528 129 C 495 83 458 48 416 24 C 374 0 324 -12 266 -12 Z M 354 168 C 371 168 388 170 405 176 C 421 182 437 189 452 199 C 466 208 480 218 493 230 C 506 242 518 254 528 266 L 528 559 C 478 545 436 528 402 509 C 367 490 339 469 317 446 C 295 423 279 399 269 373 C 259 347 254 320 254 293 C 254 247 263 215 281 196 C 299 177 323 168 354 168 Z M 340 1516 L 485 1516 L 667 1190 L 538 1190 L 409 1346 L 284 1190 L 155 1190 L 340 1516 Z" unicode="â" />
<glyph horiz-adv-x="827" d="M 266 -12 C 199 -12 146 10 106 56 C 66 101 47 170 47 264 C 47 318 58 369 80 417 C 102 465 133 508 175 547 C 217 585 267 619 327 649 C 386 678 453 702 528 721 L 528 780 C 528 825 520 859 505 883 C 490 906 463 918 424 918 C 402 918 381 914 359 906 C 337 898 316 888 296 876 C 276 864 256 850 238 836 C 219 821 202 807 188 793 L 72 930 C 125 983 185 1025 251 1056 C 317 1086 385 1102 457 1102 C 508 1102 551 1095 587 1082 C 622 1068 651 1048 673 1022 C 695 996 710 963 720 924 C 730 885 735 840 735 788 L 735 266 C 735 200 736 146 740 104 C 743 62 749 28 758 0 L 547 0 C 544 10 541 19 539 27 C 537 35 535 44 533 54 C 531 64 530 74 529 86 C 528 98 528 112 528 129 C 495 83 458 48 416 24 C 374 0 324 -12 266 -12 Z M 354 168 C 371 168 388 170 405 176 C 421 182 437 189 452 199 C 466 208 480 218 493 230 C 506 242 518 254 528 266 L 528 559 C 478 545 436 528 402 509 C 367 490 339 469 317 446 C 295 423 279 399 269 373 C 259 347 254 320 254 293 C 254 247 263 215 281 196 C 299 177 323 168 354 168 Z M 125 1180 C 125 1279 139 1351 169 1395 C 199 1439 241 1462 295 1462 C 321 1462 346 1456 368 1444 C 390 1432 410 1419 429 1405 C 447 1391 465 1378 482 1366 C 498 1354 515 1348 531 1348 C 549 1348 563 1355 573 1371 C 583 1387 588 1416 588 1458 L 705 1458 C 705 1358 690 1286 661 1242 C 631 1198 589 1176 535 1176 C 508 1176 484 1182 462 1194 C 440 1206 419 1219 400 1233 C 381 1247 363 1260 347 1272 C 330 1284 314 1290 299 1290 C 279 1290 265 1282 256 1266 C 246 1250 242 1221 242 1180 L 125 1180 L 125 1180 Z" unicode="ã" />
<glyph horiz-adv-x="827" d="M 266 -12 C 199 -12 146 10 106 56 C 66 101 47 170 47 264 C 47 318 58 369 80 417 C 102 465 133 508 175 547 C 217 585 267 619 327 649 C 386 678 453 702 528 721 L 528 780 C 528 825 520 859 505 883 C 490 906 463 918 424 918 C 402 918 381 914 359 906 C 337 898 316 888 296 876 C 276 864 256 850 238 836 C 219 821 202 807 188 793 L 72 930 C 125 983 185 1025 251 1056 C 317 1086 385 1102 457 1102 C 508 1102 551 1095 587 1082 C 622 1068 651 1048 673 1022 C 695 996 710 963 720 924 C 730 885 735 840 735 788 L 735 266 C 735 200 736 146 740 104 C 743 62 749 28 758 0 L 547 0 C 544 10 541 19 539 27 C 537 35 535 44 533 54 C 531 64 530 74 529 86 C 528 98 528 112 528 129 C 495 83 458 48 416 24 C 374 0 324 -12 266 -12 Z M 354 168 C 371 168 388 170 405 176 C 421 182 437 189 452 199 C 466 208 480 218 493 230 C 506 242 518 254 528 266 L 528 559 C 478 545 436 528 402 509 C 367 490 339 469 317 446 C 295 423 279 399 269 373 C 259 347 254 320 254 293 C 254 247 263 215 281 196 C 299 177 323 168 354 168 Z M 471 1413 L 661 1413 L 661 1194 L 471 1194 L 471 1413 Z M 163 1413 L 354 1413 L 354 1194 L 163 1194 L 163 1413 Z" unicode="ä" />
<glyph horiz-adv-x="827" d="M 266 -12 C 199 -12 146 10 106 56 C 66 101 47 170 47 264 C 47 318 58 369 80 417 C 102 465 133 508 175 547 C 217 585 267 619 327 649 C 386 678 453 702 528 721 L 528 780 C 528 825 520 859 505 883 C 490 906 463 918 424 918 C 402 918 381 914 359 906 C 337 898 316 888 296 876 C 276 864 256 850 238 836 C 219 821 202 807 188 793 L 72 930 C 125 983 185 1025 251 1056 C 317 1086 385 1102 457 1102 C 508 1102 551 1095 587 1082 C 622 1068 651 1048 673 1022 C 695 996 710 963 720 924 C 730 885 735 840 735 788 L 735 266 C 735 200 736 146 740 104 C 743 62 749 28 758 0 L 547 0 C 544 10 541 19 539 27 C 537 35 535 44 533 54 C 531 64 530 74 529 86 C 528 98 528 112 528 129 C 495 83 458 48 416 24 C 374 0 324 -12 266 -12 Z M 354 168 C 371 168 388 170 405 176 C 421 182 437 189 452 199 C 466 208 480 218 493 230 C 506 242 518 254 528 266 L 528 559 C 478 545 436 528 402 509 C 367 490 339 469 317 446 C 295 423 279 399 269 373 C 259 347 254 320 254 293 C 254 247 263 215 281 196 C 299 177 323 168 354 168 Z M 411 1157 C 383 1157 359 1162 337 1174 C 315 1185 296 1200 281 1220 C 266 1240 255 1263 247 1290 C 239 1316 235 1345 235 1376 C 235 1406 239 1435 247 1462 C 255 1488 266 1511 281 1531 C 296 1551 315 1566 337 1578 C 359 1589 383 1595 411 1595 C 439 1595 464 1589 486 1578 C 508 1566 526 1551 542 1531 C 558 1511 570 1488 578 1462 C 586 1435 591 1406 591 1376 C 591 1345 587 1316 579 1290 C 571 1263 559 1240 543 1220 C 527 1200 508 1185 486 1174 C 464 1162 439 1157 411 1157 Z M 411 1260 C 423 1260 433 1263 441 1270 C 449 1276 455 1285 460 1296 C 465 1306 469 1318 471 1332 C 473 1346 475 1360 475 1374 C 475 1388 473 1401 471 1415 C 469 1428 465 1440 460 1450 C 455 1460 449 1469 441 1475 C 433 1481 423 1485 411 1485 C 399 1485 390 1481 382 1475 C 374 1469 368 1460 364 1450 C 360 1440 357 1428 355 1415 C 353 1401 352 1388 352 1374 C 352 1360 353 1346 355 1332 C 357 1318 360 1306 364 1296 C 368 1285 374 1276 382 1270 C 390 1263 399 1260 411 1260 Z" unicode="å" />
<glyph horiz-adv-x="1292" d="M 596 176 C 548 112 497 64 444 34 C 391 3 332 -12 266 -12 C 199 -12 146 10 106 56 C 66 101 47 170 47 264 C 47 318 58 369 80 417 C 102 465 133 508 175 547 C 217 585 267 619 327 649 C 386 678 453 702 528 721 L 528 784 C 528 829 520 863 505 885 C 490 907 463 918 424 918 C 402 918 381 914 359 906 C 337 898 316 888 296 876 C 276 864 256 850 238 836 C 219 821 202 807 188 793 L 72 930 C 125 983 185 1025 251 1056 C 317 1086 386 1102 459 1102 C 512 1102 555 1093 587 1075 C 619 1057 644 1030 662 995 C 694 1031 729 1057 768 1075 C 806 1093 847 1102 891 1102 C 953 1102 1007 1087 1051 1059 C 1095 1031 1131 992 1159 942 C 1187 892 1207 832 1220 764 C 1232 695 1239 621 1239 541 L 1239 465 L 729 465 C 730 367 744 292 772 240 C 800 188 843 162 901 162 C 924 162 944 165 962 173 C 979 180 994 191 1007 205 C 1020 219 1032 237 1042 258 C 1052 279 1061 304 1071 332 L 1239 276 C 1211 180 1168 108 1111 58 C 1053 8 981 -16 895 -16 C 828 -16 769 0 719 31 C 669 63 628 111 596 176 Z M 528 559 C 477 545 434 528 400 509 C 365 489 337 468 315 445 C 293 422 278 398 268 372 C 258 346 254 319 254 293 C 254 247 263 215 281 196 C 299 177 323 168 354 168 C 386 168 419 178 454 200 C 488 221 523 251 557 289 C 547 325 540 364 535 405 C 530 446 528 492 528 543 L 528 559 Z M 1038 627 C 1036 723 1023 797 1000 847 C 976 897 940 922 891 922 C 867 922 846 917 828 907 C 809 897 793 880 779 857 C 765 834 754 804 746 766 C 738 728 733 682 731 627 L 1038 627 Z" unicode="æ" />
<glyph horiz-adv-x="801" d="M 420 -16 C 366 -16 316 -4 271 18 C 225 40 186 75 154 121 C 121 167 96 226 78 296 C 60 366 51 448 51 543 C 51 639 60 723 79 793 C 97 863 123 921 157 967 C 190 1013 230 1047 276 1069 C 322 1091 372 1102 426 1102 C 479 1102 524 1093 562 1076 C 600 1058 632 1034 658 1003 C 684 971 705 934 721 890 C 737 846 750 798 760 745 L 561 713 C 555 747 548 776 541 802 C 533 828 524 849 514 866 C 504 883 491 896 476 905 C 461 913 443 918 422 918 C 396 918 374 911 355 898 C 335 884 319 863 306 833 C 293 803 283 765 276 717 C 269 669 266 611 266 543 C 266 415 278 319 302 256 C 326 193 366 162 424 162 C 444 162 462 165 478 173 C 493 181 506 193 518 211 C 529 228 539 250 547 277 C 555 304 562 337 569 377 L 762 346 C 752 290 738 239 720 194 C 702 149 680 111 652 80 C 624 49 591 25 553 9 C 515 -7 470 -16 420 -16 Z M 418 -406 C 372 -406 330 -399 292 -386 C 253 -373 219 -356 191 -336 L 236 -250 C 258 -265 285 -278 315 -289 C 345 -299 376 -305 410 -305 C 468 -305 498 -280 498 -231 C 498 -191 479 -172 443 -172 C 417 -172 394 -183 375 -207 L 301 -174 L 347 2 L 451 2 L 428 -100 C 448 -81 476 -72 514 -72 C 530 -72 545 -74 560 -80 C 575 -85 588 -93 600 -105 C 612 -116 621 -131 628 -149 C 635 -167 639 -190 639 -217 C 639 -277 619 -323 579 -356 C 539 -389 486 -406 418 -406 Z" unicode="ç" />
<glyph horiz-adv-x="821" d="M 424 -16 C 368 -16 317 -4 271 17 C 225 39 186 74 154 120 C 121 166 96 224 78 294 C 60 364 51 447 51 543 C 51 640 60 724 78 794 C 96 864 122 922 155 968 C 188 1014 227 1047 273 1069 C 318 1091 368 1102 422 1102 C 484 1102 537 1087 581 1059 C 625 1031 660 992 688 942 C 716 892 736 832 749 764 C 761 695 768 621 768 541 L 768 465 L 258 465 C 259 367 273 292 301 240 C 329 188 372 162 430 162 C 453 162 473 165 491 173 C 508 180 523 191 536 205 C 549 219 561 237 571 258 C 581 279 590 304 600 332 L 768 276 C 740 180 697 108 640 58 C 582 8 510 -16 424 -16 Z M 567 627 C 565 723 552 797 529 847 C 505 897 469 922 420 922 C 396 922 375 917 357 907 C 338 897 322 880 308 857 C 294 834 283 804 275 766 C 267 728 262 682 260 627 L 567 627 Z M 145 1516 L 362 1516 L 498 1196 L 348 1196 L 145 1516 Z" unicode="è" />
<glyph horiz-adv-x="821" d="M 441 1516 L 658 1516 L 455 1196 L 304 1196 L 441 1516 Z M 424 -16 C 368 -16 317 -4 271 17 C 225 39 186 74 154 120 C 121 166 96 224 78 294 C 60 364 51 447 51 543 C 51 640 60 724 78 794 C 96 864 122 922 155 968 C 188 1014 227 1047 273 1069 C 318 1091 368 1102 422 1102 C 484 1102 537 1087 581 1059 C 625 1031 660 992 688 942 C 716 892 736 832 749 764 C 761 695 768 621 768 541 L 768 465 L 258 465 C 259 367 273 292 301 240 C 329 188 372 162 430 162 C 453 162 473 165 491 173 C 508 180 523 191 536 205 C 549 219 561 237 571 258 C 581 279 590 304 600 332 L 768 276 C 740 180 697 108 640 58 C 582 8 510 -16 424 -16 Z M 567 627 C 565 723 552 797 529 847 C 505 897 469 922 420 922 C 396 922 375 917 357 907 C 338 897 322 880 308 857 C 294 834 283 804 275 766 C 267 728 262 682 260 627 L 567 627 Z" unicode="é" />
<glyph horiz-adv-x="821" d="M 338 1516 L 483 1516 L 665 1190 L 536 1190 L 407 1346 L 282 1190 L 153 1190 L 338 1516 Z M 424 -16 C 368 -16 317 -4 271 17 C 225 39 186 74 154 120 C 121 166 96 224 78 294 C 60 364 51 447 51 543 C 51 640 60 724 78 794 C 96 864 122 922 155 968 C 188 1014 227 1047 273 1069 C 318 1091 368 1102 422 1102 C 484 1102 537 1087 581 1059 C 625 1031 660 992 688 942 C 716 892 736 832 749 764 C 761 695 768 621 768 541 L 768 465 L 258 465 C 259 367 273 292 301 240 C 329 188 372 162 430 162 C 453 162 473 165 491 173 C 508 180 523 191 536 205 C 549 219 561 237 571 258 C 581 279 590 304 600 332 L 768 276 C 740 180 697 108 640 58 C 582 8 510 -16 424 -16 Z M 567 627 C 565 723 552 797 529 847 C 505 897 469 922 420 922 C 396 922 375 917 357 907 C 338 897 322 880 308 857 C 294 834 283 804 275 766 C 267 728 262 682 260 627 L 567 627 Z" unicode="ê" />
<glyph horiz-adv-x="821" d="M 469 1413 L 659 1413 L 659 1194 L 469 1194 L 469 1413 Z M 161 1413 L 352 1413 L 352 1194 L 161 1194 L 161 1413 Z M 424 -16 C 368 -16 317 -4 271 17 C 225 39 186 74 154 120 C 121 166 96 224 78 294 C 60 364 51 447 51 543 C 51 640 60 724 78 794 C 96 864 122 922 155 968 C 188 1014 227 1047 273 1069 C 318 1091 368 1102 422 1102 C 484 1102 537 1087 581 1059 C 625 1031 660 992 688 942 C 716 892 736 832 749 764 C 761 695 768 621 768 541 L 768 465 L 258 465 C 259 367 273 292 301 240 C 329 188 372 162 430 162 C 453 162 473 165 491 173 C 508 180 523 191 536 205 C 549 219 561 237 571 258 C 581 279 590 304 600 332 L 768 276 C 740 180 697 108 640 58 C 582 8 510 -16 424 -16 Z M 567 627 C 565 723 552 797 529 847 C 505 897 469 922 420 922 C 396 922 375 917 357 907 C 338 897 322 880 308 857 C 294 834 283 804 275 766 C 267 728 262 682 260 627 L 567 627 Z" unicode="ë" />
<glyph horiz-adv-x="424" d="M 104 1085 L 319 1085 L 319 0 L 104 0 L 104 1085 Z M -61 1516 L 156 1516 L 292 1196 L 142 1196 L -61 1516 Z" unicode="ì" />
<glyph horiz-adv-x="424" d="M 263 1516 L 480 1516 L 277 1196 L 126 1196 L 263 1516 Z M 104 1085 L 319 1085 L 319 0 L 104 0 L 104 1085 Z" unicode="í" />
<glyph horiz-adv-x="424" d="M 141 1516 L 286 1516 L 468 1190 L 339 1190 L 210 1346 L 85 1190 L -44 1190 L 141 1516 Z M 104 1085 L 319 1085 L 319 0 L 104 0 L 104 1085 Z" unicode="î" />
<glyph horiz-adv-x="424" d="M 272 1413 L 462 1413 L 462 1194 L 272 1194 L 272 1413 Z M -36 1413 L 155 1413 L 155 1194 L -36 1194 L -36 1413 Z M 104 1085 L 319 1085 L 319 0 L 104 0 L 104 1085 Z" unicode="ï" />
<glyph horiz-adv-x="856" d="M 385 1104 L 317 1231 L 449 1305 C 431 1326 413 1346 394 1366 C 374 1385 354 1404 334 1423 L 446 1544 C 477 1517 505 1491 531 1466 C 557 1441 580 1416 602 1391 L 758 1479 L 825 1350 L 686 1272 C 708 1233 726 1192 741 1148 C 756 1104 768 1057 778 1005 C 788 953 795 895 799 833 C 803 770 805 701 805 625 C 805 513 796 416 780 335 C 764 253 740 186 709 133 C 677 80 638 41 591 15 C 544 -10 490 -23 430 -23 C 368 -23 314 -10 267 14 C 220 38 181 74 149 121 C 117 168 92 226 76 294 C 59 362 51 439 51 526 C 51 614 59 692 75 761 C 91 829 114 887 144 934 C 174 981 210 1017 254 1042 C 298 1066 347 1079 403 1079 C 455 1079 500 1064 538 1035 C 576 1005 606 967 627 920 C 617 967 604 1012 588 1056 C 572 1100 552 1142 530 1184 L 385 1104 Z M 428 154 C 485 154 526 186 552 251 C 577 316 590 408 590 528 C 590 586 587 639 581 686 C 575 733 565 773 552 806 C 539 838 522 863 502 881 C 482 898 457 907 428 907 C 370 907 328 875 303 812 C 278 748 266 654 266 528 C 266 469 268 416 274 370 C 280 324 289 285 302 253 C 314 221 331 196 352 179 C 372 162 398 154 428 154 Z" unicode="ð" />
<glyph horiz-adv-x="885" d="M 94 1085 L 307 1085 L 307 958 C 320 974 336 991 356 1009 C 376 1026 398 1041 422 1055 C 446 1069 472 1080 500 1089 C 528 1097 556 1102 586 1102 C 620 1102 650 1097 676 1088 C 702 1079 724 1064 742 1043 C 760 1021 773 993 783 959 C 792 924 797 881 797 829 L 797 0 L 582 0 L 582 774 C 582 818 575 850 562 872 C 549 894 526 905 494 905 C 478 905 461 901 444 895 C 427 889 410 881 394 871 C 377 861 361 850 347 838 C 332 826 319 814 307 803 L 307 0 L 94 0 L 94 1085 Z M 153 1180 C 153 1279 167 1351 197 1395 C 227 1439 269 1462 323 1462 C 349 1462 374 1456 396 1444 C 418 1432 438 1419 457 1405 C 475 1391 493 1378 510 1366 C 526 1354 543 1348 559 1348 C 577 1348 591 1355 601 1371 C 611 1387 616 1416 616 1458 L 733 1458 C 733 1358 718 1286 689 1242 C 659 1198 617 1176 563 1176 C 536 1176 512 1182 490 1194 C 468 1206 447 1219 428 1233 C 409 1247 391 1260 375 1272 C 358 1284 342 1290 327 1290 C 307 1290 293 1282 284 1266 C 274 1250 270 1221 270 1180 L 153 1180 L 153 1180 Z" unicode="ñ" />
<glyph horiz-adv-x="858" d="M 430 -16 C 374 -16 322 -4 276 18 C 229 40 189 75 156 121 C 122 167 96 226 78 296 C 60 366 51 448 51 543 C 51 639 60 722 78 792 C 96 862 122 920 155 966 C 188 1012 228 1046 275 1068 C 321 1090 373 1102 430 1102 C 486 1102 537 1090 583 1068 C 629 1046 668 1012 701 966 C 734 920 760 862 778 792 C 796 722 805 639 805 543 C 805 448 796 366 778 296 C 760 226 734 167 701 121 C 668 75 629 40 583 18 C 537 -4 486 -16 430 -16 Z M 430 160 C 487 160 528 190 553 252 C 577 314 590 411 590 543 C 590 603 587 657 582 704 C 576 751 567 791 555 823 C 543 855 526 879 506 895 C 485 911 460 920 430 920 C 371 920 329 889 304 829 C 278 768 266 673 266 543 C 266 481 268 427 274 380 C 279 332 288 292 301 260 C 313 227 330 202 351 185 C 372 168 398 160 430 160 Z M 164 1516 L 381 1516 L 517 1196 L 367 1196 L 164 1516 Z" unicode="ò" />
<glyph horiz-adv-x="858" d="M 459 1516 L 676 1516 L 473 1196 L 322 1196 L 459 1516 Z M 430 -16 C 374 -16 322 -4 276 18 C 229 40 189 75 156 121 C 122 167 96 226 78 296 C 60 366 51 448 51 543 C 51 639 60 722 78 792 C 96 862 122 920 155 966 C 188 1012 228 1046 275 1068 C 321 1090 373 1102 430 1102 C 486 1102 537 1090 583 1068 C 629 1046 668 1012 701 966 C 734 920 760 862 778 792 C 796 722 805 639 805 543 C 805 448 796 366 778 296 C 760 226 734 167 701 121 C 668 75 629 40 583 18 C 537 -4 486 -16 430 -16 Z M 430 160 C 487 160 528 190 553 252 C 577 314 590 411 590 543 C 590 603 587 657 582 704 C 576 751 567 791 555 823 C 543 855 526 879 506 895 C 485 911 460 920 430 920 C 371 920 329 889 304 829 C 278 768 266 673 266 543 C 266 481 268 427 274 380 C 279 332 288 292 301 260 C 313 227 330 202 351 185 C 372 168 398 160 430 160 Z" unicode="ó" />
<glyph horiz-adv-x="858" d="M 357 1516 L 502 1516 L 684 1190 L 555 1190 L 426 1346 L 301 1190 L 172 1190 L 357 1516 Z M 430 -16 C 374 -16 322 -4 276 18 C 229 40 189 75 156 121 C 122 167 96 226 78 296 C 60 366 51 448 51 543 C 51 639 60 722 78 792 C 96 862 122 920 155 966 C 188 1012 228 1046 275 1068 C 321 1090 373 1102 430 1102 C 486 1102 537 1090 583 1068 C 629 1046 668 1012 701 966 C 734 920 760 862 778 792 C 796 722 805 639 805 543 C 805 448 796 366 778 296 C 760 226 734 167 701 121 C 668 75 629 40 583 18 C 537 -4 486 -16 430 -16 Z M 430 160 C 487 160 528 190 553 252 C 577 314 590 411 590 543 C 590 603 587 657 582 704 C 576 751 567 791 555 823 C 543 855 526 879 506 895 C 485 911 460 920 430 920 C 371 920 329 889 304 829 C 278 768 266 673 266 543 C 266 481 268 427 274 380 C 279 332 288 292 301 260 C 313 227 330 202 351 185 C 372 168 398 160 430 160 Z" unicode="ô" />
<glyph horiz-adv-x="858" d="M 430 -16 C 374 -16 322 -4 276 18 C 229 40 189 75 156 121 C 122 167 96 226 78 296 C 60 366 51 448 51 543 C 51 639 60 722 78 792 C 96 862 122 920 155 966 C 188 1012 228 1046 275 1068 C 321 1090 373 1102 430 1102 C 486 1102 537 1090 583 1068 C 629 1046 668 1012 701 966 C 734 920 760 862 778 792 C 796 722 805 639 805 543 C 805 448 796 366 778 296 C 760 226 734 167 701 121 C 668 75 629 40 583 18 C 537 -4 486 -16 430 -16 Z M 430 160 C 487 160 528 190 553 252 C 577 314 590 411 590 543 C 590 603 587 657 582 704 C 576 751 567 791 555 823 C 543 855 526 879 506 895 C 485 911 460 920 430 920 C 371 920 329 889 304 829 C 278 768 266 673 266 543 C 266 481 268 427 274 380 C 279 332 288 292 301 260 C 313 227 330 202 351 185 C 372 168 398 160 430 160 Z M 139 1180 C 139 1279 153 1351 183 1395 C 213 1439 255 1462 309 1462 C 335 1462 360 1456 382 1444 C 404 1432 424 1419 443 1405 C 461 1391 479 1378 496 1366 C 512 1354 529 1348 545 1348 C 563 1348 577 1355 587 1371 C 597 1387 602 1416 602 1458 L 719 1458 C 719 1358 704 1286 675 1242 C 645 1198 603 1176 549 1176 C 522 1176 498 1182 476 1194 C 454 1206 433 1219 414 1233 C 395 1247 377 1260 361 1272 C 344 1284 328 1290 313 1290 C 293 1290 279 1282 270 1266 C 260 1250 256 1221 256 1180 L 139 1180 L 139 1180 Z" unicode="õ" />
<glyph horiz-adv-x="858" d="M 488 1413 L 678 1413 L 678 1194 L 488 1194 L 488 1413 Z M 180 1413 L 371 1413 L 371 1194 L 180 1194 L 180 1413 Z M 430 -16 C 374 -16 322 -4 276 18 C 229 40 189 75 156 121 C 122 167 96 226 78 296 C 60 366 51 448 51 543 C 51 639 60 722 78 792 C 96 862 122 920 155 966 C 188 1012 228 1046 275 1068 C 321 1090 373 1102 430 1102 C 486 1102 537 1090 583 1068 C 629 1046 668 1012 701 966 C 734 920 760 862 778 792 C 796 722 805 639 805 543 C 805 448 796 366 778 296 C 760 226 734 167 701 121 C 668 75 629 40 583 18 C 537 -4 486 -16 430 -16 Z M 430 160 C 487 160 528 190 553 252 C 577 314 590 411 590 543 C 590 603 587 657 582 704 C 576 751 567 791 555 823 C 543 855 526 879 506 895 C 485 911 460 920 430 920 C 371 920 329 889 304 829 C 278 768 266 673 266 543 C 266 481 268 427 274 380 C 279 332 288 292 301 260 C 313 227 330 202 351 185 C 372 168 398 160 430 160 Z" unicode="ö" />
<glyph horiz-adv-x="952" d="M 379 1155 L 571 1155 L 571 930 L 379 930 L 379 1155 Z M 80 770 L 872 770 L 872 582 L 80 582 L 80 770 Z M 379 418 L 571 418 L 571 195 L 379 195 L 379 418 Z" unicode="÷" />
<glyph horiz-adv-x="858" d="M 713 948 C 743 902 765 845 781 779 C 797 712 805 633 805 543 C 805 448 796 366 778 296 C 760 226 734 167 701 121 C 668 75 629 40 583 18 C 537 -4 486 -16 430 -16 C 397 -16 365 -12 335 -4 C 305 4 277 15 252 31 L 193 -88 L 57 -25 L 141 141 C 112 187 90 243 74 310 C 58 376 51 454 51 543 C 51 639 60 722 78 792 C 96 862 122 920 155 966 C 188 1012 228 1046 275 1068 C 321 1090 373 1102 430 1102 C 494 1102 552 1087 604 1057 L 666 1178 L 799 1114 L 713 948 Z M 524 879 C 499 907 468 922 430 922 C 371 922 328 890 300 827 C 272 764 258 669 258 543 C 258 476 262 417 270 367 L 524 879 Z M 328 207 C 354 174 388 158 430 158 C 488 158 530 190 557 254 C 584 318 598 414 598 543 C 598 609 594 667 586 719 L 328 207 Z" unicode="ø" />
<glyph horiz-adv-x="881" d="M 297 -12 C 263 -12 233 -7 207 1 C 181 10 159 25 141 46 C 123 67 110 95 101 130 C 92 164 88 208 88 260 L 88 1085 L 301 1085 L 301 313 C 301 267 307 234 320 212 C 333 190 357 180 391 180 C 407 180 423 183 440 190 C 456 196 472 205 488 215 C 504 225 519 236 533 248 C 547 260 561 271 573 283 L 573 1085 L 786 1085 L 786 0 L 573 0 L 573 131 C 559 113 543 96 524 79 C 504 62 483 47 459 34 C 435 20 409 9 382 1 C 354 -7 326 -12 297 -12 Z M 176 1516 L 393 1516 L 529 1196 L 379 1196 L 176 1516 Z" unicode="ù" />
<glyph horiz-adv-x="881" d="M 469 1516 L 686 1516 L 483 1196 L 332 1196 L 469 1516 Z M 297 -12 C 263 -12 233 -7 207 1 C 181 10 159 25 141 46 C 123 67 110 95 101 130 C 92 164 88 208 88 260 L 88 1085 L 301 1085 L 301 313 C 301 267 307 234 320 212 C 333 190 357 180 391 180 C 407 180 423 183 440 190 C 456 196 472 205 488 215 C 504 225 519 236 533 248 C 547 260 561 271 573 283 L 573 1085 L 786 1085 L 786 0 L 573 0 L 573 131 C 559 113 543 96 524 79 C 504 62 483 47 459 34 C 435 20 409 9 382 1 C 354 -7 326 -12 297 -12 Z" unicode="ú" />
<glyph horiz-adv-x="881" d="M 365 1516 L 510 1516 L 692 1190 L 563 1190 L 434 1346 L 309 1190 L 180 1190 L 365 1516 Z M 297 -12 C 263 -12 233 -7 207 1 C 181 10 159 25 141 46 C 123 67 110 95 101 130 C 92 164 88 208 88 260 L 88 1085 L 301 1085 L 301 313 C 301 267 307 234 320 212 C 333 190 357 180 391 180 C 407 180 423 183 440 190 C 456 196 472 205 488 215 C 504 225 519 236 533 248 C 547 260 561 271 573 283 L 573 1085 L 786 1085 L 786 0 L 573 0 L 573 131 C 559 113 543 96 524 79 C 504 62 483 47 459 34 C 435 20 409 9 382 1 C 354 -7 326 -12 297 -12 Z" unicode="û" />
<glyph horiz-adv-x="881" d="M 496 1413 L 686 1413 L 686 1194 L 496 1194 L 496 1413 Z M 188 1413 L 379 1413 L 379 1194 L 188 1194 L 188 1413 Z M 297 -12 C 263 -12 233 -7 207 1 C 181 10 159 25 141 46 C 123 67 110 95 101 130 C 92 164 88 208 88 260 L 88 1085 L 301 1085 L 301 313 C 301 267 307 234 320 212 C 333 190 357 180 391 180 C 407 180 423 183 440 190 C 456 196 472 205 488 215 C 504 225 519 236 533 248 C 547 260 561 271 573 283 L 573 1085 L 786 1085 L 786 0 L 573 0 L 573 131 C 559 113 543 96 524 79 C 504 62 483 47 459 34 C 435 20 409 9 382 1 C 354 -7 326 -12 297 -12 Z" unicode="ü" />
<glyph horiz-adv-x="799" d="M 164 -412 C 122 -412 88 -409 60 -404 C 32 -398 9 -393 -10 -387 L 31 -213 C 43 -217 57 -220 75 -223 C 93 -225 113 -227 137 -227 C 155 -227 171 -224 185 -218 C 199 -212 211 -204 221 -192 C 231 -180 239 -165 247 -147 C 254 -129 261 -107 268 -82 L 293 10 L 16 1085 L 236 1085 L 354 532 C 358 509 363 488 367 469 C 371 449 374 429 378 408 C 381 387 384 364 388 339 C 392 314 396 285 401 252 L 408 252 C 412 284 416 312 420 337 C 424 361 427 384 431 406 C 435 427 439 447 443 467 C 447 487 451 508 457 530 L 578 1085 L 782 1085 L 467 -109 C 453 -161 438 -206 422 -244 C 406 -282 386 -313 363 -338 C 339 -363 311 -382 279 -394 C 247 -406 208 -412 164 -412 Z M 430 1516 L 647 1516 L 444 1196 L 293 1196 L 430 1516 Z" unicode="ý" />
<glyph horiz-adv-x="885" d="M 94 1516 L 307 1516 L 307 973 C 319 990 332 1007 347 1023 C 362 1039 379 1054 399 1066 C 418 1078 439 1088 463 1096 C 487 1104 513 1108 541 1108 C 584 1108 623 1097 659 1076 C 695 1055 725 1022 751 977 C 776 932 796 874 810 803 C 824 731 831 645 831 545 C 831 443 823 357 808 286 C 793 214 772 156 746 111 C 719 66 687 33 650 13 C 612 -7 572 -18 528 -18 C 476 -18 433 -6 398 17 C 362 41 332 73 307 113 L 307 -410 L 94 -410 L 94 1516 Z M 467 164 C 491 164 512 170 530 183 C 548 196 564 218 576 248 C 588 278 598 317 604 365 C 610 413 614 473 614 543 C 614 611 610 668 604 716 C 598 763 588 801 576 831 C 563 860 547 881 529 895 C 511 908 489 915 465 915 C 449 915 433 911 417 905 C 401 898 387 890 373 880 C 359 870 347 859 336 847 C 324 835 315 825 307 815 L 307 266 C 315 254 326 241 338 229 C 350 217 363 206 377 196 C 391 186 405 179 421 173 C 436 167 451 164 467 164 Z" unicode="þ" />
<glyph horiz-adv-x="799" d="M 164 -412 C 122 -412 88 -409 60 -404 C 32 -398 9 -393 -10 -387 L 31 -213 C 43 -217 57 -220 75 -223 C 93 -225 113 -227 137 -227 C 155 -227 171 -224 185 -218 C 199 -212 211 -204 221 -192 C 231 -180 239 -165 247 -147 C 254 -129 261 -107 268 -82 L 293 10 L 16 1085 L 236 1085 L 354 532 C 358 509 363 488 367 469 C 371 449 374 429 378 408 C 381 387 384 364 388 339 C 392 314 396 285 401 252 L 408 252 C 412 284 416 312 420 337 C 424 361 427 384 431 406 C 435 427 439 447 443 467 C 447 487 451 508 457 530 L 578 1085 L 782 1085 L 467 -109 C 453 -161 438 -206 422 -244 C 406 -282 386 -313 363 -338 C 339 -363 311 -382 279 -394 C 247 -406 208 -412 164 -412 Z M 461 1413 L 651 1413 L 651 1194 L 461 1194 L 461 1413 Z M 153 1413 L 344 1413 L 344 1194 L 153 1194 L 153 1413 Z" unicode="ÿ" />
<glyph horiz-adv-x="965" d="" unicode="Ā" />
<glyph horiz-adv-x="827" d="" unicode="ā" />
<glyph horiz-adv-x="965" d="" unicode="Ă" />
<glyph horiz-adv-x="827" d="" unicode="ă" />
<glyph horiz-adv-x="965" d="" unicode="Ą" />
<glyph horiz-adv-x="827" d="" unicode="ą" />
<glyph horiz-adv-x="983" d="" unicode="Ć" />
<glyph horiz-adv-x="801" d="" unicode="ć" />
<glyph horiz-adv-x="983" d="" unicode="Ĉ" />
<glyph horiz-adv-x="801" d="" unicode="ĉ" />
<glyph horiz-adv-x="983" d="" unicode="Ċ" />
<glyph horiz-adv-x="801" d="" unicode="ċ" />
<glyph horiz-adv-x="983" d="" unicode="Č" />
<glyph horiz-adv-x="801" d="" unicode="č" />
<glyph horiz-adv-x="1020" d="" unicode="Ď" />
<glyph horiz-adv-x="885" d="" unicode="ď" />
<glyph horiz-adv-x="1022" d="" unicode="Đ" />
<glyph horiz-adv-x="885" d="" unicode="đ" />
<glyph horiz-adv-x="846" d="" unicode="Ē" />
<glyph horiz-adv-x="821" d="" unicode="ē" />
<glyph horiz-adv-x="846" d="" unicode="Ĕ" />
<glyph horiz-adv-x="821" d="" unicode="ĕ" />
<glyph horiz-adv-x="846" d="" unicode="Ė" />
<glyph horiz-adv-x="821" d="" unicode="ė" />
<glyph horiz-adv-x="846" d="" unicode="Ę" />
<glyph horiz-adv-x="821" d="" unicode="ę" />
<glyph horiz-adv-x="846" d="" unicode="Ě" />
<glyph horiz-adv-x="821" d="" unicode="ě" />
<glyph horiz-adv-x="1026" d="" unicode="Ĝ" />
<glyph horiz-adv-x="862" d="" unicode="ĝ" />
<glyph horiz-adv-x="1026" d="" unicode="Ğ" />
<glyph horiz-adv-x="862" d="" unicode="ğ" />
<glyph horiz-adv-x="1026" d="" unicode="Ġ" />
<glyph horiz-adv-x="862" d="" unicode="ġ" />
<glyph horiz-adv-x="1026" d="" unicode="Ģ" />
<glyph horiz-adv-x="862" d="" unicode="ģ" />
<glyph horiz-adv-x="1053" d="" unicode="Ĥ" />
<glyph horiz-adv-x="885" d="" unicode="ĥ" />
<glyph horiz-adv-x="1053" d="" unicode="Ħ" />
<glyph horiz-adv-x="885" d="" unicode="ħ" />
<glyph horiz-adv-x="467" d="" unicode="Ĩ" />
<glyph horiz-adv-x="424" d="" unicode="ĩ" />
<glyph horiz-adv-x="467" d="" unicode="Ī" />
<glyph horiz-adv-x="424" d="" unicode="ī" />
<glyph horiz-adv-x="467" d="" unicode="Ĭ" />
<glyph horiz-adv-x="424" d="" unicode="ĭ" />
<glyph horiz-adv-x="467" d="" unicode="Į" />
<glyph horiz-adv-x="424" d="" unicode="į" />
<glyph horiz-adv-x="467" d="" unicode="İ" />
<glyph horiz-adv-x="424" d="M 104 1085 L 319 1085 L 319 0 L 104 0 L 104 1085 Z" unicode="ı" />
<glyph horiz-adv-x="1178" d="" unicode="Ĳ" />
<glyph horiz-adv-x="846" d="" unicode="ĳ" />
<glyph horiz-adv-x="752" d="" unicode="Ĵ" />
<glyph horiz-adv-x="424" d="" unicode="ĵ" />
<glyph horiz-adv-x="967" d="" unicode="Ķ" />
<glyph horiz-adv-x="813" d="" unicode="ķ" />
<glyph horiz-adv-x="813" d="" unicode="ĸ" />
<glyph horiz-adv-x="815" d="" unicode="Ĺ" />
<glyph horiz-adv-x="424" d="" unicode="ĺ" />
<glyph horiz-adv-x="815" d="" unicode="Ļ" />
<glyph horiz-adv-x="424" d="" unicode="ļ" />
<glyph horiz-adv-x="815" d="" unicode="Ľ" />
<glyph horiz-adv-x="424" d="" unicode="ľ" />
<glyph horiz-adv-x="907" d="" unicode="Ŀ" />
<glyph horiz-adv-x="649" d="" unicode="ŀ" />
<glyph horiz-adv-x="815" d="" unicode="Ł" />
<glyph horiz-adv-x="492" d="" unicode="ł" />
<glyph horiz-adv-x="1049" d="" unicode="Ń" />
<glyph horiz-adv-x="885" d="" unicode="ń" />
<glyph horiz-adv-x="1049" d="" unicode="Ņ" />
<glyph horiz-adv-x="885" d="" unicode="ņ" />
<glyph horiz-adv-x="1049" d="" unicode="Ň" />
<glyph horiz-adv-x="885" d="" unicode="ň" />
<glyph horiz-adv-x="1049" d="" unicode="Ŋ" />
<glyph horiz-adv-x="885" d="" unicode="ŋ" />
<glyph horiz-adv-x="1053" d="" unicode="Ō" />
<glyph horiz-adv-x="858" d="" unicode="ō" />
<glyph horiz-adv-x="1053" d="" unicode="Ŏ" />
<glyph horiz-adv-x="858" d="" unicode="ŏ" />
<glyph horiz-adv-x="1053" d="" unicode="Ő" />
<glyph horiz-adv-x="858" d="" unicode="ő" />
<glyph horiz-adv-x="1501" d="M 807 1516 L 1430 1516 L 1430 1317 L 991 1317 L 991 891 L 1305 891 L 1305 702 L 991 702 L 991 193 L 1452 193 L 1452 0 L 807 0 L 807 154 C 775 98 737 55 692 26 C 646 -3 592 -18 528 -18 C 458 -18 394 -3 337 27 C 279 57 230 103 190 166 C 150 229 118 309 96 407 C 74 505 63 622 63 758 C 63 893 74 1010 96 1108 C 118 1206 150 1286 190 1349 C 230 1412 279 1459 337 1489 C 394 1519 458 1534 528 1534 C 592 1534 646 1519 692 1490 C 737 1460 775 1418 807 1362 L 807 1516 Z M 528 180 C 609 180 668 228 706 325 C 743 421 762 566 762 758 C 762 948 743 1091 705 1186 C 667 1281 608 1329 528 1329 C 444 1329 384 1281 346 1186 C 308 1091 289 948 289 758 C 289 566 308 421 346 325 C 384 228 444 180 528 180 Z" unicode="Œ" />
<glyph horiz-adv-x="1354" d="M 430 -16 C 374 -16 322 -4 276 18 C 229 40 189 75 156 121 C 122 167 96 226 78 296 C 60 366 51 448 51 543 C 51 639 60 722 78 792 C 96 862 122 920 155 966 C 188 1012 228 1046 275 1068 C 321 1090 373 1102 430 1102 C 544 1102 631 1054 692 958 C 723 1008 761 1044 805 1067 C 849 1090 898 1102 954 1102 C 1016 1102 1069 1087 1113 1059 C 1157 1031 1192 992 1220 942 C 1248 892 1268 832 1281 764 C 1293 695 1300 621 1300 541 L 1300 465 L 791 465 C 792 367 806 292 834 240 C 862 188 905 162 963 162 C 986 162 1006 165 1024 173 C 1041 180 1056 191 1069 205 C 1082 219 1094 237 1104 258 C 1114 279 1123 304 1133 332 L 1300 276 C 1272 180 1229 108 1172 58 C 1114 8 1042 -16 956 -16 C 898 -16 847 -4 803 19 C 759 43 722 79 692 127 C 631 31 544 -16 430 -16 Z M 1100 627 C 1098 723 1085 797 1062 847 C 1038 897 1002 922 952 922 C 928 922 907 917 889 907 C 870 897 854 880 841 857 C 827 834 816 804 808 766 C 800 728 795 682 793 627 L 1100 627 Z M 430 160 C 487 160 528 190 553 252 C 577 314 590 411 590 543 C 590 603 587 657 582 704 C 576 751 567 791 555 823 C 543 855 526 879 506 895 C 485 911 460 920 430 920 C 371 920 329 889 304 829 C 278 768 266 673 266 543 C 266 481 268 427 274 380 C 279 332 288 292 301 260 C 313 227 330 202 351 185 C 372 168 398 160 430 160 Z" unicode="œ" />
<glyph horiz-adv-x="977" d="" unicode="Ŕ" />
<glyph horiz-adv-x="616" d="" unicode="ŕ" />
<glyph horiz-adv-x="977" d="" unicode="Ŗ" />
<glyph horiz-adv-x="616" d="" unicode="ŗ" />
<glyph horiz-adv-x="977" d="" unicode="Ř" />
<glyph horiz-adv-x="616" d="" unicode="ř" />
<glyph horiz-adv-x="936" d="" unicode="Ś" />
<glyph horiz-adv-x="772" d="" unicode="ś" />
<glyph horiz-adv-x="936" d="" unicode="Ŝ" />
<glyph horiz-adv-x="772" d="" unicode="ŝ" />
<glyph horiz-adv-x="936" d="" unicode="Ş" />
<glyph horiz-adv-x="772" d="" unicode="ş" />
<glyph horiz-adv-x="936" d="M 209 1924 L 340 1924 L 467 1768 L 594 1924 L 723 1924 L 539 1598 L 394 1598 L 209 1924 Z M 477 -23 C 409 -23 351 -12 302 8 C 252 29 210 59 175 97 C 140 135 112 180 90 233 C 68 286 51 345 39 410 L 244 449 C 261 359 288 291 324 243 C 360 195 412 172 479 172 C 509 172 534 176 556 185 C 578 193 596 205 610 221 C 624 236 634 254 641 276 C 647 297 651 320 651 346 C 651 381 643 414 627 446 C 611 478 589 508 563 538 C 537 567 507 596 473 625 C 439 653 405 683 370 713 C 335 743 301 774 267 807 C 233 839 203 874 177 912 C 151 949 130 989 114 1032 C 98 1075 90 1122 90 1174 C 90 1230 99 1280 117 1325 C 135 1370 161 1408 194 1440 C 227 1472 267 1496 313 1513 C 359 1529 411 1538 467 1538 C 525 1538 575 1528 618 1510 C 660 1491 697 1464 728 1430 C 759 1396 785 1354 806 1306 C 826 1258 844 1204 858 1145 L 659 1094 C 649 1134 637 1170 625 1201 C 613 1231 599 1257 583 1277 C 567 1297 549 1313 529 1323 C 509 1333 485 1339 459 1339 C 411 1339 374 1326 348 1300 C 322 1274 309 1237 309 1188 C 309 1150 317 1114 333 1082 C 349 1049 370 1018 396 988 C 422 958 452 928 486 900 C 520 872 554 843 589 813 C 624 783 658 753 692 721 C 726 689 756 654 782 618 C 808 581 830 541 846 498 C 862 455 870 408 870 356 C 870 300 860 248 841 202 C 822 155 795 115 761 82 C 726 48 685 22 637 4 C 589 -13 535 -23 477 -23 Z" unicode="Š" />
<glyph horiz-adv-x="772" d="M 130 1518 L 261 1518 L 388 1362 L 515 1518 L 644 1518 L 460 1192 L 315 1192 L 130 1518 Z M 387 -20 C 339 -20 297 -13 259 -1 C 221 11 188 29 158 53 C 128 76 102 104 79 137 C 56 169 36 206 20 246 L 188 322 C 210 266 237 223 269 195 C 301 166 339 152 383 152 C 427 152 460 162 484 183 C 508 203 520 232 520 268 C 520 292 513 314 500 334 C 487 353 470 371 449 387 C 428 403 404 419 377 435 C 349 450 322 466 294 483 C 266 500 238 519 211 539 C 183 559 159 582 138 608 C 117 634 100 664 87 698 C 74 732 68 771 68 815 C 68 863 77 905 96 941 C 114 977 138 1008 168 1032 C 198 1056 231 1075 269 1087 C 306 1099 343 1106 381 1106 C 466 1106 535 1085 589 1043 C 642 1001 685 938 719 856 L 549 782 C 532 830 510 866 483 891 C 455 915 423 928 385 928 C 351 928 323 918 303 899 C 282 879 272 854 272 823 C 272 797 278 774 291 754 C 304 734 321 715 343 698 C 364 681 388 665 415 650 C 442 634 470 618 498 602 C 526 585 554 567 581 547 C 608 527 632 504 654 478 C 675 452 692 423 705 390 C 718 356 725 318 725 274 C 725 230 717 191 701 155 C 685 119 663 88 634 62 C 605 36 570 15 528 1 C 486 -12 439 -20 387 -20 Z" unicode="š" />
<glyph horiz-adv-x="864" d="" unicode="Ţ" />
<glyph horiz-adv-x="598" d="" unicode="ţ" />
<glyph horiz-adv-x="864" d="" unicode="Ť" />
<glyph horiz-adv-x="598" d="" unicode="ť" />
<glyph horiz-adv-x="864" d="" unicode="Ŧ" />
<glyph horiz-adv-x="598" d="" unicode="ŧ" />
<glyph horiz-adv-x="1012" d="" unicode="Ũ" />
<glyph horiz-adv-x="881" d="" unicode="ũ" />
<glyph horiz-adv-x="1012" d="" unicode="Ū" />
<glyph horiz-adv-x="881" d="" unicode="ū" />
<glyph horiz-adv-x="1012" d="" unicode="Ŭ" />
<glyph horiz-adv-x="881" d="" unicode="ŭ" />
<glyph horiz-adv-x="1012" d="" unicode="Ů" />
<glyph horiz-adv-x="881" d="" unicode="ů" />
<glyph horiz-adv-x="1012" d="" unicode="Ű" />
<glyph horiz-adv-x="881" d="" unicode="ű" />
<glyph horiz-adv-x="1012" d="" unicode="Ų" />
<glyph horiz-adv-x="881" d="" unicode="ų" />
<glyph horiz-adv-x="1366" d="" unicode="Ŵ" />
<glyph horiz-adv-x="1118" d="" unicode="ŵ" />
<glyph horiz-adv-x="901" d="" unicode="Ŷ" />
<glyph horiz-adv-x="799" d="" unicode="ŷ" />
<glyph horiz-adv-x="901" d="M 338 565 L 8 1516 L 236 1516 L 457 815 L 463 815 L 682 1516 L 893 1516 L 561 565 L 561 0 L 338 0 L 338 565 Z M 517 1819 L 707 1819 L 707 1600 L 517 1600 L 517 1819 Z M 209 1819 L 400 1819 L 400 1600 L 209 1600 L 209 1819 Z" unicode="Ÿ" />
<glyph horiz-adv-x="883" d="" unicode="Ź" />
<glyph horiz-adv-x="739" d="" unicode="ź" />
<glyph horiz-adv-x="883" d="" unicode="Ż" />
<glyph horiz-adv-x="739" d="" unicode="ż" />
<glyph horiz-adv-x="883" d="M 182 1924 L 313 1924 L 440 1768 L 567 1924 L 696 1924 L 512 1598 L 367 1598 L 182 1924 Z M 41 170 L 582 1317 L 82 1317 L 82 1516 L 829 1516 L 829 1339 L 289 193 L 829 193 L 829 0 L 41 0 L 41 170 Z" unicode="Ž" />
<glyph horiz-adv-x="739" d="M 111 1518 L 242 1518 L 369 1362 L 496 1518 L 625 1518 L 441 1192 L 296 1192 L 111 1518 Z M 43 141 L 436 911 L 78 911 L 78 1085 L 678 1085 L 678 940 L 283 170 L 698 170 L 698 0 L 43 0 L 43 141 Z" unicode="ž" />
<glyph horiz-adv-x="614" d="M -49 -412 C -67 -412 -86 -411 -104 -410 C -122 -409 -137 -408 -147 -406 L -123 -231 C -114 -233 -104 -235 -93 -236 C -82 -237 -72 -238 -63 -238 C -26 -238 1 -229 21 -211 C 40 -193 53 -162 59 -117 L 168 686 L 41 686 L 63 856 L 190 856 L 246 1241 C 252 1291 263 1334 279 1370 C 295 1405 316 1434 343 1456 C 369 1478 401 1495 439 1505 C 476 1515 519 1520 569 1520 C 586 1520 603 1519 621 1517 C 639 1515 652 1514 662 1513 L 635 1337 C 626 1338 616 1339 606 1340 C 595 1340 584 1341 573 1341 C 557 1341 542 1339 529 1336 C 516 1332 505 1326 495 1318 C 485 1310 476 1298 469 1283 C 462 1268 457 1249 455 1227 L 403 856 L 561 856 L 539 686 L 381 686 L 266 -145 C 259 -194 248 -236 233 -270 C 218 -304 198 -331 173 -352 C 147 -373 116 -388 80 -398 C 44 -407 1 -412 -49 -412 Z" unicode="ƒ" />
<glyph horiz-adv-x="936" d="" unicode="Ș" />
<glyph horiz-adv-x="772" d="" unicode="ș" />
<glyph horiz-adv-x="864" d="" unicode="Ț" />
<glyph horiz-adv-x="598" d="" unicode="ț" />
<glyph horiz-adv-x="823" d="" unicode="ə" />
<glyph horiz-adv-x="797" d="M 326 1516 L 471 1516 L 653 1190 L 524 1190 L 395 1346 L 270 1190 L 141 1190 L 326 1516 Z" unicode="ˆ" />
<glyph horiz-adv-x="797" d="M 139 1518 L 270 1518 L 397 1362 L 524 1518 L 653 1518 L 469 1192 L 324 1192 L 139 1518 Z" unicode="ˇ" />
<glyph horiz-adv-x="772" d="" unicode="˘" />
<glyph horiz-adv-x="772" d="" unicode="˙" />
<glyph horiz-adv-x="786" d="M 391 1157 C 363 1157 339 1162 317 1174 C 295 1185 276 1200 261 1220 C 246 1240 235 1263 227 1290 C 219 1316 215 1345 215 1376 C 215 1406 219 1435 227 1462 C 235 1488 246 1511 261 1531 C 276 1551 295 1566 317 1578 C 339 1589 363 1595 391 1595 C 419 1595 444 1589 466 1578 C 488 1566 506 1551 522 1531 C 538 1511 550 1488 558 1462 C 566 1435 571 1406 571 1376 C 571 1345 567 1316 559 1290 C 551 1263 539 1240 523 1220 C 507 1200 488 1185 466 1174 C 444 1162 419 1157 391 1157 Z M 391 1260 C 403 1260 413 1263 421 1270 C 429 1276 435 1285 440 1296 C 445 1306 449 1318 451 1332 C 453 1346 455 1360 455 1374 C 455 1388 453 1401 451 1415 C 449 1428 445 1440 440 1450 C 435 1460 429 1469 421 1475 C 413 1481 403 1485 391 1485 C 379 1485 370 1481 362 1475 C 354 1469 348 1460 344 1450 C 340 1440 337 1428 335 1415 C 333 1401 332 1388 332 1374 C 332 1360 333 1346 335 1332 C 337 1318 340 1306 344 1296 C 348 1285 354 1276 362 1270 C 370 1263 379 1260 391 1260 Z" unicode="˚" />
<glyph horiz-adv-x="772" d="" unicode="˛" />
<glyph horiz-adv-x="782" d="M 102 1180 C 102 1279 116 1351 146 1395 C 176 1439 218 1462 272 1462 C 298 1462 323 1456 345 1444 C 367 1432 387 1419 406 1405 C 424 1391 442 1378 459 1366 C 475 1354 492 1348 508 1348 C 526 1348 540 1355 550 1371 C 560 1387 565 1416 565 1458 L 682 1458 C 682 1358 667 1286 638 1242 C 608 1198 566 1176 512 1176 C 485 1176 461 1182 439 1194 C 417 1206 396 1219 377 1233 C 358 1247 340 1260 324 1272 C 307 1284 291 1290 276 1290 C 256 1290 242 1282 233 1266 C 223 1250 219 1221 219 1180 L 102 1180 L 102 1180 Z" unicode="˜" />
<glyph horiz-adv-x="784" d="" unicode="˝" />
<glyph horiz-adv-x="453" d="" unicode="̦" />
<glyph horiz-adv-x="887" d="M 94 1085 L 307 1085 L 307 299 C 307 255 313 221 326 198 C 339 175 363 164 397 164 C 413 164 429 167 446 173 C 462 179 478 188 494 198 C 510 208 525 219 540 231 C 554 243 568 254 580 266 L 580 1085 L 793 1085 L 793 0 L 580 0 L 580 131 C 570 119 558 106 544 92 C 530 78 514 66 498 54 C 481 42 463 32 444 23 C 424 14 404 8 383 6 C 368 4 354 4 340 6 C 326 8 315 15 307 27 L 307 -410 L 94 -410 L 94 1085 Z" unicode="μ" />
<glyph horiz-adv-x="1366" d="" unicode="Ẁ" />
<glyph horiz-adv-x="1118" d="" unicode="ẁ" />
<glyph horiz-adv-x="1366" d="" unicode="Ẃ" />
<glyph horiz-adv-x="1118" d="" unicode="ẃ" />
<glyph horiz-adv-x="1366" d="" unicode="Ẅ" />
<glyph horiz-adv-x="1118" d="" unicode="ẅ" />
<glyph horiz-adv-x="901" d="" unicode="Ỳ" />
<glyph horiz-adv-x="799" d="" unicode="ỳ" />
<glyph horiz-adv-x="1024" d="" unicode=" " />
<glyph horiz-adv-x="2048" d="" unicode=" " />
<glyph horiz-adv-x="496" d="" unicode=" " />
<glyph horiz-adv-x="410" d="" unicode=" " />
<glyph horiz-adv-x="987" d="M 102 731 L 887 731 L 887 543 L 102 543 L 102 731 Z" unicode="‒" />
<glyph horiz-adv-x="932" d="M 74 731 L 858 731 L 858 543 L 74 543 L 74 731 Z" unicode="–" />
<glyph horiz-adv-x="1208" d="M 74 731 L 1135 731 L 1135 543 L 74 543 L 74 731 Z" unicode="—" />
<glyph horiz-adv-x="2048" d="M 0 731 L 2048 731 L 2048 545 L 0 545 L 0 731 Z" unicode="―" />
<glyph horiz-adv-x="449" d="M 104 1251 L 221 1516 L 324 1516 L 250 1266 L 344 1266 L 344 1008 L 104 1008 L 104 1251 Z" unicode="‘" />
<glyph horiz-adv-x="449" d="M 201 1257 L 102 1257 L 102 1516 L 344 1516 L 344 1274 L 229 1008 L 127 1008 L 201 1257 Z" unicode="’" />
<glyph horiz-adv-x="449" d="M 201 0 L 102 0 L 102 258 L 344 258 L 344 16 L 229 -250 L 127 -250 L 201 0 Z" unicode="‚" />
<glyph horiz-adv-x="801" d="M 459 1251 L 573 1516 L 674 1516 L 600 1266 L 696 1266 L 696 1008 L 459 1008 L 459 1251 Z M 104 1251 L 219 1516 L 319 1516 L 246 1266 L 340 1266 L 340 1008 L 104 1008 L 104 1251 Z" unicode="“" />
<glyph horiz-adv-x="799" d="M 553 1257 L 459 1257 L 459 1516 L 696 1516 L 696 1274 L 582 1008 L 481 1008 L 553 1257 Z M 199 1257 L 102 1257 L 102 1516 L 342 1516 L 342 1274 L 227 1008 L 127 1008 L 199 1257 Z" unicode="”" />
<glyph horiz-adv-x="799" d="M 553 0 L 459 0 L 459 258 L 696 258 L 696 16 L 582 -250 L 481 -250 L 553 0 Z M 199 0 L 102 0 L 102 258 L 342 258 L 342 16 L 227 -250 L 127 -250 L 199 0 Z" unicode="„" />
<glyph horiz-adv-x="864" d="M 352 821 L 57 801 L 57 999 L 352 975 L 319 1516 L 543 1516 L 512 975 L 805 999 L 805 801 L 512 821 L 543 -410 L 319 -410 L 352 821 Z" unicode="†" />
<glyph horiz-adv-x="860" d="M 350 51 L 70 27 L 70 221 L 350 199 L 324 557 L 350 907 L 70 887 L 70 1081 L 350 1057 L 319 1516 L 543 1516 L 510 1057 L 793 1081 L 793 887 L 510 907 L 537 557 L 510 199 L 793 221 L 793 27 L 510 51 L 543 -410 L 319 -410 L 350 51 Z" unicode="‡" />
<glyph horiz-adv-x="948" d="M 473 475 C 438 475 406 481 376 493 C 346 505 321 522 300 544 C 278 565 261 590 249 620 C 237 650 231 682 231 717 C 231 752 237 784 249 814 C 261 844 278 869 300 891 C 321 913 346 930 376 942 C 406 954 438 961 473 961 C 508 961 540 954 570 942 C 600 930 625 913 647 891 C 669 869 686 844 698 814 C 710 784 717 752 717 717 C 717 682 710 650 698 620 C 686 590 669 565 647 544 C 625 522 600 505 570 493 C 540 481 508 475 473 475 Z" unicode="•" />
<glyph horiz-adv-x="1380" d="M 1028 258 L 1274 258 L 1274 0 L 1028 0 L 1028 258 Z M 567 258 L 813 258 L 813 0 L 567 0 L 567 258 Z M 104 258 L 352 258 L 352 0 L 104 0 L 104 258 Z" unicode="…" />
<glyph horiz-adv-x="2173" d="M 346 643 C 294 643 249 654 213 676 C 177 698 147 728 125 767 C 102 806 86 853 76 907 C 66 961 61 1020 61 1085 C 61 1153 66 1214 77 1269 C 88 1324 105 1371 129 1411 C 152 1450 182 1480 218 1502 C 254 1523 298 1534 348 1534 C 398 1534 440 1523 476 1502 C 512 1481 541 1451 564 1412 C 586 1373 603 1326 613 1272 C 623 1217 629 1156 629 1090 C 629 1026 624 967 614 913 C 604 858 587 811 565 771 C 542 731 513 699 477 677 C 441 654 398 643 346 643 Z M 991 1516 L 1176 1516 L 543 0 L 356 0 L 991 1516 Z M 1825 -16 C 1773 -16 1729 -5 1693 17 C 1657 39 1628 69 1606 108 C 1583 147 1567 194 1557 248 C 1547 302 1542 360 1542 424 C 1542 492 1547 553 1558 609 C 1569 664 1586 711 1610 751 C 1633 790 1662 820 1698 842 C 1734 863 1777 874 1827 874 C 1877 874 1919 863 1955 842 C 1991 821 2020 791 2043 753 C 2065 714 2082 667 2093 613 C 2103 559 2109 498 2109 432 C 2109 368 2103 308 2093 254 C 2083 199 2066 152 2044 112 C 2022 72 1993 40 1957 18 C 1921 -4 1877 -16 1825 -16 Z M 1186 -16 C 1134 -16 1090 -5 1054 17 C 1018 39 989 69 967 108 C 944 147 928 194 918 248 C 908 302 903 360 903 424 C 903 492 908 553 919 609 C 929 664 946 711 969 751 C 992 790 1021 820 1057 842 C 1093 863 1136 874 1186 874 C 1236 874 1279 863 1315 842 C 1351 821 1380 791 1403 753 C 1425 714 1442 667 1452 613 C 1462 559 1468 498 1468 432 C 1468 368 1463 308 1453 254 C 1443 199 1426 152 1404 112 C 1381 72 1352 40 1316 18 C 1280 -4 1237 -16 1186 -16 Z M 346 795 C 364 795 380 801 393 815 C 405 828 415 847 422 872 C 429 897 434 928 437 964 C 440 1000 442 1041 442 1087 C 442 1184 435 1257 421 1305 C 407 1353 382 1378 344 1378 C 324 1378 308 1371 296 1359 C 284 1346 274 1327 267 1303 C 260 1279 255 1249 252 1213 C 249 1177 248 1137 248 1092 C 248 994 254 920 268 870 C 282 820 308 795 346 795 Z M 1827 135 C 1845 135 1861 141 1874 155 C 1886 168 1896 187 1903 213 C 1910 238 1915 269 1918 305 C 1921 341 1923 382 1923 428 C 1923 527 1916 600 1902 648 C 1888 695 1863 719 1825 719 C 1805 719 1789 712 1777 699 C 1765 686 1755 667 1748 643 C 1741 619 1736 589 1733 553 C 1730 517 1729 477 1729 432 C 1729 333 1735 259 1749 209 C 1763 159 1789 135 1827 135 Z M 1186 135 C 1204 135 1220 141 1233 155 C 1245 168 1255 187 1263 213 C 1271 238 1276 269 1279 305 C 1282 341 1284 382 1284 428 C 1284 528 1276 601 1262 648 C 1248 695 1222 719 1184 719 C 1164 719 1148 712 1136 699 C 1124 686 1114 667 1107 643 C 1099 619 1094 589 1091 553 C 1088 517 1087 477 1087 432 C 1087 333 1094 259 1108 209 C 1122 159 1148 135 1186 135 Z" unicode="‰" />
<glyph horiz-adv-x="385" d="" unicode="′" />
<glyph horiz-adv-x="692" d="" unicode="″" />
<glyph horiz-adv-x="489" d="M 33 541 L 236 1079 L 436 1079 L 238 541 L 436 0 L 236 0 L 33 541 Z" unicode="‹" />
<glyph horiz-adv-x="489" d="M 250 541 L 53 1079 L 254 1079 L 457 541 L 254 0 L 53 0 L 250 541 Z" unicode="›" />
<glyph horiz-adv-x="729" d="M 543 1516 L 739 1516 L 176 0 L -20 0 L 543 1516 Z" unicode="⁄" />
<glyph horiz-adv-x="764" d="M 383 565 C 339 565 299 573 264 591 C 229 608 199 636 175 674 C 151 712 132 762 119 823 C 106 883 100 957 100 1044 C 100 1130 106 1203 119 1264 C 132 1325 151 1375 175 1414 C 199 1452 229 1481 264 1499 C 299 1517 339 1526 383 1526 C 427 1526 467 1517 502 1499 C 537 1481 567 1452 591 1414 C 615 1375 634 1325 647 1264 C 659 1203 666 1130 666 1044 C 666 957 659 883 647 823 C 634 762 615 712 591 674 C 567 636 537 608 502 591 C 467 573 427 565 383 565 Z M 383 700 C 425 700 454 727 471 782 C 487 837 496 924 496 1044 C 496 1104 494 1155 490 1198 C 486 1241 479 1276 471 1304 C 462 1331 450 1351 436 1364 C 421 1377 403 1384 383 1384 C 361 1384 343 1377 329 1364 C 315 1351 303 1331 295 1304 C 286 1276 280 1241 276 1198 C 272 1155 270 1104 270 1044 C 270 924 278 837 295 782 C 312 727 341 700 383 700 Z" unicode="⁰" />
<glyph horiz-adv-x="709" d="M 375 774 L 68 774 L 68 893 L 362 1516 L 530 1516 L 530 909 L 631 909 L 631 774 L 530 774 L 530 573 L 375 573 L 375 774 Z M 377 909 L 377 1274 L 209 909 L 377 909 Z" unicode="⁴" />
<glyph horiz-adv-x="717" d="M 352 561 C 306 561 269 566 239 577 C 209 588 184 604 164 624 C 144 644 129 668 118 696 C 107 724 98 756 90 791 L 240 821 C 246 797 252 778 258 762 C 264 746 271 732 279 722 C 287 711 297 703 309 699 C 320 694 334 692 350 692 C 370 692 387 697 400 707 C 413 717 423 730 431 748 C 438 766 443 786 445 810 C 447 833 449 858 449 885 C 449 945 442 990 429 1022 C 415 1053 392 1069 358 1069 C 330 1069 310 1062 296 1049 C 282 1035 269 1016 258 991 L 119 1010 L 143 1516 L 586 1516 L 575 1374 L 283 1374 L 272 1143 C 284 1159 301 1174 322 1187 C 343 1199 372 1206 410 1206 C 442 1206 470 1200 496 1189 C 522 1177 544 1159 562 1134 C 580 1108 593 1076 603 1036 C 613 996 618 947 618 889 C 618 831 612 782 600 741 C 588 699 570 665 548 639 C 525 612 497 592 464 580 C 431 567 394 561 352 561 Z" unicode="⁵" />
<glyph horiz-adv-x="725" d="M 371 561 C 329 561 291 570 258 588 C 224 606 196 633 172 671 C 148 709 130 757 118 816 C 106 874 100 944 100 1026 C 100 1105 104 1175 114 1237 C 123 1299 139 1351 161 1394 C 183 1436 212 1469 248 1491 C 284 1513 329 1524 383 1524 C 418 1524 448 1518 474 1508 C 500 1498 522 1484 540 1467 C 558 1450 573 1430 585 1408 C 596 1385 605 1361 612 1337 L 469 1292 C 459 1323 448 1347 434 1365 C 420 1382 400 1391 375 1391 C 353 1391 336 1385 322 1373 C 308 1361 296 1343 288 1319 C 279 1295 273 1266 270 1230 C 266 1194 264 1153 264 1106 C 285 1127 308 1145 334 1159 C 360 1173 390 1180 424 1180 C 461 1180 493 1172 519 1158 C 545 1143 567 1122 583 1096 C 599 1070 611 1039 619 1003 C 627 967 631 927 631 885 C 631 837 625 793 615 753 C 605 713 589 679 568 651 C 547 623 520 601 487 585 C 454 569 415 561 371 561 Z M 375 696 C 439 696 471 755 471 874 C 471 926 465 967 453 997 C 441 1027 417 1042 381 1042 C 360 1042 339 1036 319 1025 C 299 1014 281 998 266 977 C 268 880 277 809 295 764 C 313 718 339 696 375 696 Z" unicode="⁶" />
<glyph horiz-adv-x="625" d="M 387 1374 L 78 1374 L 78 1516 L 553 1516 L 553 1382 L 291 573 L 125 573 L 387 1374 Z" unicode="⁷" />
<glyph horiz-adv-x="719" d="M 360 557 C 313 557 273 563 239 576 C 205 589 176 607 154 629 C 132 651 115 676 104 706 C 93 735 88 766 88 799 C 88 831 92 860 101 886 C 110 912 122 935 137 957 C 152 979 169 998 188 1016 C 207 1034 227 1050 248 1065 C 230 1079 214 1093 198 1108 C 182 1122 169 1139 157 1157 C 145 1175 136 1196 129 1220 C 122 1244 119 1271 119 1303 C 119 1335 124 1365 134 1393 C 144 1421 160 1445 180 1466 C 200 1487 226 1504 256 1516 C 286 1528 320 1534 360 1534 C 400 1534 436 1528 466 1516 C 496 1504 521 1487 541 1466 C 561 1445 575 1421 585 1393 C 595 1365 600 1335 600 1303 C 600 1251 587 1206 562 1168 C 537 1129 507 1096 471 1069 C 491 1054 511 1038 531 1022 C 550 1006 567 987 582 967 C 597 946 609 922 618 895 C 626 868 631 837 631 801 C 631 767 625 735 613 705 C 601 675 584 650 562 628 C 539 606 511 588 477 576 C 443 563 404 557 360 557 Z M 358 684 C 395 684 423 695 442 718 C 461 740 471 771 471 811 C 471 829 467 847 461 863 C 455 879 446 894 436 908 C 426 922 413 935 399 948 C 385 961 370 974 354 987 C 340 975 326 963 313 951 C 300 938 289 924 279 910 C 269 895 261 879 255 862 C 249 845 246 827 246 807 C 246 771 255 741 274 718 C 293 695 321 684 358 684 Z M 367 1141 C 390 1161 410 1184 427 1208 C 444 1232 453 1260 453 1292 C 453 1307 451 1321 447 1335 C 443 1349 438 1361 431 1371 C 423 1381 414 1388 402 1394 C 390 1400 376 1403 360 1403 C 329 1403 307 1392 293 1372 C 279 1351 272 1326 272 1296 C 272 1278 274 1261 279 1247 C 284 1233 291 1219 300 1207 C 308 1195 318 1183 330 1172 C 341 1161 353 1151 367 1141 Z" unicode="⁸" />
<glyph horiz-adv-x="725" d="M 342 561 C 307 561 277 566 251 576 C 225 586 203 600 185 618 C 167 635 152 655 140 678 C 128 700 119 724 113 748 L 258 793 C 267 763 278 738 291 720 C 303 701 323 692 350 692 C 372 692 390 698 404 710 C 418 722 429 741 437 765 C 445 789 451 818 455 854 C 458 890 460 931 461 979 C 440 958 417 941 392 927 C 366 913 336 907 301 907 C 264 907 232 914 206 929 C 180 943 158 964 142 990 C 125 1016 113 1048 105 1084 C 97 1120 94 1159 94 1202 C 94 1250 99 1293 109 1333 C 119 1372 135 1406 157 1434 C 178 1462 205 1484 238 1500 C 270 1516 309 1524 354 1524 C 396 1524 433 1515 467 1497 C 501 1479 529 1451 553 1413 C 577 1375 595 1327 608 1269 C 620 1210 627 1140 627 1059 C 627 979 622 909 612 847 C 602 785 587 733 565 691 C 543 649 513 616 477 594 C 441 572 396 561 342 561 Z M 346 1040 C 388 1040 427 1062 461 1106 C 459 1202 449 1273 431 1318 C 413 1363 387 1386 352 1386 C 318 1386 293 1371 278 1342 C 263 1312 256 1268 256 1208 C 256 1182 257 1158 259 1138 C 261 1117 266 1099 273 1085 C 279 1070 288 1059 300 1051 C 312 1043 327 1040 346 1040 Z" unicode="⁹" />
<glyph horiz-adv-x="764" d="M 383 -421 C 339 -421 299 -412 264 -395 C 229 -377 199 -349 175 -311 C 151 -273 132 -223 119 -163 C 106 -102 100 -28 100 58 C 100 144 106 217 119 278 C 132 339 151 389 175 428 C 199 466 229 495 264 513 C 299 531 339 540 383 540 C 427 540 467 531 502 513 C 537 495 567 466 591 428 C 615 389 634 339 647 278 C 659 217 666 144 666 58 C 666 -28 659 -102 647 -163 C 634 -223 615 -273 591 -311 C 567 -349 537 -377 502 -395 C 467 -412 427 -421 383 -421 Z M 383 -286 C 425 -286 454 -258 471 -203 C 487 -148 496 -61 496 58 C 496 118 494 169 490 212 C 486 255 479 290 471 318 C 462 345 450 365 436 378 C 421 391 403 398 383 398 C 361 398 343 391 329 378 C 315 365 303 345 295 318 C 286 290 280 255 276 212 C 272 169 270 118 270 58 C 270 -61 278 -148 295 -203 C 312 -258 341 -286 383 -286 Z" unicode="₀" />
<glyph horiz-adv-x="539" d="M 84 -265 L 203 -265 L 203 347 C 186 339 167 332 147 328 C 127 323 106 321 86 321 L 86 470 C 142 472 185 492 213 530 L 371 530 L 371 -265 L 477 -265 L 477 -406 L 84 -406 L 84 -265 Z" unicode="₁" />
<glyph horiz-adv-x="676" d="M 80 -380 C 80 -327 84 -281 94 -241 C 104 -201 116 -165 132 -135 C 148 -104 166 -77 186 -53 C 206 -29 226 -7 247 12 C 268 32 289 52 309 71 C 329 90 347 110 363 131 C 379 152 391 175 401 201 C 411 227 416 256 416 290 C 416 325 409 352 397 370 C 384 388 364 398 338 398 C 324 398 313 395 303 391 C 293 386 284 378 276 367 C 268 356 260 341 254 323 C 248 304 242 281 238 253 L 86 278 C 100 362 128 427 170 472 C 211 517 271 540 350 540 C 426 540 484 518 523 475 C 562 432 582 372 582 296 C 582 247 574 204 559 167 C 544 130 525 96 503 66 C 480 36 455 8 428 -17 C 401 -43 376 -68 352 -94 C 328 -119 307 -145 290 -173 C 273 -200 263 -231 260 -265 L 582 -265 L 582 -406 L 80 -406 L 80 -380 Z" unicode="₂" />
<glyph horiz-adv-x="674" d="M 326 -421 C 284 -421 248 -415 218 -405 C 188 -394 163 -378 143 -358 C 123 -338 106 -313 93 -283 C 79 -253 68 -220 59 -183 L 211 -155 C 222 -203 236 -236 254 -256 C 271 -276 294 -286 324 -286 C 360 -286 385 -272 399 -246 C 413 -219 420 -181 420 -132 C 420 -104 417 -81 411 -62 C 405 -43 396 -28 382 -16 C 368 -4 351 4 329 10 C 307 15 280 18 248 18 L 209 18 L 209 149 L 258 149 C 288 149 312 151 332 155 C 352 159 367 167 378 178 C 389 188 397 202 401 219 C 405 236 408 258 408 284 C 408 302 406 318 404 333 C 402 347 398 360 392 370 C 386 380 377 388 367 394 C 357 400 344 403 328 403 C 300 403 278 392 263 372 C 248 351 235 324 225 292 L 82 333 C 100 396 130 446 172 484 C 214 521 268 540 336 540 C 378 540 413 534 443 523 C 473 511 497 495 515 475 C 533 455 547 430 556 402 C 564 374 569 342 569 308 C 569 195 531 123 455 93 C 499 75 532 47 553 9 C 573 -29 584 -84 584 -155 C 584 -194 578 -230 568 -263 C 558 -295 542 -323 521 -347 C 499 -370 472 -388 440 -401 C 408 -414 370 -421 326 -421 Z" unicode="₃" />
<glyph horiz-adv-x="709" d="M 375 -212 L 68 -212 L 68 -93 L 362 530 L 530 530 L 530 -77 L 631 -77 L 631 -212 L 530 -212 L 530 -413 L 375 -413 L 375 -212 Z M 377 -77 L 377 288 L 209 -77 L 377 -77 Z" unicode="₄" />
<glyph horiz-adv-x="717" d="M 352 -425 C 306 -425 269 -419 239 -408 C 209 -397 184 -382 164 -362 C 144 -342 129 -317 118 -289 C 107 -261 98 -229 90 -195 L 240 -165 C 246 -188 252 -208 258 -224 C 264 -240 271 -253 279 -264 C 287 -274 297 -282 309 -287 C 320 -291 334 -294 350 -294 C 370 -294 387 -289 400 -279 C 413 -269 423 -255 431 -237 C 438 -219 443 -199 445 -176 C 447 -152 449 -127 449 -101 C 449 -41 442 4 429 36 C 415 67 392 83 358 83 C 330 83 310 76 296 63 C 282 49 269 30 258 5 L 119 24 L 143 530 L 586 530 L 575 388 L 283 388 L 272 157 C 284 173 301 188 322 201 C 343 213 372 220 410 220 C 442 220 470 214 496 203 C 522 191 544 173 562 148 C 580 122 593 90 603 50 C 613 10 618 -39 618 -97 C 618 -154 612 -203 600 -245 C 588 -286 570 -320 548 -347 C 525 -373 497 -393 464 -406 C 431 -418 394 -425 352 -425 Z" unicode="₅" />
<glyph horiz-adv-x="725" d="M 371 -425 C 329 -425 291 -416 258 -398 C 224 -380 196 -352 172 -314 C 148 -276 130 -228 118 -170 C 106 -111 100 -41 100 40 C 100 119 104 189 114 251 C 123 313 139 365 161 408 C 183 450 212 483 248 505 C 284 527 329 538 383 538 C 418 538 448 532 474 522 C 500 512 522 498 540 481 C 558 464 573 444 585 422 C 596 399 605 375 612 351 L 469 306 C 459 337 448 361 434 379 C 420 396 400 405 375 405 C 353 405 336 399 322 387 C 308 375 296 357 288 333 C 279 309 273 280 270 244 C 266 208 264 167 264 120 C 285 141 308 159 334 173 C 360 187 390 194 424 194 C 461 194 493 186 519 172 C 545 157 567 136 583 110 C 599 84 611 53 619 17 C 627 -19 631 -58 631 -101 C 631 -149 625 -192 615 -232 C 605 -272 589 -306 568 -334 C 547 -362 520 -385 487 -401 C 454 -417 415 -425 371 -425 Z M 375 -290 C 439 -290 471 -230 471 -112 C 471 -59 465 -18 453 11 C 441 41 417 56 381 56 C 360 56 339 50 319 39 C 299 28 281 12 266 -9 C 268 -105 277 -176 295 -222 C 313 -267 339 -290 375 -290 Z" unicode="₆" />
<glyph horiz-adv-x="625" d="M 387 388 L 78 388 L 78 530 L 553 530 L 553 396 L 291 -413 L 125 -413 L 387 388 Z" unicode="₇" />
<glyph horiz-adv-x="719" d="M 360 -429 C 313 -429 273 -422 239 -409 C 205 -396 176 -379 154 -357 C 132 -335 115 -309 104 -280 C 93 -250 88 -219 88 -187 C 88 -155 92 -126 101 -100 C 110 -74 122 -50 137 -28 C 152 -6 169 12 188 30 C 207 48 227 64 248 79 C 230 93 214 107 198 122 C 182 136 169 153 157 171 C 145 189 136 210 129 234 C 122 258 119 285 119 317 C 119 349 124 379 134 407 C 144 435 160 459 180 480 C 200 501 226 518 256 530 C 286 542 320 548 360 548 C 400 548 436 542 466 530 C 496 518 521 501 541 480 C 561 459 575 435 585 407 C 595 379 600 349 600 317 C 600 265 587 220 562 182 C 537 143 507 110 471 83 C 491 68 511 52 531 36 C 550 20 567 1 582 -19 C 597 -39 609 -63 618 -90 C 626 -117 631 -149 631 -185 C 631 -219 625 -250 613 -280 C 601 -310 584 -336 562 -358 C 539 -380 511 -397 477 -410 C 443 -422 404 -429 360 -429 Z M 358 -302 C 395 -302 423 -290 442 -268 C 461 -245 471 -214 471 -175 C 471 -156 467 -139 461 -123 C 455 -107 446 -92 436 -78 C 426 -64 413 -50 399 -37 C 385 -24 370 -11 354 1 C 340 -10 326 -22 313 -35 C 300 -47 289 -61 279 -76 C 269 -90 261 -106 255 -123 C 249 -140 246 -159 246 -179 C 246 -215 255 -244 274 -267 C 293 -290 321 -302 358 -302 Z M 367 155 C 390 175 410 198 427 222 C 444 246 453 274 453 306 C 453 321 451 335 447 349 C 443 363 438 375 431 385 C 423 395 414 402 402 408 C 390 414 376 417 360 417 C 329 417 307 406 293 386 C 279 365 272 340 272 310 C 272 292 274 275 279 261 C 284 247 291 233 300 221 C 308 209 318 197 330 186 C 341 175 353 165 367 155 Z" unicode="₈" />
<glyph horiz-adv-x="725" d="M 342 -425 C 307 -425 277 -419 251 -409 C 225 -399 203 -385 185 -368 C 167 -350 152 -330 140 -308 C 128 -285 119 -262 113 -238 L 258 -193 C 267 -223 278 -247 291 -266 C 303 -284 323 -294 350 -294 C 372 -294 390 -287 404 -275 C 418 -263 429 -245 437 -221 C 445 -197 451 -167 455 -131 C 458 -95 460 -54 461 -7 C 440 -27 417 -44 392 -58 C 366 -72 336 -79 301 -79 C 264 -79 232 -71 206 -57 C 180 -42 158 -21 142 4 C 125 30 113 62 105 98 C 97 134 94 173 94 216 C 94 264 99 307 109 347 C 119 386 135 420 157 448 C 178 476 205 498 238 514 C 270 530 309 538 354 538 C 396 538 433 529 467 511 C 501 493 529 465 553 427 C 577 389 595 341 608 283 C 620 224 627 154 627 73 C 627 -6 622 -76 612 -138 C 602 -200 587 -252 565 -294 C 543 -336 513 -369 477 -391 C 441 -413 396 -425 342 -425 Z M 346 54 C 388 54 427 76 461 120 C 459 216 449 287 431 332 C 413 377 387 400 352 400 C 318 400 293 385 278 356 C 263 326 256 282 256 222 C 256 196 257 172 259 152 C 261 131 266 113 273 99 C 279 84 288 73 300 65 C 312 57 327 54 346 54 Z" unicode="₉" />
<glyph horiz-adv-x="1014" d="M 565 -18 C 509 -18 457 -9 411 9 C 365 27 324 57 289 100 C 254 142 225 198 203 268 C 180 338 164 424 154 528 L 20 528 L 20 688 L 143 688 L 143 821 L 20 821 L 20 981 L 154 981 C 164 1091 183 1182 209 1254 C 235 1325 266 1381 302 1423 C 338 1464 379 1493 424 1509 C 468 1525 515 1534 563 1534 C 621 1534 671 1525 715 1507 C 758 1489 795 1461 826 1424 C 856 1387 881 1340 900 1283 C 919 1226 933 1159 942 1081 L 745 1061 C 739 1109 731 1151 723 1186 C 714 1221 703 1250 689 1273 C 675 1296 659 1313 639 1324 C 619 1335 595 1341 567 1341 C 539 1341 514 1335 492 1324 C 470 1313 450 1294 433 1267 C 416 1239 402 1202 391 1156 C 379 1110 371 1051 367 981 L 659 981 L 659 821 L 360 821 C 358 811 358 801 358 791 C 358 781 358 772 358 762 C 358 749 358 737 358 725 C 358 713 358 700 360 688 L 659 688 L 659 528 L 367 528 C 372 454 380 393 392 346 C 404 299 418 262 435 236 C 452 210 472 192 494 182 C 516 172 539 168 565 168 C 597 168 625 173 647 184 C 669 195 687 212 702 236 C 716 259 728 289 737 327 C 746 364 754 409 760 461 L 956 442 C 949 381 938 323 924 267 C 910 211 888 162 859 120 C 829 78 791 44 744 19 C 696 -5 637 -18 565 -18 Z" unicode="€" />
<glyph horiz-adv-x="1165" d="" unicode="℗" />
<glyph horiz-adv-x="1294" d="M 578 1516 L 766 1516 L 895 877 L 1026 1516 L 1212 1516 L 1212 631 L 1071 631 L 1071 1208 L 952 631 L 829 631 L 711 1208 L 711 631 L 578 631 L 578 1516 Z M 199 1366 L 37 1366 L 37 1516 L 508 1516 L 508 1366 L 348 1366 L 348 631 L 199 631 L 199 1366 Z" unicode="™" />
<glyph horiz-adv-x="952" d="" unicode="−" />
<glyph horiz-adv-x="887" d="" unicode="√" />
<glyph horiz-adv-x="1147" d="" unicode="∞" />
<glyph horiz-adv-x="1010" d="" unicode="≈" />
<glyph horiz-adv-x="944" d="" unicode="≠" />
<glyph horiz-adv-x="999" d="" unicode="≤" />
<glyph horiz-adv-x="997" d="" unicode="≥" />
<glyph horiz-adv-x="989" d="" unicode="◊" />
<glyph horiz-adv-x="887" d="" unicode="✓" />
<glyph horiz-adv-x="1597" d="M 702 274 L 367 252 L 367 324 L 293 324 L 315 662 L 41 645 L 41 868 L 315 854 L 293 1190 L 367 1190 L 367 1264 L 702 1241 L 688 1516 L 911 1516 L 895 1241 L 1233 1264 L 1233 1190 L 1305 1190 L 1282 854 L 1556 868 L 1556 645 L 1282 662 L 1305 324 L 1233 324 L 1233 252 L 895 274 L 911 0 L 688 0 L 702 274 Z M 1139 854 L 1124 1083 L 895 1098 L 895 854 L 1139 854 Z M 702 854 L 702 1098 L 475 1083 L 459 854 L 702 854 Z M 1124 432 L 1139 662 L 895 662 L 895 418 L 1124 432 Z M 702 662 L 459 662 L 473 432 L 702 418 L 702 662 Z" unicode="" />
<glyph horiz-adv-x="1028" d="M 631 911 L 365 911 L 365 0 L 152 0 L 152 911 L 27 911 L 27 1085 L 152 1085 L 152 1239 C 152 1327 173 1395 216 1443 C 258 1491 327 1516 422 1516 L 504 1516 L 504 1335 C 500 1336 493 1336 485 1336 C 476 1335 468 1335 461 1335 C 429 1335 405 1326 389 1310 C 373 1294 365 1267 365 1229 L 365 1085 L 631 1085 L 631 1239 C 631 1283 635 1322 645 1356 C 655 1390 671 1419 693 1443 C 715 1467 744 1485 780 1497 C 816 1509 861 1516 915 1516 L 1008 1516 L 1008 1335 L 954 1335 C 937 1335 922 1333 908 1331 C 894 1328 883 1323 874 1315 C 864 1307 857 1296 852 1282 C 846 1268 844 1251 844 1229 L 844 1085 L 1001 1085 L 1001 911 L 844 911 L 844 0 L 631 0 L 631 911 Z" unicode="ﬀ" />
<glyph horiz-adv-x="940" d="M 614 1473 L 831 1473 L 831 1251 L 614 1251 L 614 1473 Z M 152 911 L 27 911 L 27 1085 L 152 1085 L 152 1239 C 152 1327 173 1395 216 1444 C 258 1493 327 1518 422 1518 C 442 1518 459 1517 473 1517 C 486 1516 496 1516 504 1516 L 504 1335 C 500 1336 493 1337 485 1337 C 476 1337 468 1337 461 1337 C 429 1337 405 1328 389 1311 C 373 1294 365 1267 365 1229 L 365 1085 L 498 1085 L 498 911 L 365 911 L 365 0 L 152 0 L 152 911 Z M 616 1085 L 829 1085 L 829 0 L 616 0 L 616 1085 Z" unicode="ﬁ" />
<glyph horiz-adv-x="940" d="M 152 911 L 27 911 L 27 1085 L 152 1085 L 152 1239 C 152 1327 173 1395 216 1444 C 258 1493 327 1518 422 1518 C 442 1518 459 1517 473 1517 C 486 1516 496 1516 504 1516 L 504 1335 C 500 1336 493 1337 485 1337 C 476 1337 468 1337 461 1337 C 429 1337 405 1328 389 1311 C 373 1294 365 1267 365 1229 L 365 1085 L 498 1085 L 498 911 L 365 911 L 365 0 L 152 0 L 152 911 Z M 616 1516 L 829 1516 L 829 0 L 616 0 L 616 1516 Z" unicode="ﬂ" />
<glyph horiz-adv-x="1407" d="M 631 911 L 365 911 L 365 0 L 152 0 L 152 911 L 27 911 L 27 1085 L 152 1085 L 152 1239 C 152 1327 173 1395 216 1443 C 258 1491 327 1516 422 1516 L 504 1516 L 504 1335 L 461 1335 C 429 1335 405 1326 389 1310 C 373 1294 365 1267 365 1229 L 365 1085 L 631 1085 L 631 1239 C 631 1283 636 1322 646 1356 C 656 1390 673 1419 695 1443 C 717 1467 745 1485 779 1497 C 813 1509 853 1516 901 1516 L 981 1516 L 981 1335 L 938 1335 C 907 1335 884 1326 868 1310 C 852 1294 844 1267 844 1229 L 844 1085 L 975 1085 L 975 911 L 844 911 L 844 0 L 631 0 L 631 911 Z M 1090 1085 L 1303 1085 L 1303 0 L 1090 0 L 1090 1085 Z M 1087 1473 L 1305 1473 L 1305 1251 L 1087 1251 L 1087 1473 Z" unicode="ﬃ" />
<glyph horiz-adv-x="1407" d="M 631 911 L 365 911 L 365 0 L 152 0 L 152 911 L 27 911 L 27 1085 L 152 1085 L 152 1239 C 152 1327 173 1395 216 1443 C 258 1491 327 1516 422 1516 L 504 1516 L 504 1335 L 461 1335 C 429 1335 405 1326 389 1310 C 373 1294 365 1267 365 1229 L 365 1085 L 631 1085 L 631 1239 C 631 1283 636 1322 646 1356 C 656 1390 673 1419 695 1443 C 717 1467 745 1485 779 1497 C 813 1509 853 1516 901 1516 L 981 1516 L 981 1335 L 938 1335 C 907 1335 884 1326 868 1310 C 852 1294 844 1267 844 1229 L 844 1085 L 975 1085 L 975 911 L 844 911 L 844 0 L 631 0 L 631 911 Z M 1090 1516 L 1303 1516 L 1303 0 L 1090 0 L 1090 1516 Z" unicode="ﬄ" />
</font>
</defs>
</svg>
